<?xml version="1.0" encoding="UTF-8"?>
<svg width="746px" height="560px" viewBox="0 0 746 560" version="1.1" xmlns="http://www.w3.org/2000/svg" xmlns:xlink="http://www.w3.org/1999/xlink">
    <!-- Generator: Sketch 62 (91390) - https://sketch.com -->
    <title>Group 6</title>
    <desc>Created with Sketch.</desc>
    <defs>
        <circle id="path-1" cx="105.5" cy="105.5" r="105.5"></circle>
        <filter x="-3.3%" y="-2.4%" width="106.6%" height="106.6%" filterUnits="objectBoundingBox" id="filter-2">
            <feOffset dx="0" dy="2" in="SourceAlpha" result="shadowOffsetOuter1"></feOffset>
            <feGaussianBlur stdDeviation="2" in="shadowOffsetOuter1" result="shadowBlurOuter1"></feGaussianBlur>
            <feColorMatrix values="0 0 0 0 0   0 0 0 0 0   0 0 0 0 0  0 0 0 0.5 0" type="matrix" in="shadowBlurOuter1"></feColorMatrix>
        </filter>
        <path d="M57.028057,-7.10542736e-15 C59.4715473,-7.10542736e-15 61.570388,1.73610387 62.028535,4.13625931 C62.4866821,6.53641476 61.174894,8.92354709 58.9032061,9.82359088 L58.9032061,9.82359088 L58.9032061,30.818831 L68.0967939,30.818831 L68.0967939,9.82466239 C65.8263611,8.92467751 64.5155252,6.53857063 64.9736496,4.1396208 C65.431774,1.74067097 67.5296411,0.00551971697 69.971943,0.00551971697 C72.4142448,0.00551971697 74.512112,1.74067097 74.9702363,4.1396208 C75.4283607,6.53857063 74.1175249,8.92467751 71.847092,9.82466239 L71.847092,9.82466239 L71.847092,30.818831 L81.051395,30.818831 L81.051395,17.2856125 C81.0519861,16.2502413 81.8911728,15.4110546 82.926544,15.4104635 L82.926544,15.4104635 L95.2810974,15.4104635 L95.2810974,9.82359088 C93.0106646,8.92360599 91.6998287,6.53749912 92.1579531,4.13854929 C92.6160775,1.73959945 94.7139446,0.00444820323 97.1562465,0.00444820323 C99.5985483,0.00444820323 101.696415,1.73959945 102.15454,4.13854929 C102.612664,6.53749912 101.301828,8.92360599 99.0313955,9.82359088 L99.0313955,9.82359088 L99.0313955,17.2856125 C99.0308044,18.3209838 98.1916177,19.1601704 97.1562465,19.1607616 L97.1562465,19.1607616 L84.8016931,19.1607616 L84.8016931,30.818831 L94.3060199,30.818831 C95.3413912,30.8194222 96.1805778,31.6586088 96.181169,32.6939801 L96.181169,32.6939801 L96.181169,42.1983069 L107.839238,42.1983069 L107.839238,29.8437535 C107.83983,28.8083823 108.679016,27.9691956 109.714387,27.9686045 L109.714387,27.9686045 L117.176409,27.9686045 C118.076453,25.6969166 120.463585,24.3851285 122.863741,24.8432755 C125.263896,25.3014226 127,27.4002632 127,29.8437535 C127,32.2872438 125.263896,34.3860845 122.863741,34.8442315 C120.463585,35.3023786 118.076453,33.9905905 117.176409,31.7189026 L117.176409,31.7189026 L111.589537,31.7189026 L111.589537,44.073456 C111.588945,45.1088272 110.749759,45.9480139 109.714387,45.948605 L109.714387,45.948605 L96.181169,45.948605 L96.181169,55.152908 L117.176409,55.152908 C118.076453,52.8812201 120.463585,51.569432 122.863741,52.027579 C125.263896,52.4857261 127,54.5845667 127,57.028057 C127,59.4715473 125.263896,61.570388 122.863741,62.028535 C120.463585,62.4866821 118.076453,61.174894 117.176409,58.9032061 L117.176409,58.9032061 L96.181169,58.9032061 L96.181169,68.0967939 L117.175338,68.0967939 C118.075322,65.8263611 120.461429,64.5155252 122.860379,64.9736496 C125.259329,65.431774 126.99448,67.5296411 126.99448,69.971943 C126.99448,72.4142448 125.259329,74.512112 122.860379,74.9702363 C120.461429,75.4283607 118.075322,74.1175249 117.175338,71.847092 L117.175338,71.847092 L96.181169,71.847092 L96.181169,81.051395 L109.714387,81.051395 C110.749759,81.0519861 111.588945,81.8911728 111.589537,82.926544 L111.589537,82.926544 L111.589537,95.2810974 L117.176409,95.2810974 C118.076394,93.0106646 120.462501,91.6998287 122.861451,92.1579531 C125.260401,92.6160775 126.995552,94.7139446 126.995552,97.1562465 C126.995552,99.5985483 125.260401,101.696415 122.861451,102.15454 C120.462501,102.612664 118.076394,101.301828 117.176409,99.0313955 L117.176409,99.0313955 L109.714387,99.0313955 C108.679016,99.0308044 107.83983,98.1916177 107.839238,97.1562465 L107.839238,97.1562465 L107.839238,84.8016931 L96.181169,84.8016931 L96.181169,94.3060199 C96.1805778,95.3413912 95.3413912,96.1805778 94.3060199,96.181169 L94.3060199,96.181169 L84.8016931,96.181169 L84.8016931,107.839238 L97.1562465,107.839238 C98.1916177,107.83983 99.0308044,108.679016 99.0313955,109.714387 L99.0313955,109.714387 L99.0313955,117.176409 C101.302456,118.076423 102.613768,120.463043 102.155632,122.862596 C101.697496,125.262148 99.5991425,126.997776 97.1562465,126.997776 C94.7133504,126.997776 92.6149965,125.262148 92.1568608,122.862596 C91.6987251,120.463043 93.010037,118.076423 95.2810974,117.176409 L95.2810974,117.176409 L95.2810974,111.589537 L82.926544,111.589537 C81.8911728,111.588945 81.0519861,110.749759 81.051395,109.714387 L81.051395,109.714387 L81.051395,96.181169 L71.847092,96.181169 L71.847092,117.176409 C74.1187799,118.076453 75.430568,120.463585 74.972421,122.863741 C74.5142739,125.263896 72.4154333,127 69.971943,127 C67.5284527,127 65.429612,125.263896 64.971465,122.863741 C64.5133179,120.463585 65.825106,118.076453 68.0967939,117.176409 L68.0967939,117.176409 L68.0967939,96.181169 L58.9032061,96.181169 L58.9032061,117.175338 C61.1736389,118.075322 62.4844748,120.461429 62.0263504,122.860379 C61.568226,125.259329 59.4703589,126.99448 57.028057,126.99448 C54.5857552,126.99448 52.487888,125.259329 52.0297637,122.860379 C51.5716393,120.461429 52.8824751,118.075322 55.152908,117.175338 L55.152908,117.175338 L55.152908,96.181169 L45.948605,96.181169 L45.948605,109.714387 C45.9480139,110.749759 45.1088272,111.588945 44.073456,111.589537 L44.073456,111.589537 L31.7189026,111.589537 L31.7189026,117.176409 C33.9893354,118.076394 35.3001713,120.462501 34.8420469,122.861451 C34.3839225,125.260401 32.2860554,126.995552 29.8437535,126.995552 C27.4014517,126.995552 25.3035845,125.260401 24.8454602,122.861451 C24.3873358,120.462501 25.6981716,118.076394 27.9686045,117.176409 L27.9686045,117.176409 L27.9686045,109.714387 C27.9691956,108.679016 28.8083823,107.83983 29.8437535,107.839238 L29.8437535,107.839238 L42.1983069,107.839238 L42.1983069,96.181169 L32.6939801,96.181169 C31.6586088,96.1805778 30.8194222,95.3413912 30.818831,94.3060199 L30.818831,94.3060199 L30.818831,84.8016931 L19.1607616,84.8016931 L19.1607616,97.1562465 C19.1601704,98.1916177 18.3209838,99.0308044 17.2856125,99.0313955 L17.2856125,99.0313955 L9.82359088,99.0313955 C8.92354709,101.303083 6.53641476,102.614872 4.13625931,102.156724 C1.73610387,101.698577 -1.42108547e-14,99.5997368 -1.42108547e-14,97.1562465 C-1.42108547e-14,94.7127562 1.73610387,92.6139155 4.13625931,92.1557685 C6.53641476,91.6976214 8.92354709,93.0094095 9.82359088,95.2810974 L9.82359088,95.2810974 L15.4104635,95.2810974 L15.4104635,82.926544 C15.4110546,81.8911728 16.2502413,81.0519861 17.2856125,81.051395 L17.2856125,81.051395 L30.818831,81.051395 L30.818831,71.847092 L9.82359088,71.847092 C8.92354709,74.1187799 6.53641476,75.430568 4.13625931,74.972421 C1.73610387,74.5142739 -1.42108547e-14,72.4154333 -1.42108547e-14,69.971943 C-1.42108547e-14,67.5284527 1.73610387,65.429612 4.13625931,64.971465 C6.53641476,64.5133179 8.92354709,65.825106 9.82359088,68.0967939 L9.82359088,68.0967939 L30.818831,68.0967939 L30.818831,58.9032061 L9.82466239,58.9032061 C8.92467751,61.1736389 6.53857063,62.4844748 4.1396208,62.0263504 C1.74067097,61.568226 0.00551971697,59.4703589 0.00551971697,57.028057 C0.00551971697,54.5857552 1.74067097,52.487888 4.1396208,52.0297637 C6.53857063,51.5716393 8.92467751,52.8824751 9.82466239,55.152908 L9.82466239,55.152908 L30.818831,55.152908 L30.818831,45.948605 L17.2856125,45.948605 C16.2502413,45.9480139 15.4110546,45.1088272 15.4104635,44.073456 L15.4104635,44.073456 L15.4104635,31.7189026 L9.82466239,31.7189026 C8.92464805,33.989963 6.53802844,35.3012749 4.1384758,34.8431392 C1.73892316,34.3850035 0.0032955963,32.2866496 0.0032955963,29.8437535 C0.0032955963,27.4008575 1.73892316,25.3025035 4.1384758,24.8443678 C6.53802844,24.3862321 8.92464805,25.6975441 9.82466239,27.9686045 L9.82466239,27.9686045 L17.2856125,27.9686045 C18.3209838,27.9691956 19.1601704,28.8083823 19.1607616,29.8437535 L19.1607616,29.8437535 L19.1607616,42.1983069 L30.818831,42.1983069 L30.818831,32.6939801 C30.8194222,31.6586088 31.6586088,30.8194222 32.6939801,30.818831 L32.6939801,30.818831 L42.1983069,30.818831 L42.1983069,19.1607616 L29.8437535,19.1607616 C28.8083823,19.1601704 27.9691956,18.3209838 27.9686045,17.2856125 L27.9686045,17.2856125 L27.9686045,9.82359088 C25.6969166,8.92354709 24.3851285,6.53641476 24.8432755,4.13625931 C25.3014226,1.73610387 27.4002632,-7.10542736e-15 29.8437535,-7.10542736e-15 C32.2872438,-7.10542736e-15 34.3860845,1.73610387 34.8442315,4.13625931 C35.3023786,6.53641476 33.9905905,8.92354709 31.7189026,9.82359088 L31.7189026,9.82359088 L31.7189026,15.4104635 L44.073456,15.4104635 C45.1088272,15.4110546 45.9480139,16.2502413 45.948605,17.2856125 L45.948605,17.2856125 L45.948605,30.818831 L55.152908,30.818831 L55.152908,9.82359088 C52.8812201,8.92354709 51.569432,6.53641476 52.027579,4.13625931 C52.4857261,1.73610387 54.5845667,-7.10542736e-15 57.028057,-7.10542736e-15 Z M97.157318,120.558106 C96.4175921,120.558106 95.8179258,121.157773 95.8179258,121.897499 C95.8179258,122.637225 96.4175921,123.236891 97.157318,123.236891 C97.896799,123.2363 98.4961193,122.63698 98.4967102,121.897499 C98.4967102,121.157773 97.8970439,120.558106 97.157318,120.558106 Z M69.974086,120.558106 C69.2343601,120.558106 68.6346938,121.157773 68.6346938,121.897499 C68.6346938,122.637225 69.2343601,123.236891 69.974086,123.236891 C70.713567,123.2363 71.3128873,122.63698 71.3134782,121.897499 C71.3134782,121.157773 70.7138119,120.558106 69.974086,120.558106 Z M57.025914,120.558106 C56.2861881,120.558106 55.6865218,121.157773 55.6865218,121.897499 C55.6865218,122.637225 56.2861881,123.236891 57.025914,123.236891 C57.7651506,123.235711 58.3641262,122.636735 58.3653062,121.897499 C58.3653062,121.157773 57.7656399,120.558106 57.025914,120.558106 Z M29.842682,120.558106 C29.1029561,120.558106 28.5032898,121.157773 28.5032898,121.897499 C28.5032898,122.637225 29.1029561,123.236891 29.842682,123.236891 C30.5819186,123.235711 31.1808942,122.636735 31.1820742,121.897499 C31.1820742,121.157773 30.5824079,120.558106 29.842682,120.558106 Z M121.897499,95.8179258 C121.158018,95.8185167 120.558697,96.417837 120.558106,97.157318 C120.558106,97.8970439 121.157773,98.4967102 121.897499,98.4967102 C122.637225,98.4967102 123.236891,97.8970439 123.236891,97.157318 C123.236891,96.4175921 122.637225,95.8179258 121.897499,95.8179258 Z M5.61506454,95.919881 C5.11456799,95.7125685 4.53847154,95.8271612 4.15540806,96.2102247 C3.77234459,96.5932882 3.65775188,97.1693846 3.86506434,97.6698812 C4.0723768,98.1703777 4.56076779,98.4967102 5.10250135,98.4967102 C5.84173792,98.4955302 6.44071357,97.8965546 6.44189352,97.157318 C6.44189352,96.6155844 6.1155611,96.1271934 5.61506454,95.919881 Z M92.4308709,34.5691291 L34.5691291,34.5691291 L34.5691291,92.4308709 L92.4308709,92.4308709 L92.4308709,34.5691291 Z M84.6623963,40.4624547 C85.6977676,40.4630458 86.5369542,41.3022324 86.5375453,42.3376037 L86.5375453,42.3376037 L86.5375453,84.6623963 C86.5369542,85.6977676 85.6977676,86.5369542 84.6623963,86.5375453 L84.6623963,86.5375453 L42.3376037,86.5375453 C41.3022324,86.5369542 40.4630458,85.6977676 40.4624547,84.6623963 L40.4624547,84.6623963 L40.4624547,42.3376037 C40.4630458,41.3022324 41.3022324,40.4630458 42.3376037,40.4624547 L42.3376037,40.4624547 Z M82.7872473,44.2127527 L44.2127527,44.2127527 L44.2127527,82.7872473 L82.7872473,82.7872473 L82.7872473,44.2127527 Z M5.61506454,68.736649 C5.11456799,68.5293365 4.53847154,68.6439292 4.15540806,69.0269927 C3.77234459,69.4100562 3.65775188,69.9861526 3.86506434,70.4866492 C4.0723768,70.9871457 4.56076779,71.3134782 5.10250135,71.3134782 C5.84173792,71.3122982 6.44071357,70.7133226 6.44189352,69.974086 C6.44189352,69.4323524 6.1155611,68.9439614 5.61506454,68.736649 Z M121.897499,68.6346938 C121.158018,68.6352847 120.558697,69.234605 120.558106,69.974086 C120.558106,70.7138119 121.157773,71.3134782 121.897499,71.3134782 C122.637225,71.3134782 123.236891,70.7138119 123.236891,69.974086 C123.236891,69.2343601 122.637225,68.6346938 121.897499,68.6346938 Z M78.2333139,51.9362238 C79.2689301,51.9362238 80.1084629,52.7757566 80.1084629,53.8113728 L80.1084629,53.8113728 L80.1084629,64.3925709 C80.1078718,65.4279422 79.2686851,66.2671288 78.2333139,66.26772 C77.1979426,66.2671288 76.358756,65.4279422 76.3581648,64.3925709 L76.3581648,64.3925709 L76.3581648,53.8113728 C76.3581648,52.7757566 77.1976977,51.9362238 78.2333139,51.9362238 Z M121.897499,55.6865218 C121.157426,55.6877041 120.558106,56.2879837 120.558106,57.028057 C120.558106,57.7677829 121.157773,58.3674492 121.897499,58.3674492 C122.637225,58.3674492 123.236891,57.7677829 123.236891,57.028057 C123.236891,56.2883312 122.637225,55.6886649 121.897499,55.6886649 L121.897499,55.6886649 Z M5.61506454,55.788477 C5.11456799,55.5811645 4.53847154,55.6957572 4.15540806,56.0788207 C3.77234459,56.4618842 3.65775188,57.0379806 3.86506434,57.5384772 C4.0723768,58.0389737 4.56076779,58.3653062 5.10250135,58.3653062 C5.84198233,58.3647153 6.44130265,57.765395 6.44189352,57.025914 C6.44189352,56.4841804 6.1155611,55.9957895 5.61506454,55.788477 Z M121.897499,28.5032898 C121.157426,28.5044721 120.558106,29.1047517 120.558106,29.844825 C120.558106,30.5845509 121.157773,31.1842172 121.897499,31.1842172 C122.637225,31.1842172 123.236891,30.5845509 123.236891,29.844825 C123.236891,29.1050992 122.637225,28.5054329 121.897499,28.5054329 L121.897499,28.5054329 Z M5.61506454,28.605245 C5.11456799,28.3979325 4.53847154,28.5125253 4.15540806,28.8955887 C3.77234459,29.2786522 3.65775188,29.8547487 3.86506434,30.3552452 C4.0723768,30.8557418 4.56076779,31.1820742 5.10250135,31.1820742 C5.84198233,31.1814833 6.44130265,30.582163 6.44189352,29.842682 C6.44189352,29.3009485 6.1155611,28.8125575 5.61506454,28.605245 Z M97.157318,3.76310918 C96.4180814,3.76428913 95.8191058,4.36326478 95.8179258,5.10250135 C95.8179258,5.84222722 96.4175921,6.44189352 97.157318,6.44189352 C97.8970439,6.44189352 98.4967102,5.84222722 98.4967102,5.10250135 C98.4967102,4.36277548 97.8970439,3.76310918 97.157318,3.76310918 Z M69.974086,3.76310918 C69.2348494,3.76428913 68.6358738,4.36326478 68.6346938,5.10250135 C68.6346938,5.84222722 69.2343601,6.44189352 69.974086,6.44189352 C70.7138119,6.44189352 71.3134782,5.84222722 71.3134782,5.10250135 C71.3134782,4.36277548 70.7138119,3.76310918 69.974086,3.76310918 Z M57.025914,3.76310918 C56.286433,3.76370006 55.6871127,4.36302037 55.6865218,5.10250135 C55.6865218,5.84222722 56.2861881,6.44189352 57.025914,6.44189352 C57.7656399,6.44189352 58.3653062,5.84222722 58.3653062,5.10250135 C58.3653062,4.36277548 57.7656399,3.76310918 57.025914,3.76310918 Z M29.842682,3.76310918 C29.103201,3.76370006 28.5038807,4.36302037 28.5032898,5.10250135 C28.5032898,5.84222722 29.1029561,6.44189352 29.842682,6.44189352 C30.5824079,6.44189352 31.1820742,5.84222722 31.1820742,5.10250135 C31.1820742,4.36277548 30.5824079,3.76310918 29.842682,3.76310918 Z" id="path-3"></path>
        <linearGradient x1="9.63362412%" y1="38.7514572%" x2="92.4740363%" y2="75.9088496%" id="linearGradient-5">
            <stop stop-color="#3C9DCF" offset="0%"></stop>
            <stop stop-color="#03306C" offset="100%"></stop>
        </linearGradient>
    </defs>
    <g id="Page-2" stroke="none" stroke-width="1" fill="none" fill-rule="evenodd">
        <g id="Artboard" transform="translate(-91.000000, -223.000000)">
            <g id="Group-6" transform="translate(91.000000, 223.000000)">
                <path d="M433.432796,82.2709562 C385.608103,80.616662 340.059368,65.1815057 296.564908,48.298842 C253.070448,31.4161783 209.989798,12.6872041 163.310473,3.7732167 C133.287029,-1.98727223 98.9481309,-2.79964887 74.7623735,13.2927939 C51.4929112,28.7722616 43.9556449,55.5216089 39.9136012,80.2917113 C36.8691367,98.9468331 35.0808834,118.584192 43.4162131,136.05029 C49.2095629,148.176858 59.4809356,158.368492 66.5896122,169.978093 C91.3221909,210.397523 73.8386889,260.233138 47.0444462,299.692487 C34.4823357,318.199904 19.8881191,335.880174 10.1857362,355.561844 C0.483353194,375.243515 -4.0020592,397.842356 4.48844959,417.944985 C12.8976741,437.885139 32.9453246,452.83287 54.6629967,463.35684 C98.7707835,484.737116 150.726195,490.852097 201.425395,494.32316 C313.61982,501.989042 426.405404,498.673068 538.895408,495.342324 C580.52772,494.116374 622.33738,492.868268 663.28986,486.435722 C686.03467,482.861264 709.511037,477.189398 726.026518,463.497159 C746.983074,446.119684 752.177876,416.696879 738.130481,394.90303 C714.572829,358.353466 649.45676,349.277003 632.970837,310.053982 C623.911338,288.459534 633.21469,264.413185 646.390127,244.391793 C674.647486,201.431839 722.006642,163.744948 724.496896,114.647858 C726.211255,80.9268421 703.444277,47.1541295 668.240809,31.194621 C631.345152,14.4670474 580.173026,16.5718415 552.964972,44.2517293 C524.921908,72.7661495 475.648877,83.7406194 433.432796,82.2709562 Z" id="Path" fill="#B8E1F5" fill-rule="nonzero" opacity="0.4"></path>
                <g id="Group-11" transform="translate(114.000000, 14.000000)">
                    <path d="M7.87640449,471 L7.87640449,448.835294 L5,448.835294 L5,440.523529 L7.87640449,440.523529 L7.87640449,310.305882 L5,310.305882 L5,301.994118 L7.87640449,301.994118 L7.87640449,171.776471 L5,171.776471 L5,163.464706 L7.87640449,163.464706 L7.87640449,119.135294 L7.89600857,119.135384 C8.45039048,60.4687031 20.6944411,13.2940787 35.921256,11.1579007 L35.9213483,0 L41.0786517,0 L41.0794633,11.1580016 C56.3059445,13.2955643 68.5496183,60.4696269 69.1039914,119.135384 L69.1235955,119.135294 L69.1235955,163.464706 L72,163.464706 L72,171.776471 L69.1235955,171.776471 L69.1235955,301.994118 L72,301.994118 L72,310.305882 L69.1235955,310.305882 L69.1235955,440.523529 L72,440.523529 L72,448.835294 L69.1235955,448.835294 L69.1235955,471 L64.6853933,471 L64.6853933,127.447059 L64.664739,127.449821 C64.6784667,126.070162 64.6853933,124.683786 64.6853933,123.291176 C64.6853933,66.3196299 53.0928942,19.7799548 38.500327,16.7774926 C23.9076362,19.7778254 12.3146067,66.3183265 12.3146067,123.291176 L12.319786,125.375355 L12.335261,127.449821 L12.3146067,127.447059 L12.3146067,471 L7.87640449,471 Z" id="Path" fill="#9BAEBC"></path>
                    <path d="M251,0 L251.000314,16.8976803 C250.834053,16.8519447 250.667387,16.8118656 250.500327,16.7774926 C235.907636,19.7778254 224.314607,66.3183265 224.314607,123.291176 L224.319786,125.375355 L224.335261,127.449821 L224.314607,127.447059 L224.314607,471 L219.876404,471 L219.876404,448.835294 L217,448.835294 L217,440.523529 L219.876404,440.523529 L219.876404,310.305882 L217,310.305882 L217,301.994118 L219.876404,301.994118 L219.876404,171.776471 L217,171.776471 L217,163.464706 L219.876404,163.464706 L219.876404,119.135294 L219.896009,119.135384 C220.45039,60.4687031 232.694441,13.2940787 247.921256,11.1579007 L247.921348,0 L251,0 Z" id="Combined-Shape" fill="#9BAEBC"></path>
                    <path d="M453.876404,471 L453.876404,448.835294 L451,448.835294 L451,440.523529 L453.876404,440.523529 L453.876404,310.305882 L451,310.305882 L451,301.994118 L453.876404,301.994118 L453.876404,171.776471 L451,171.776471 L451,163.464706 L453.876404,163.464706 L453.876404,119.135294 L453.896009,119.135384 C454.45039,60.4687031 466.694441,13.2940787 481.921256,11.1579007 L481.921348,0 L487.078652,0 L487.079463,11.1580016 C502.305945,13.2955643 514.549618,60.4696269 515.103991,119.135384 L515.123596,119.135294 L515.123596,163.464706 L518,163.464706 L518,171.776471 L515.123596,171.776471 L515.123596,301.994118 L518,301.994118 L518,310.305882 L515.123596,310.305882 L515.123596,440.523529 L518,440.523529 L518,448.835294 L515.123596,448.835294 L515.123596,471 L510.685393,471 L510.685393,127.447059 L510.664739,127.449821 C510.678467,126.070162 510.685393,124.683786 510.685393,123.291176 C510.685393,66.3196299 499.092894,19.7799548 484.500327,16.7774926 C469.907636,19.7778254 458.314607,66.3183265 458.314607,123.291176 L458.319786,125.375355 L458.335261,127.449821 L458.314607,127.447059 L458.314607,471 L453.876404,471 Z" id="Path" fill="#9BAEBC"></path>
                    <g id="Group-25" transform="translate(166.000000, 82.000000)">
                        <g id="Group-21" transform="translate(0.000000, 38.000000)">
                            <path d="M79.6605744,248.516414 C79.6605744,248.516414 79.6605744,303.266621 67.1314086,317.627333 C67.1314086,317.627333 64.4465861,324.807692 63.5516453,327.500326 C63.0512509,329.033054 62.4533997,330.532034 61.7617694,331.988045 L61.7617694,335.578224 C61.7617694,335.578224 37.5983785,332.88559 34.913556,326.602781 L39.3882544,321.217512 C39.3882544,321.217512 40.2831953,320.319968 39.3882544,317.627333 C38.4933136,314.934698 41.1781361,314.934704 41.1781361,314.934704 L47.4427219,300.573992 L46.547781,241.336055 L51.0224966,159.659513 L89.504935,157.864424 L79.6605744,248.516414 Z" id="Path" fill="#2F2E41" fill-rule="nonzero"></path>
                            <path d="M74.2909352,36.6959201 C74.2909352,36.6959201 98.4543261,12.4622206 104.718906,13.3597654 C110.983486,14.2573103 110.983492,16.9499449 110.983492,18.7450346 C110.983492,20.5401243 109.19361,21.4376691 110.983492,22.335214 C112.773374,23.2327588 114.563249,22.335214 114.563249,25.0278428 C114.563249,27.7204716 130.672179,54.6468115 125.302539,84.2657801 C119.9329,113.884749 113.668314,128.245455 116.353131,144.401257 C119.037948,160.557058 117.248072,164.147232 117.248072,164.147232 C117.248072,164.147232 50.1275272,169.532501 49.2326035,163.249681 C48.3376798,156.966862 51.9174203,160.557047 47.4427219,156.069323 C42.9680235,151.581598 44.7578994,151.581598 44.7578994,148.888969 C44.7578994,146.196341 64.4465861,36.6959201 74.2909352,36.6959201 Z" id="Path" fill="#575A89" fill-rule="nonzero"></path>
                            <path d="M59.9718877,330.192955 C59.9718877,330.192955 66.2364678,349.041391 59.9718877,349.938936 C53.7073076,350.836481 -0.88405985,351.734026 0.0108809759,344.553667 C0.905821802,337.373308 18.8046269,338.270859 18.8046269,338.270859 L37.5983785,326.602781 L59.9718877,330.192955 Z" id="Path" fill="#2F2E41" fill-rule="nonzero"></path>
                            <path d="M115.45819,159.659513 C115.45819,159.659513 117.248072,171.327591 110.088551,183.893213 C102.92903,196.458835 107.403729,238.643426 107.403729,238.643426 L170.944499,294.291178 C170.944499,294.291178 158.415333,315.832243 153.940652,314.934704 C149.46597,314.037165 78.7656336,256.594312 78.7656336,256.594312 L51.0224966,163.249681 L115.45819,159.659513 Z" id="Path" fill="#2F2E41" fill-rule="nonzero"></path>
                            <path d="M170.0713,291.912975 C170.0713,291.912975 189.298829,296.696784 186.700999,302.483937 C184.103168,308.27109 155.633711,354.995372 150.065651,350.393292 C144.497592,345.791212 154.835581,331.109816 154.835581,331.109816 L155.070132,308.943352 L170.0713,291.912975 Z" id="Path" fill="#2F2E41" fill-rule="nonzero"></path>
                            <path d="M96.7510763,-1.95608235e-13 L95.8406665,26.5643568 L78.5210753,33.4274735 C78.5210753,33.4274735 76.8225892,6.22731353 74.4250033,4.71934985 C72.0274174,3.21138618 96.7510763,-1.95608235e-13 96.7510763,-1.95608235e-13 Z" id="Path" fill="#A0616A" fill-rule="nonzero"></path>
                            <path d="M86.8201296,158.761969 C86.8201296,158.761969 76.0808111,184.790758 68.0263437,178.507944 C59.9718763,172.22513 71.606107,150.684065 71.606107,150.684065 L86.8201296,158.761969 Z" id="Path" fill="#FFFFFF" fill-rule="nonzero"></path>
                            <path d="M112.773374,38.4910099 C112.773374,38.4910099 133.800031,40.9052762 125.971519,79.6388775 C118.143007,118.372479 87.7150419,163.249681 87.7150419,163.249681 L67.1314086,153.376688 L93.9796219,100.42157 L87.7150419,67.2124337 C87.7150419,67.2124337 84.1352786,35.798381 112.773374,38.4910099 Z" id="Path" fill="#575A89" fill-rule="nonzero"></path>
                            <polygon id="Path" fill="#000000" fill-rule="nonzero" opacity="0.2" points="94.4273297 100.870483 64.8939107 150.235307 67.578819 152.928027"></polygon>
                            <polygon id="Path" fill="#000000" fill-rule="nonzero" opacity="0.2" points="110.059272 123.874748 86.3726049 162.800763 94.4273297 162.800763"></polygon>
                            <polygon id="Rectangle" fill="#000000" fill-rule="nonzero" opacity="0.2" transform="translate(67.733933, 225.805342) rotate(-20.876860) translate(-67.733933, -225.805342) " points="67.1290017 192.679195 68.4028907 192.677961 68.3388646 258.931489 67.0649756 258.932723"></polygon>
                            <ellipse id="Oval" fill="#D0CDE1" fill-rule="nonzero" cx="74.4178035" cy="40.3471174" rx="1.27311544" ry="1.27681985"></ellipse>
                            <line x1="74.4178035" y1="40.3471174" x2="63.5963137" y2="75.4596891" id="Path"></line>
                            <path d="M63.5963194,76.0981076 C63.8754961,76.0981076 64.1220474,75.9155343 64.204281,75.6479674 L75.0257709,40.535711 C75.0934488,40.3177273 75.0398732,40.08009 74.8852699,39.912512 C74.7306666,39.7449339 74.4985854,39.6729411 74.2766415,39.7237123 C74.0546976,39.7744835 73.8766983,39.9402852 73.809842,40.1585237 L62.9883521,75.2714166 C62.9289894,75.4650363 62.9646939,75.6754175 63.0845832,75.8384385 C63.2044725,76.0014595 63.3943412,76.0981076 63.5963194,76.0981076 L63.5963194,76.0981076 Z" id="Path" fill="#D0CDE1" fill-rule="nonzero"></path>
                        </g>
                        <path d="M101,29.499677 C101.007084,34.1950821 99.3929488,38.7489745 96.4303449,42.3917911 C91.655787,48.3090554 83.9922484,51.0885847 76.5344282,49.6079462 C74.702263,49.253847 72.9290455,48.6436783 71.2669374,47.7953889 C65.9248103,45.1028662 62.02649,40.2098504 60.5956678,34.4012379 C60.1973394,32.7979048 59.9972972,31.1517456 60,29.499677 C60,18.178018 69.1781788,9 80.5,9 C91.8218254,9 101,18.178018 101,29.499677 L101,29.499677 Z" id="Path" fill="#A0616A" fill-rule="nonzero"></path>
                        <path d="M77,45.9917823 L71.8568986,51 C66.5600873,48.271607 61.4438764,40.919771 60,34.894549 L66.7480121,32 C67.1885406,38.1453705 71.4501848,42.2309399 77,45.9917823 Z" id="Path" fill="#FFFFFF" fill-rule="nonzero"></path>
                        <path d="M78.5673373,35 C78.5466682,35.000073 78.5260209,34.9984404 78.5055539,34.995112 L66.3724641,32.9951746 C66.2191646,32.970055 66.0891246,32.8524783 66.0313287,32.6867344 C65.9735329,32.5209905 65.9967618,32.3322598 66.0922653,32.1916355 C66.1877689,32.0510111 66.3410379,31.9798573 66.4943373,32.0049768 L78.6274271,34.0049076 C78.8525519,34.0417131 79.0147414,34.2730188 78.9989373,34.5347351 C78.9831332,34.7964515 78.7947105,34.9995701 78.5673373,35 L78.5673373,35 Z" id="Path" fill="#FFFFFF" fill-rule="nonzero"></path>
                        <path d="M76.4433869,46 C76.2858293,46.0001653 76.140043,45.918751 76.0605328,45.7861951 C75.9810227,45.6536391 75.9797604,45.4899002 76.057218,45.3561952 L80.1700321,38.2211963 C80.2474114,38.0862402 80.3929183,38.0018892 80.5515455,38 C80.7101728,37.9981734 80.8577181,38.079092 80.9384035,38.2121968 C81.0190889,38.3453015 81.020604,38.5102842 80.942376,38.6447748 L76.8295618,45.7797736 C76.7512416,45.9158984 76.6035317,46.0001338 76.4433869,46 L76.4433869,46 Z" id="Path" fill="#FFFFFF" fill-rule="nonzero"></path>
                        <path d="M89.6059939,42.2531437 C87.9411406,41.3779468 86.0072125,41.1975074 84.2052022,40.6535137 C77.7581465,38.7072747 73.439242,31.4610634 74.8180972,24.9038495 C75.0728849,24.062818 75.1872729,23.1859451 75.1567104,22.3081161 C74.9156772,20.3660637 72.9170099,19.1129803 71.000485,18.6680112 C69.08396,18.2230422 67.0448072,18.2876707 65.2130127,17.5721391 C62.3846956,16.4673484 60.5059593,13.5774609 60.0986876,10.5834078 C59.6914158,7.58935476 60.5849421,4.53574033 62.0382777,1.88239411 L62.7305535,3.86301228 C63.7863308,2.97441867 64.5700415,1.80901504 64.9925079,0.499411804 C66.5923708,0.766717722 67.9372802,1.8420336 68.5431421,3.33830428 C69.654345,3.98978679 69.8144187,1.31434294 71.0418275,0.919653101 C71.5557865,0.754380989 72.0842976,1.06834347 72.5738431,1.29535829 C75.0471036,2.44227654 77.9206427,1.4616586 80.5737227,0.825917103 C85.1678689,-0.269747209 89.9568434,-0.275353549 94.553572,0.809551222 C97.6074676,1.53377982 100.630282,2.79492975 102.81555,5.03616933 C104.610196,6.87678849 105.728392,9.25693639 106.680487,11.6392941 C109.024292,17.5040398 110.572666,23.8498833 109.798927,30.1135793 C109.154561,35.2392651 106.997793,40.06039 103.600715,43.9687379 C101.83102,45.9959543 96.0572889,53.0683839 92.8914669,51.86262 C88.9135639,50.3475291 94.2929759,44.7170524 89.6059939,42.2531437 Z" id="Path" fill="#2F2E41" fill-rule="nonzero"></path>
                    </g>
                    <path d="M253.078652,0 L253.079463,11.1580016 C268.305945,13.2955643 280.549618,60.4696269 281.103991,119.135384 L281.123596,119.135294 L281.123596,163.464706 L284,163.464706 L284,171.776471 L281.123596,171.776471 L281.123596,301.994118 L284,301.994118 L284,310.305882 L281.123596,310.305882 L281.123596,440.523529 L284,440.523529 L284,448.835294 L281.123596,448.835294 L281.123596,471 L276.685393,471 L276.685393,127.447059 L276.664739,127.449821 C276.678467,126.070162 276.685393,124.683786 276.685393,123.291176 C276.685393,66.9707333 265.356351,20.8450813 250.999455,16.8974442 L250.999455,0 L253.078652,0 Z" id="Combined-Shape" fill="#9BAEBC"></path>
                    <rect id="Rectangle" fill="#9BAEBC" x="65" y="466" width="450" height="5"></rect>
                    <rect id="Rectangle" fill="#9BAEBC" x="8" y="466" width="450" height="5"></rect>
                    <rect id="Rectangle" fill="#9BAEBC" x="8" y="129" width="450" height="5"></rect>
                    <rect id="Rectangle" fill="#9BAEBC" x="8" y="129" width="504" height="5"></rect>
                    <g id="Group-10" fill="#00A0F3" opacity="0.25">
                        <path d="M518,472 L0,472 L0,98.5 L0.383676095,97.4033649 C2.77354988,43.5770561 16.0464764,2.02532838 32.259153,0 L485.741674,0 C503.25624,2.18953326 517.339771,50.5082572 517.97745,110.597517 L518,110.597425 L518,472 Z" id="Combined-Shape" style="mix-blend-mode: multiply;"></path>
                        <path d="M485.741674,0 C503.25624,2.18953326 517.339771,50.5082572 517.97745,110.597517 L518,110.597425 L518,472 L0,472 L0,98.5 L0.383676095,97.4033649 C2.77354988,43.5770561 16.0464764,2.02532838 32.259153,0 L485.741674,0 Z M38.4080902,22 L36.5925149,22 C23.7830744,24.0858114 13.4828613,70.1481585 13.0164918,127.431604 L13.0164918,127.431604 L13,127.431516 L13,471 L62,471 L62,127.431516 L61.9835082,127.431604 C61.5171461,70.1490605 51.21725,24.0872621 38.4080902,22 L38.4080902,22 Z" id="Combined-Shape" style="mix-blend-mode: multiply;"></path>
                    </g>
                </g>
                <g id="Group-9" transform="translate(475.000000, 343.000000)">
                    <g id="Oval">
                        <use fill="black" fill-opacity="1" filter="url(#filter-2)" xlink:href="#path-1"></use>
                        <use fill="#FFFFFF" fill-rule="evenodd" xlink:href="#path-1"></use>
                    </g>
                    <g id="Group-7" transform="translate(42.000000, 42.000000)">
                        <mask id="mask-4" fill="white">
                            <use xlink:href="#path-3"></use>
                        </mask>
                        <use id="Combined-Shape" fill="#000000" fill-rule="nonzero" xlink:href="#path-3"></use>
                        <rect id="Rectangle" stroke="#979797" fill="url(#linearGradient-5)" mask="url(#mask-4)" x="-26.5" y="-18.5" width="180" height="164"></rect>
                    </g>
                </g>
            </g>
        </g>
    </g>
</svg>