<?xml version="1.0" encoding="UTF-8"?>
<svg width="762px" height="576px" viewBox="0 0 762 576" version="1.1" xmlns="http://www.w3.org/2000/svg" xmlns:xlink="http://www.w3.org/1999/xlink">
    <!-- Generator: Sketch 62 (91390) - https://sketch.com -->
    <title>Group 40</title>
    <desc>Created with Sketch.</desc>
    <defs>
        <linearGradient x1="50.0160933%" y1="99.9819644%" x2="50.0160933%" y2="0.000900501915%" id="linearGradient-1">
            <stop stop-color="#808080" stop-opacity="0.25" offset="0%"></stop>
            <stop stop-color="#808080" stop-opacity="0.12" offset="54%"></stop>
            <stop stop-color="#808080" stop-opacity="0.1" offset="100%"></stop>
        </linearGradient>
        <linearGradient x1="50.0283536%" y1="99.9757635%" x2="50.0283536%" y2="-0.106057071%" id="linearGradient-2">
            <stop stop-color="#808080" stop-opacity="0.25" offset="0%"></stop>
            <stop stop-color="#808080" stop-opacity="0.12" offset="54%"></stop>
            <stop stop-color="#808080" stop-opacity="0.1" offset="100%"></stop>
        </linearGradient>
        <linearGradient x1="49.9265533%" y1="99.961291%" x2="49.9265533%" y2="-0.0777286366%" id="linearGradient-3">
            <stop stop-color="#808080" stop-opacity="0.25" offset="0%"></stop>
            <stop stop-color="#808080" stop-opacity="0.12" offset="54%"></stop>
            <stop stop-color="#808080" stop-opacity="0.1" offset="100%"></stop>
        </linearGradient>
        <linearGradient x1="50%" y1="99.9899134%" x2="50%" y2="0%" id="linearGradient-4">
            <stop stop-color="#808080" stop-opacity="0.25" offset="0%"></stop>
            <stop stop-color="#808080" stop-opacity="0.12" offset="54%"></stop>
            <stop stop-color="#808080" stop-opacity="0.1" offset="100%"></stop>
        </linearGradient>
        <linearGradient x1="49.9703264%" y1="100.03535%" x2="49.9703264%" y2="-1.33954094e-12%" id="linearGradient-5">
            <stop stop-color="#808080" stop-opacity="0.25" offset="0%"></stop>
            <stop stop-color="#808080" stop-opacity="0.12" offset="54%"></stop>
            <stop stop-color="#808080" stop-opacity="0.1" offset="100%"></stop>
        </linearGradient>
        <linearGradient x1="50.0206103%" y1="99.9786968%" x2="50.0206103%" y2="-0.045911383%" id="linearGradient-6">
            <stop stop-color="#808080" stop-opacity="0.25" offset="0%"></stop>
            <stop stop-color="#808080" stop-opacity="0.12" offset="54%"></stop>
            <stop stop-color="#808080" stop-opacity="0.1" offset="100%"></stop>
        </linearGradient>
        <linearGradient x1="50.0244375%" y1="78.3480592%" x2="50.0244375%" y2="21.3480592%" id="linearGradient-7">
            <stop stop-color="#808080" stop-opacity="0.25" offset="0%"></stop>
            <stop stop-color="#808080" stop-opacity="0.12" offset="54%"></stop>
            <stop stop-color="#808080" stop-opacity="0.1" offset="100%"></stop>
        </linearGradient>
        <linearGradient x1="50.000587%" y1="99.9273095%" x2="50.000587%" y2="0.101498152%" id="linearGradient-8">
            <stop stop-color="#808080" stop-opacity="0.25" offset="0%"></stop>
            <stop stop-color="#808080" stop-opacity="0.12" offset="54%"></stop>
            <stop stop-color="#808080" stop-opacity="0.1" offset="100%"></stop>
        </linearGradient>
        <linearGradient x1="49.9882812%" y1="99.7820184%" x2="49.9882812%" y2="0%" id="linearGradient-9">
            <stop stop-color="#808080" stop-opacity="0.25" offset="0%"></stop>
            <stop stop-color="#808080" stop-opacity="0.12" offset="54%"></stop>
            <stop stop-color="#808080" stop-opacity="0.1" offset="100%"></stop>
        </linearGradient>
        <linearGradient x1="50.0320718%" y1="100%" x2="50.0320718%" y2="0.0198333994%" id="linearGradient-10">
            <stop stop-color="#808080" stop-opacity="0.25" offset="0%"></stop>
            <stop stop-color="#808080" stop-opacity="0.12" offset="54%"></stop>
            <stop stop-color="#808080" stop-opacity="0.1" offset="100%"></stop>
        </linearGradient>
        <linearGradient x1="50%" y1="100%" x2="50%" y2="1.35924005e-13%" id="linearGradient-11">
            <stop stop-color="#808080" stop-opacity="0.25" offset="0%"></stop>
            <stop stop-color="#808080" stop-opacity="0.12" offset="54%"></stop>
            <stop stop-color="#808080" stop-opacity="0.1" offset="100%"></stop>
        </linearGradient>
        <linearGradient x1="50.0035849%" y1="100%" x2="50.0035849%" y2="-0.00732930327%" id="linearGradient-12">
            <stop stop-color="#808080" stop-opacity="0.25" offset="0%"></stop>
            <stop stop-color="#808080" stop-opacity="0.12" offset="54%"></stop>
            <stop stop-color="#808080" stop-opacity="0.1" offset="100%"></stop>
        </linearGradient>
        <linearGradient x1="49.9940241%" y1="99.8988038%" x2="49.9940241%" y2="-0.123569167%" id="linearGradient-13">
            <stop stop-color="#808080" stop-opacity="0.25" offset="0%"></stop>
            <stop stop-color="#808080" stop-opacity="0.12" offset="54%"></stop>
            <stop stop-color="#808080" stop-opacity="0.1" offset="100%"></stop>
        </linearGradient>
        <linearGradient x1="49.9748567%" y1="99.9866956%" x2="49.9748567%" y2="-0.0291804161%" id="linearGradient-14">
            <stop stop-color="#808080" stop-opacity="0.25" offset="0%"></stop>
            <stop stop-color="#808080" stop-opacity="0.12" offset="54%"></stop>
            <stop stop-color="#808080" stop-opacity="0.1" offset="100%"></stop>
        </linearGradient>
        <linearGradient x1="50.0402248%" y1="99.9972061%" x2="50.0402248%" y2="-0.180464178%" id="linearGradient-15">
            <stop stop-color="#808080" stop-opacity="0.25" offset="0%"></stop>
            <stop stop-color="#808080" stop-opacity="0.12" offset="54%"></stop>
            <stop stop-color="#808080" stop-opacity="0.1" offset="100%"></stop>
        </linearGradient>
        <linearGradient x1="50.0402248%" y1="99.7968609%" x2="50.0402248%" y2="-0.189908394%" id="linearGradient-16">
            <stop stop-color="#808080" stop-opacity="0.25" offset="0%"></stop>
            <stop stop-color="#808080" stop-opacity="0.12" offset="54%"></stop>
            <stop stop-color="#808080" stop-opacity="0.1" offset="100%"></stop>
        </linearGradient>
        <linearGradient x1="49.8280662%" y1="100%" x2="49.8280662%" y2="0%" id="linearGradient-17">
            <stop stop-color="#808080" stop-opacity="0.25" offset="0%"></stop>
            <stop stop-color="#808080" stop-opacity="0.12" offset="54%"></stop>
            <stop stop-color="#808080" stop-opacity="0.1" offset="100%"></stop>
        </linearGradient>
        <linearGradient x1="49.9385796%" y1="99.8888889%" x2="49.9385796%" y2="-0.222222222%" id="linearGradient-18">
            <stop stop-color="#808080" stop-opacity="0.25" offset="0%"></stop>
            <stop stop-color="#808080" stop-opacity="0.12" offset="54%"></stop>
            <stop stop-color="#808080" stop-opacity="0.1" offset="100%"></stop>
        </linearGradient>
        <linearGradient x1="50.0072135%" y1="100.021184%" x2="50.0072135%" y2="0.0947575955%" id="linearGradient-19">
            <stop stop-color="#808080" stop-opacity="0.25" offset="0%"></stop>
            <stop stop-color="#808080" stop-opacity="0.12" offset="54%"></stop>
            <stop stop-color="#808080" stop-opacity="0.1" offset="100%"></stop>
        </linearGradient>
        <linearGradient x1="49.9860339%" y1="100.005102%" x2="49.9860339%" y2="0%" id="linearGradient-20">
            <stop stop-color="#808080" stop-opacity="0.25" offset="0%"></stop>
            <stop stop-color="#808080" stop-opacity="0.12" offset="54%"></stop>
            <stop stop-color="#808080" stop-opacity="0.1" offset="100%"></stop>
        </linearGradient>
        <linearGradient x1="49.783088%" y1="100.11796%" x2="49.783088%" y2="0%" id="linearGradient-21">
            <stop stop-color="#808080" stop-opacity="0.25" offset="0%"></stop>
            <stop stop-color="#808080" stop-opacity="0.12" offset="54%"></stop>
            <stop stop-color="#808080" stop-opacity="0.1" offset="100%"></stop>
        </linearGradient>
        <linearGradient x1="49.7905312%" y1="100.035378%" x2="49.7905312%" y2="0%" id="linearGradient-22">
            <stop stop-color="#808080" stop-opacity="0.25" offset="0%"></stop>
            <stop stop-color="#808080" stop-opacity="0.12" offset="54%"></stop>
            <stop stop-color="#808080" stop-opacity="0.1" offset="100%"></stop>
        </linearGradient>
        <linearGradient x1="51.108148%" y1="100.086812%" x2="51.108148%" y2="0%" id="linearGradient-23">
            <stop stop-color="#808080" stop-opacity="0.25" offset="0%"></stop>
            <stop stop-color="#808080" stop-opacity="0.12" offset="54%"></stop>
            <stop stop-color="#808080" stop-opacity="0.1" offset="100%"></stop>
        </linearGradient>
        <linearGradient x1="49.9813641%" y1="100.109496%" x2="49.9813641%" y2="0.57369339%" id="linearGradient-24">
            <stop stop-color="#808080" stop-opacity="0.25" offset="0%"></stop>
            <stop stop-color="#808080" stop-opacity="0.12" offset="54%"></stop>
            <stop stop-color="#808080" stop-opacity="0.1" offset="100%"></stop>
        </linearGradient>
        <linearGradient x1="50%" y1="100.006316%" x2="50%" y2="0%" id="linearGradient-25">
            <stop stop-color="#808080" stop-opacity="0.25" offset="0%"></stop>
            <stop stop-color="#808080" stop-opacity="0.12" offset="54%"></stop>
            <stop stop-color="#808080" stop-opacity="0.1" offset="100%"></stop>
        </linearGradient>
        <linearGradient x1="49.993395%" y1="66.72%" x2="49.993395%" y2="32.72%" id="linearGradient-26">
            <stop stop-color="#808080" stop-opacity="0.25" offset="0%"></stop>
            <stop stop-color="#808080" stop-opacity="0.12" offset="54%"></stop>
            <stop stop-color="#808080" stop-opacity="0.1" offset="100%"></stop>
        </linearGradient>
        <linearGradient x1="49.997016%" y1="100.024637%" x2="49.997016%" y2="0%" id="linearGradient-27">
            <stop stop-color="#808080" stop-opacity="0.25" offset="0%"></stop>
            <stop stop-color="#808080" stop-opacity="0.12" offset="54%"></stop>
            <stop stop-color="#808080" stop-opacity="0.1" offset="100%"></stop>
        </linearGradient>
        <linearGradient x1="49.9955761%" y1="99.9741892%" x2="49.9955761%" y2="-0.0141859494%" id="linearGradient-28">
            <stop stop-color="#808080" stop-opacity="0.25" offset="0%"></stop>
            <stop stop-color="#808080" stop-opacity="0.12" offset="54%"></stop>
            <stop stop-color="#808080" stop-opacity="0.1" offset="100%"></stop>
        </linearGradient>
        <linearGradient x1="49.7125121%" y1="100%" x2="49.7125121%" y2="0%" id="linearGradient-29">
            <stop stop-color="#808080" stop-opacity="0.25" offset="0%"></stop>
            <stop stop-color="#808080" stop-opacity="0.12" offset="54%"></stop>
            <stop stop-color="#808080" stop-opacity="0.1" offset="100%"></stop>
        </linearGradient>
        <linearGradient x1="49.8882878%" y1="100%" x2="49.8882878%" y2="-0.0358937545%" id="linearGradient-30">
            <stop stop-color="#808080" stop-opacity="0.25" offset="0%"></stop>
            <stop stop-color="#808080" stop-opacity="0.12" offset="54%"></stop>
            <stop stop-color="#808080" stop-opacity="0.1" offset="100%"></stop>
        </linearGradient>
        <linearGradient x1="50.0332566%" y1="99.8580861%" x2="50.0332566%" y2="-0.133902898%" id="linearGradient-31">
            <stop stop-color="#808080" stop-opacity="0.25" offset="0%"></stop>
            <stop stop-color="#808080" stop-opacity="0.12" offset="54%"></stop>
            <stop stop-color="#808080" stop-opacity="0.1" offset="100%"></stop>
        </linearGradient>
        <linearGradient x1="50.0832658%" y1="100%" x2="50.0832658%" y2="0%" id="linearGradient-32">
            <stop stop-color="#808080" stop-opacity="0.25" offset="0%"></stop>
            <stop stop-color="#808080" stop-opacity="0.12" offset="54%"></stop>
            <stop stop-color="#808080" stop-opacity="0.1" offset="100%"></stop>
        </linearGradient>
        <linearGradient x1="50.0735595%" y1="99.959167%" x2="50.0735595%" y2="4.64217386e-13%" id="linearGradient-33">
            <stop stop-color="#808080" stop-opacity="0.25" offset="0%"></stop>
            <stop stop-color="#808080" stop-opacity="0.12" offset="54%"></stop>
            <stop stop-color="#808080" stop-opacity="0.1" offset="100%"></stop>
        </linearGradient>
        <linearGradient x1="50.0087161%" y1="100.128096%" x2="50.0087161%" y2="0.0426985482%" id="linearGradient-34">
            <stop stop-color="#808080" stop-opacity="0.25" offset="0%"></stop>
            <stop stop-color="#808080" stop-opacity="0.12" offset="54%"></stop>
            <stop stop-color="#808080" stop-opacity="0.1" offset="100%"></stop>
        </linearGradient>
        <linearGradient x1="49.9915155%" y1="100.132392%" x2="49.9915155%" y2="0.13239188%" id="linearGradient-35">
            <stop stop-color="#808080" stop-opacity="0.25" offset="0%"></stop>
            <stop stop-color="#808080" stop-opacity="0.12" offset="54%"></stop>
            <stop stop-color="#808080" stop-opacity="0.1" offset="100%"></stop>
        </linearGradient>
        <linearGradient x1="14.4215485%" y1="15.8771693%" x2="97.2401704%" y2="104.648685%" id="linearGradient-36">
            <stop stop-color="#FFFFFF" offset="0%"></stop>
            <stop stop-color="#F8F8F8" offset="100%"></stop>
        </linearGradient>
        <circle id="path-37" cx="154.5" cy="471.5" r="98.5"></circle>
        <filter x="-3.6%" y="-2.5%" width="107.1%" height="107.1%" filterUnits="objectBoundingBox" id="filter-38">
            <feOffset dx="0" dy="2" in="SourceAlpha" result="shadowOffsetOuter1"></feOffset>
            <feGaussianBlur stdDeviation="2" in="shadowOffsetOuter1" result="shadowBlurOuter1"></feGaussianBlur>
            <feColorMatrix values="0 0 0 0 0   0 0 0 0 0   0 0 0 0 0  0 0 0 0.5 0" type="matrix" in="shadowBlurOuter1"></feColorMatrix>
        </filter>
        <path d="M96.8254465,413.825447 C97.9260419,412.724851 99.7104596,412.724851 100.811055,413.825447 L100.811055,413.825447 L213.174553,526.188945 C214.275149,527.28954 214.275149,529.073958 213.174553,530.174553 C212.073958,531.275149 210.28954,531.275149 209.188945,530.174553 L209.188945,530.174553 L96.8254465,417.811055 C95.7248512,416.71046 95.7248512,414.926042 96.8254465,413.825447 Z M108.17368,431.395294 L111.642296,434.86391 L111.642296,461.485757 L115.110913,461.485757 L115.110913,458.017141 L118.579529,458.017141 L118.579529,461.485757 L122.048145,461.485757 L122.048145,445.269759 L125.516762,448.738375 L125.516762,461.485757 L128.985378,461.485757 L128.985378,452.206992 L132.453994,455.675608 L132.453994,461.485757 L132.568554,461.486688 C136.341794,461.548055 139.391227,464.635365 139.391227,468.422989 C139.391227,472.210614 136.341794,475.297924 132.568554,475.359291 L132.453994,475.360222 L125.516762,475.360222 L125.516762,525.655158 L115.110913,525.655158 L115.110913,475.360222 L108.17368,475.360222 L108.05912,475.359291 C104.285881,475.297924 101.236448,472.210614 101.236448,468.422989 C101.236448,464.635365 104.285881,461.548055 108.05912,461.486688 L108.17368,461.485757 L108.17368,431.395294 Z M180.288826,503.5104 L182.777208,505.998889 C181.644083,507.689909 181.014622,509.697023 181.014622,511.780693 C181.014622,517.110153 185.133226,521.62371 190.45583,522.132465 L190.617486,522.146653 C191.10237,522.194346 191.574138,522.201235 192.11027,522.156633 L192.258142,522.143184 C194.07644,521.998026 195.761114,521.379507 197.193936,520.415638 L199.680985,522.902798 C197.661001,524.412832 195.219848,525.38678 192.568583,525.597926 C192.190504,525.636081 191.808956,525.655158 191.420471,525.655158 C191.031986,525.655158 190.650438,525.636081 190.307045,525.601395 C183.15129,525.030807 177.546006,518.960729 177.546006,511.780693 C177.546006,508.767292 178.531201,505.874383 180.288826,503.5104 Z M163.305078,486.526568 L167.088726,490.309864 C167.122426,491.097383 167.140157,491.895543 167.140157,492.703303 C167.140157,501.03492 163.289993,513.223637 162.110663,516.758157 C162.007645,517.070333 161.949581,517.392342 161.938998,517.717863 L161.937233,517.826491 L161.937907,518.876098 C161.974254,520.707501 163.475712,522.186542 165.313931,522.186542 C166.748203,522.186542 168.026388,521.282967 168.496386,519.940613 L168.714772,519.311646 C170.498265,514.130385 173.117982,505.414912 173.869137,497.090508 L177.003294,500.22496 C175.912152,508.359964 173.416569,516.387704 171.77076,521.086991 C170.815156,523.818526 168.220631,525.655158 165.313931,525.655158 C161.577815,525.655158 158.530116,522.64482 158.469535,518.922846 L158.468616,518.809844 L158.468616,517.828226 L158.470188,517.681254 C158.484857,516.995873 158.602158,516.317643 158.820681,515.662075 L159.035766,515.00853 C160.176533,511.501842 163.671541,500.153319 163.671541,492.703303 C163.671541,490.572354 163.536623,488.505167 163.305078,486.526568 Z M142.500976,465.722751 L146.935467,470.157081 L144.476218,470.157298 L144.37242,470.429204 C144.029335,471.332329 143.681036,472.292606 143.334341,473.291532 L143.218845,473.625914 L146.328459,473.625914 L146.328459,477.09453 L142.091544,477.09453 L141.965123,477.519429 C141.714366,478.37218 141.476048,479.242247 141.248705,480.122314 L141.135941,480.563146 L144.594151,480.563146 L144.594151,484.031763 L140.350299,484.031763 L140.290927,484.333643 C139.743681,487.152148 139.391227,489.99563 139.391227,492.703303 C139.391227,502.535096 142.887592,513.988467 144.970496,519.940613 C145.440494,521.282967 146.720413,522.186542 148.154686,522.186542 C149.992624,522.186542 151.493904,520.707952 151.530693,518.878607 L151.531384,518.809844 L151.531384,517.828226 L151.529618,517.71955 C151.519035,517.393764 151.460971,517.070506 151.357953,516.759892 L151.204031,516.29481 C149.876771,512.254711 146.328459,500.701655 146.328459,492.703303 C146.328459,484.901655 147.982523,477.995541 149.701922,472.923278 L152.469789,475.691129 C151.048637,480.293351 149.797076,486.194072 149.797076,492.703303 C149.797076,500.714073 153.838014,513.232309 154.647935,515.662075 C154.866458,516.316024 154.983759,516.994147 154.998428,517.679521 L155,517.826491 L155,518.80811 L154.999081,518.921164 C154.938501,522.64482 151.890802,525.655158 148.154686,525.655158 C145.24972,525.655158 142.65346,523.818526 141.697857,521.086991 L141.566696,520.710569 C139.397114,514.452142 135.92261,502.839849 135.92261,492.703303 C135.92261,482.97388 139.873484,471.96706 142.500976,465.722751 Z M122.048145,475.360222 L118.579529,475.360222 L118.579529,522.186542 L122.048145,522.186542 L122.048145,475.360222 Z M185.298188,508.519864 L187.997277,511.219031 C187.967394,511.401885 187.951855,511.589505 187.951855,511.780693 C187.951855,513.693635 189.507529,515.249309 191.420471,515.249309 C191.611659,515.249309 191.799279,515.23377 191.982133,515.203887 L194.6813,517.902976 C193.708742,518.422954 192.598477,518.717926 191.420471,518.717926 C187.594587,518.717926 184.483238,515.606577 184.483238,511.780693 C184.483238,510.602687 184.77821,509.492422 185.298188,508.519864 Z M194.889087,418.298016 L197.20092,419.114875 L197.407729,419.189471 C204.209801,421.691786 208.763552,428.206656 208.763552,435.471135 C208.763552,441.659077 205.533941,447.262289 200.252677,450.380894 L200.092012,450.474634 L200.092012,500.95861 L200.196055,501.042869 C203.4072,503.669065 205.294936,507.609442 205.294936,511.780693 C205.294936,512.958498 205.144105,514.106435 204.860494,515.205114 L201.819218,512.16364 C201.823939,512.036492 201.82632,511.908828 201.82632,511.780693 C201.82632,508.427378 200.196049,505.27234 197.459842,503.315665 L197.363945,503.247897 L196.623395,502.729339 L196.623395,448.363981 L197.584202,447.885312 L197.726325,447.813577 C202.398485,445.422784 205.294936,440.707878 205.294936,435.471135 C205.294936,430.510823 202.643255,425.989058 198.484196,423.524691 L198.357704,423.450645 L198.357044,433.804992 C198.321057,435.663642 196.816626,437.168344 194.958082,437.204767 L194.889087,437.205443 L187.951855,437.205443 L187.883689,437.204783 C186.02504,437.168797 184.520338,435.664366 184.483914,433.805821 L184.483238,433.736827 L184.478035,423.454114 L184.351647,423.52816 C180.195987,425.992526 177.546006,430.514257 177.546006,435.471135 C177.546006,440.707878 180.442457,445.422784 185.114617,447.813577 L185.25674,447.885312 L186.217547,448.363981 L186.217547,496.562356 L182.74893,493.09374 L182.74893,450.474634 L182.588265,450.380894 C177.307001,447.262289 174.07739,441.659077 174.07739,435.471135 C174.07739,428.21009 178.627742,421.695254 185.42638,419.192939 L185.633085,419.118343 L187.944917,418.29975 L187.951855,433.736827 L194.889087,433.736827 L194.889087,418.298016 Z M158.468616,420.089556 L158.468616,422.72397 L165.331274,431.301858 L167.015287,444.773964 L167.147579,444.842412 C171.4954,447.114169 174.07739,450.666466 174.07739,454.548524 C174.07739,457.725777 172.403782,460.571776 169.646232,462.713647 L169.829438,463.115439 C171.870874,467.62025 176.022788,477.703547 177.21758,487.56208 L170.21812,480.56293 L172.332676,480.563146 L172.219912,480.122314 C171.992568,479.242247 171.75425,478.37218 171.503493,477.519429 L171.377072,477.09453 L167.140157,477.09453 L167.140157,473.625914 L170.249771,473.625914 L170.144781,473.321815 C169.794617,472.312012 169.442747,471.341452 169.096197,470.429204 L168.992398,470.157298 L165.405849,470.157298 L165.405849,466.688681 L167.594546,466.688681 L167.390286,466.209596 C167.12434,465.590517 166.883479,465.048026 166.661488,464.555482 C165.003489,465.353264 163.126968,465.944663 161.099562,466.300196 L161.190691,466.493109 C162.053166,468.328662 163.244613,471.142158 164.334883,474.679547 L158.386802,468.731314 L158.235857,468.396336 C157.906921,467.673016 157.622531,467.09098 157.40722,466.666135 C157.18176,466.671338 156.961503,466.688681 156.734308,466.688681 C156.597957,466.688681 156.464681,466.682529 156.331551,466.676454 L152.430058,462.775021 C153.79164,463.063234 155.239963,463.220065 156.734308,463.220065 C164.254268,463.220065 170.608773,459.248499 170.608773,454.548524 C170.608773,452.158669 168.97066,449.873734 166.157474,448.22864 L166.052746,448.168005 L161.878266,455.126049 L161.868758,455.205296 C161.542326,457.761809 159.377889,459.751449 156.734308,459.751449 C154.131057,459.751449 151.991356,457.824232 151.613936,455.32397 L151.60249,455.243982 L146.439455,448.790621 L146.336774,448.862989 C144.553851,450.133284 143.384926,451.690039 142.999562,453.34456 L140.294375,450.639452 C141.405297,448.313804 143.50207,446.269282 146.366692,444.786912 L146.510562,444.713263 L149.956632,425.764212 L158.468616,420.089556 Z M132.453994,464.954373 L108.17368,464.954373 C106.260738,464.954373 104.705064,466.510048 104.705064,468.422989 C104.705064,470.313158 106.223919,471.854515 108.105515,471.890946 L108.17368,471.891606 L132.453994,471.891606 L132.52216,471.890946 C134.403755,471.854515 135.92261,470.313158 135.92261,468.422989 C135.92261,466.532821 134.403755,464.991464 132.52216,464.955033 L132.453994,464.954373 Z M156.734308,452.814216 C155.778704,452.814216 155,453.592921 155,454.548524 C155,455.504128 155.778704,456.282832 156.734308,456.282832 C157.689912,456.282832 158.468616,455.504128 158.468616,454.548524 C158.468616,453.592921 157.689912,452.814216 156.734308,452.814216 Z M115.110913,438.332526 L118.579529,441.801143 L118.579529,454.548524 L115.110913,454.548524 L115.110913,438.332526 Z M154.998266,426.5724 L153.106136,427.834976 L149.788404,446.052149 L149.696486,447.064985 L149.550804,447.129154 L152.795694,451.185701 L152.866826,451.104256 C153.417136,450.486883 154.104676,450.004633 154.890502,449.704506 L154.998266,449.664713 L154.998266,426.5724 Z M158.468616,428.27549 L158.468616,449.666447 L158.583058,449.708675 C159.228285,449.954492 159.817026,450.311162 160.309528,450.774959 L160.395433,450.857917 L163.61084,445.498904 L162.011808,432.703179 L158.468616,428.27549 Z M120.313837,418.128053 C126.941322,418.128053 132.344955,422.943574 132.452365,428.897702 L132.453994,429.078475 L132.453994,442.798803 L128.985378,439.330187 L128.985378,429.078475 L128.984214,428.954982 C128.907488,424.887474 125.04751,421.59667 120.313837,421.59667 C117.721182,421.59667 115.390618,422.583847 113.800189,424.145132 L111.353063,421.698152 C113.574494,419.505613 116.769114,418.128053 120.313837,418.128053 Z M125.516762,426.799594 L125.516762,435.861571 L122.048145,432.392955 L122.048145,426.799594 L125.516762,426.799594 Z M118.579529,426.799594 L118.579529,428.924338 L116.454785,426.799594 L118.579529,426.799594 Z" id="path-39"></path>
        <linearGradient x1="9.63362412%" y1="38.5977801%" x2="92.4740363%" y2="76.2628151%" id="linearGradient-41">
            <stop stop-color="#3C9DCF" offset="0%"></stop>
            <stop stop-color="#03306C" offset="100%"></stop>
        </linearGradient>
    </defs>
    <g id="Page-2" stroke="none" stroke-width="1" fill="none" fill-rule="evenodd">
        <g id="Artboard" transform="translate(-188.000000, -2624.000000)">
            <g id="Group-40" transform="translate(188.000000, 2624.000000)">
                <path d="M442.728942,84.0845444 C393.878518,82.3937828 347.352866,66.6183726 302.925549,49.3635459 C258.498232,32.1087193 214.493601,12.9668819 166.813111,3.85639382 C136.145732,-2.03107983 101.070343,-2.86136458 76.3658561,13.5858214 C52.5973168,29.4065199 44.8983934,56.7455321 40.7696569,82.0616689 C37.6598957,101.128026 35.8332884,121.198273 44.347392,139.049395 C50.2649959,151.443281 60.7566661,161.859581 68.0178077,173.725105 C93.2808438,215.035545 75.4223605,265.96974 48.0534424,306.298935 C35.2219033,325.214331 20.314674,343.284346 10.404197,363.399881 C0.493720019,383.515416 -4.08789424,406.612428 4.58471661,427.158201 C13.1742999,447.537918 33.6519267,462.815157 55.8353935,473.571119 C100.889192,495.422704 153.958928,501.672483 205.74551,505.220064 C320.346251,513.054932 435.550828,509.665861 550.453487,506.261694 C592.978717,505.008718 635.685098,503.733099 677.515916,497.158754 C700.74855,493.505501 724.728432,487.708604 741.598132,473.714532 C763.004158,455.953986 768.310377,425.882582 753.961697,403.608307 C729.898788,366.253041 663.386127,356.976496 646.546619,316.888839 C637.292815,294.818361 646.795702,270.241933 660.253722,249.779188 C689.117137,205.872221 737.49204,167.354556 740.035703,117.175166 C741.786831,82.7108006 718.531553,48.1935993 682.573052,31.882278 C644.886067,14.7859603 592.616415,16.9371526 564.824811,45.2272183 C536.180287,74.3702129 485.850461,85.586605 442.728942,84.0845444 Z" id="Path" fill="#B8E1F5" fill-rule="nonzero" opacity="0.4"></path>
                <rect id="Rectangle" fill="#9BAEBC" x="211" y="181" width="185" height="8"></rect>
                <path d="M400.993961,60 L400.996685,69.7485699 C452.088473,71.6161246 493.171581,112.831358 495.031756,164.086704 L495.097537,164.086625 L495.097537,202.816533 L504.749186,202.816533 L504.749186,210.07839 L495.097537,210.07839 L495.097537,323.847492 L504.749186,323.847492 L504.749186,331.10935 L495.097537,331.10935 L495.097537,444.878452 L504.749186,444.878452 L504.749186,452.14031 L495.097537,452.14031 L495.097537,471.505263 L490.271712,471.505263 L490.271712,171.348483 L490.202408,171.350897 C490.248471,170.14551 490.271712,168.934255 490.271712,167.717554 C490.271712,116.248018 448.680255,74.5237152 397.374593,74.5237152 C346.06893,74.5237152 304.477473,116.248018 304.477473,167.717554 L304.494852,169.538468 L304.546778,171.350897 L304.477473,171.348483 L304.477473,471.505263 L299.651649,471.505263 L299.651649,452.14031 L290,452.14031 L290,444.878452 L299.651649,444.878452 L299.651649,331.10935 L290,331.10935 L290,323.847492 L299.651649,323.847492 L299.651649,210.07839 L290,210.07839 L290,202.816533 L299.651649,202.816533 L299.651649,164.086625 L299.717429,164.086704 C301.577634,112.830551 342.662007,71.6148266 393.754915,69.7484817 L393.755225,60 L400.993961,60 Z" id="Path" fill="#9BAEBC"></path>
                <path d="M492.993961,60 L492.996685,69.7485699 C544.088473,71.6161246 585.171581,112.831358 587.031756,164.086704 L587.097537,164.086625 L587.097537,202.816533 L596.749186,202.816533 L596.749186,210.07839 L587.097537,210.07839 L587.097537,323.847492 L596.749186,323.847492 L596.749186,331.10935 L587.097537,331.10935 L587.097537,444.878452 L596.749186,444.878452 L596.749186,452.14031 L587.097537,452.14031 L587.097537,471.505263 L582.271712,471.505263 L582.271712,171.348483 L582.202408,171.350897 C582.248471,170.14551 582.271712,168.934255 582.271712,167.717554 C582.271712,116.248018 540.680255,74.5237152 489.374593,74.5237152 C438.06893,74.5237152 396.477473,116.248018 396.477473,167.717554 L396.494852,169.538468 L396.546778,171.350897 L396.477473,171.348483 L396.477473,471.505263 L391.651649,471.505263 L391.651649,452.14031 L382,452.14031 L382,444.878452 L391.651649,444.878452 L391.651649,331.10935 L382,331.10935 L382,323.847492 L391.651649,323.847492 L391.651649,210.07839 L382,210.07839 L382,202.816533 L391.651649,202.816533 L391.651649,164.086625 L391.717429,164.086704 C393.577634,112.830551 434.662007,71.6148266 485.754915,69.7484817 L485.755225,60 L492.993961,60 Z" id="Path" fill="#9BAEBC"></path>
                <rect id="Rectangle" fill="#9BAEBC" x="402" y="181" width="185" height="8"></rect>
                <path d="M199,472 L199,156.743396 L199.072362,156.743476 C201.118677,104.180493 246.31349,61.9139294 302.518178,60 L493.484477,60 C549.687934,61.9152605 594.881355,104.181321 596.927638,156.743476 L597,156.743396 L597,472 L199,472 Z" id="Combined-Shape" fill="#00A0F3" opacity="0.25" style="mix-blend-mode: multiply;"></path>
                <path d="M493.484477,60 C549.687934,61.9152605 594.881355,104.181321 596.927638,156.743476 L597,156.743396 L597,472 L399,472 L399,168.221185 L398.937735,168.221262 C397.17698,117.572777 358.289617,76.8455302 309.928504,75 L309.928504,75 L303.073781,75 C254.711607,76.8442475 215.823048,117.57198 214.062265,168.221262 L214.062265,168.221262 L214,168.221185 L214,472 L199,472 L199,156.743396 L199.072362,156.743476 C201.118677,104.180493 246.31349,61.9139294 302.518178,60 L493.484477,60 Z" id="Combined-Shape" fill="#00A0F3" opacity="0.25" style="mix-blend-mode: multiply;"></path>
                <path d="M309.993961,60 L309.996685,69.7485699 C361.088473,71.6161246 402.171581,112.831358 404.031756,164.086704 L404.097537,164.086625 L404.097537,202.816533 L413.749186,202.816533 L413.749186,210.07839 L404.097537,210.07839 L404.097537,323.847492 L413.749186,323.847492 L413.749186,331.10935 L404.097537,331.10935 L404.097537,444.878452 L413.749186,444.878452 L413.749186,452.14031 L404.097537,452.14031 L404.097537,471.505263 L399.271712,471.505263 L399.271712,171.348483 L399.202408,171.350897 C399.248471,170.14551 399.271712,168.934255 399.271712,167.717554 C399.271712,116.248018 357.680255,74.5237152 306.374593,74.5237152 C255.06893,74.5237152 213.477473,116.248018 213.477473,167.717554 L213.494852,169.538468 L213.546778,171.350897 L213.477473,171.348483 L213.477473,471.505263 L208.651649,471.505263 L208.651649,452.14031 L199,452.14031 L199,444.878452 L208.651649,444.878452 L208.651649,331.10935 L199,331.10935 L199,323.847492 L208.651649,323.847492 L208.651649,210.07839 L199,210.07839 L199,202.816533 L208.651649,202.816533 L208.651649,164.086625 L208.717429,164.086704 C210.577634,112.830551 251.662007,71.6148266 302.754915,69.7484817 L302.755225,60 L309.993961,60 Z" id="Path" fill="#749EB9"></path>
                <path d="M487.666178,248.241989 C487.165621,247.223485 483.18358,234.116752 483.18358,234.116752 L475.510868,214.73544 C475.510868,214.73544 470.856437,189.228235 463.908411,195.592026 C456.960385,201.955817 467.643909,217.225942 467.643909,217.225942 C467.643909,217.225942 472.029384,228.377445 471.805254,230.607746 C471.581124,232.838046 474.248269,241.015815 474.248269,241.015815 L473.381634,245.714315 C472.253513,245.639972 471.521356,245.639972 471.521356,245.639972 C471.521356,245.639972 470.834024,246.621304 470.176577,246.688213 C470.064965,246.703331 469.951322,246.68791 469.847853,246.643607 C469.100753,246.309062 466.627854,246.375971 465.365255,246.375971 C464.192435,246.21862 463.056802,245.856196 462.010778,245.305427 C461.577461,244.443044 459.126974,243.930075 456.952914,243.640136 C455.301824,239.551251 452.978345,235.573882 452.657092,231.306573 C452.498985,230.145002 452.730056,228.963959 453.314539,227.946254 C453.45948,227.728223 453.624558,227.524132 453.807625,227.336638 C454.412776,226.727023 455.152404,226.191751 455.824794,225.626741 C456.160989,225.344236 456.4673,225.054297 456.758668,224.756924 C462.459038,219.255516 461.555048,210.735767 456.385119,204.840339 C450.408322,198.023054 423.45297,183.35511 415.294642,195.919137 C414.159051,197.67364 414.121696,199.703214 413.800443,201.65101 C412.987391,206.414872 410.741959,210.821488 407.360445,214.28938 C404.655945,217.151599 401.107222,219.790788 399.553255,223.032158 L399.500958,222.913209 C399.130553,223.616331 398.859055,224.366792 398.69409,225.143509 C397.909636,229.091141 400.584252,232.890087 401.988799,236.733638 C402.466747,238.039168 402.812135,239.389037 403.019797,240.763048 L403.109449,239.915534 C403.453507,241.878273 403.571315,243.873676 403.460585,245.863002 C393.673581,247.855404 393.66611,264.642133 393.66611,264.642133 C393.66611,264.642133 392.46328,271.333035 392.664997,273.719457 C392.866713,276.105878 392.866713,281.324782 392.866713,282.596053 C392.866713,283.867325 391.656412,291.673377 391.521934,292.610103 C391.350101,293.643476 389.512236,298.594743 393.950008,299.709893 C394.256319,299.791671 394.585042,299.85858 394.921237,299.918055 C395.108012,303.925161 395.459149,312.333395 395.152838,314.191979 C395.152838,314.191979 396.766573,325.4773 398.103881,328.317216 C398.962726,329.996382 399.962404,331.600452 401.09228,333.112362 C400.997516,333.797686 400.76639,334.457331 400.412419,335.052724 C399.732558,336.04149 400.083695,336.851833 401.226758,337.201247 C401.191893,337.543226 401.147067,337.929812 401.09228,338.361003 C400.606665,342.717524 399.874507,351.363656 401.09228,355.749913 C402.803138,361.756856 402.900261,363.756693 402.900261,363.756693 C402.89934,364.734173 403.140545,365.696811 403.602534,366.559437 C404.349634,367.563072 405.619703,376.87086 405.619703,378.372596 C405.619703,379.874332 409.041419,393.389954 408.032835,396.594152 C407.02425,399.798351 407.831118,404.303558 407.831118,404.303558 C407.831118,404.303558 407.225967,412.213691 406.523694,413.916154 C405.82142,415.618616 405.515109,443.051314 406.620816,450.158539 C407.726524,457.265763 408.436268,463.17606 408.436268,463.17606 C408.436268,463.17606 407.689169,469.681103 408.331674,470.610395 C408.97418,471.539687 410.042533,476.922146 409.235665,477.219519 C408.428797,477.516893 408.032835,479.72489 408.032835,479.72489 C408.457889,480.37043 408.916743,480.993295 409.407498,481.590909 C409.095541,481.481937 408.791072,481.3528 408.496036,481.204323 C408.817289,481.657818 409.295433,482.282302 409.878171,482.966261 L409.332788,490.162697 C409.28429,490.744522 409.662131,491.277171 410.229307,491.426534 C413.828654,492.409031 417.678642,491.32384 420.2255,488.608921 C425.25348,483.501533 426.949396,484.207795 427.875799,481.100242 C427.965451,480.765697 428.055103,480.446021 428.122342,480.133779 C428.404977,478.911475 427.955304,477.636452 426.967038,476.85798 C425.978772,476.079508 424.628456,475.936652 423.497796,476.490955 C423.819049,474.260654 424.073062,471.814758 423.82652,470.409668 C423.325963,467.510277 423.423086,459.897518 423.423086,459.897518 L422.720812,423.469275 C422.720812,423.469275 424.028236,416.265404 425.537378,413.462659 C427.046519,410.659915 426.844802,400.824289 426.844802,400.824289 L428.55566,368.581576 L430.259047,352.969472 C430.259047,352.969472 431.865311,347.56471 433.875009,353.571653 C433.875009,353.571653 432.769301,365.682186 433.277329,368.589011 C433.785357,371.495836 434.480159,385.606204 433.979603,388.713757 C433.479046,391.821309 431.26016,408.838502 432.672178,413.142983 C434.084197,417.447463 435.585867,422.651498 435.287027,424.35396 C434.988187,426.056423 433.979603,463.012504 433.979603,463.012504 C433.979603,463.012504 436.691574,470.119729 434.681876,472.424373 C432.672178,474.729017 434.584753,483.940159 434.584753,483.940159 C434.584753,483.940159 434.823825,484.111148 435.242201,484.356481 L435.182433,485.099915 L434.554869,493.381765 C434.509455,493.962749 434.886041,494.493628 435.451389,494.645602 C439.05072,495.624636 442.898912,494.539952 445.447581,491.827988 C450.475561,486.7206 452.171477,487.419428 453.097881,484.31931 C453.187533,483.984765 453.277184,483.657654 453.351894,483.345412 C453.663113,481.986347 453.070504,480.580893 451.877927,479.849696 C450.68535,479.118498 449.157335,479.223747 448.077371,480.111476 C448.043588,480.147577 448.006019,480.179977 447.965307,480.208122 C447.8383,480.319637 447.703822,480.416284 447.569344,480.51293 L447.375098,480.639314 C447.875655,478.349538 448.607812,474.446512 448.264146,472.602797 C447.76359,469.896699 448.764703,461.689193 448.764703,461.689193 C448.764703,461.689193 451.685862,451.87587 451.753101,447.972844 C451.82034,444.069818 452.559969,416.748635 452.559969,416.748635 C452.559969,416.748635 452.462846,404.035922 452.86628,400.935804 C453.269713,397.835686 456.482242,370.997735 459.702241,363.020693 C462.17514,356.879932 463.280848,341.230656 462.6234,333.283352 C462.586045,332.881898 462.54869,332.539918 462.511335,332.153333 C466.44855,329.209336 466.866926,324.362149 466.866926,324.362149 C466.866926,324.362149 463.243493,317.41848 459.754538,314.481918 C456.265583,311.545355 455.458715,306.475139 455.593193,304.33405 C455.654719,303.027689 455.226008,301.745218 454.390363,300.735832 C454.390363,300.735832 452.776628,295.531797 451.700804,294.996525 C451.61253,294.952839 451.533817,294.892199 451.469204,294.818101 C450.722104,294.030061 451.297371,291.792326 451.297371,291.792326 L451.297371,291.725417 C451.416907,291.205014 452.201361,287.844694 451.947347,286.982311 C451.693333,286.119928 452.081825,281.644458 452.081825,281.644458 C452.081825,281.644458 454.636906,274.039133 454.233472,268.03219 C453.830038,262.025247 459.463169,262.553085 459.463169,262.553085 L476.863118,262.374661 L478.842932,262.374661 C479.677903,261.665656 480.429764,260.865112 481.08423,259.988239 C482.442475,260.242169 483.844784,259.900764 484.931793,259.051513 C488.622465,255.691193 488.166734,249.275362 487.666178,248.241989 Z M406.747823,300.282337 L406.87483,297.23426 L407.554691,297.814138 C407.762193,298.613845 407.762193,299.452893 407.554691,300.2526 C407.341274,301.014157 406.791477,301.63785 406.060492,301.947628 C405.974148,301.990009 405.891658,302.039757 405.813949,302.096315 L405.642116,300.35668 C406.351861,300.312074 406.747823,300.274903 406.747823,300.274903 L406.747823,300.282337 Z" id="Shape" fill="#000000" fill-rule="nonzero" opacity="0.1"></path>
                <path d="M472.140472,255.039554 C472.140472,255.039554 482.096936,261.382504 485.866275,258.013974 C489.635615,254.645444 489.170079,248.146337 488.659491,247.120162 C488.148903,246.093987 484.094235,232.894999 484.094235,232.894999 L476.262718,213.353061 C476.262718,213.353061 471.502237,187.631767 464.399059,194.019333 C457.295881,200.4069 468.228468,215.829266 468.228468,215.829266 C468.228468,215.829266 472.733655,227.080009 472.478361,229.333132 C472.223067,231.586255 474.971231,239.840269 474.971231,239.840269 L472.140472,255.039554 Z" id="Path" fill="url(#linearGradient-1)" fill-rule="nonzero"></path>
                <path d="M452.925893,484.067464 C452.851891,484.392105 452.770488,484.724295 452.666885,485.064035 C451.756655,488.242494 450.032399,487.525265 444.970635,492.749715 C442.39509,495.533041 438.525706,496.641845 434.906308,495.633733 C434.339266,495.482284 433.95935,494.939019 434.003478,494.34272 L434.639899,485.864312 L434.943309,481.779879 C434.943309,481.779879 443.002171,484.090113 447.109304,481.168347 C447.242509,481.0702 447.375713,480.972053 447.501517,480.858806 L447.619921,480.760659 C448.703002,479.85554 450.22864,479.748035 451.423411,480.492644 C452.618181,481.237253 453.22085,482.671168 452.925893,484.067464 L452.925893,484.067464 Z" id="Path" fill="url(#linearGradient-2)" fill-rule="nonzero"></path>
                <path d="M427.923124,480.07025 C427.856509,480.394752 427.76769,480.7268 427.671469,481.066395 C426.761068,484.243495 425.036488,483.526572 419.973773,488.748788 C417.395831,491.52772 413.52897,492.638018 409.907555,491.639118 C409.335626,491.489971 408.95355,490.94076 409.004556,490.341111 L409.633695,481.86633 L409.944564,477.783644 C409.944564,477.783644 418.004939,480.092889 422.105442,477.172373 C422.246073,477.074267 422.371901,476.976162 422.50513,476.862964 L422.623557,476.764859 C423.705117,475.856155 425.23288,475.746759 426.428394,476.492413 C427.623909,477.238067 428.22409,478.674682 427.923124,480.07025 L427.923124,480.07025 Z" id="Path" fill="url(#linearGradient-3)" fill-rule="nonzero"></path>
                <path d="M420.021176,481.28 L420.365294,485.814444 C415.578235,490.636667 409.888824,483.481111 408.206471,481.101111 C412.588235,483.387778 420.021176,481.28 420.021176,481.28 Z" id="Path" fill="url(#linearGradient-4)" fill-rule="nonzero"></path>
                <path d="M446.895,483.901111 L447.494444,483.481111 C443.363333,490.185556 437.238889,487.09 435.332222,485.892222 L435.628333,481.684444 C435.628333,481.684444 443.493333,484.064444 447.501667,481.054444 C447.183889,482.695556 446.895,483.901111 446.895,483.901111 Z" id="Path" fill="url(#linearGradient-5)" fill-rule="nonzero"></path>
                <path d="M459.866073,362.762449 C456.614265,370.813373 453.362458,397.790644 452.954126,400.911675 C452.545794,404.032705 452.649733,416.813363 452.649733,416.813363 L451.803372,448.216419 C451.706857,452.145507 448.759443,462.005295 448.759443,462.005295 C448.759443,462.005295 447.742325,470.263795 448.247172,472.97709 C448.752019,475.690385 446.925661,482.844292 446.925661,482.844292 L447.541871,482.443969 C442.456282,490.087159 434.430702,484.349207 434.430702,484.349207 C434.430702,484.349207 432.500406,475.089902 434.527217,472.776929 C436.554028,470.463956 433.821916,463.317463 433.821916,463.317463 C433.821916,463.317463 434.83161,426.176456 435.143427,424.463966 C435.455244,422.751476 433.985249,417.517634 432.500406,413.188223 C431.015562,408.858812 433.309645,391.748744 433.821916,388.627713 C434.334187,385.506682 433.614038,371.317483 433.079494,368.396613 C432.544951,365.475744 433.68828,353.295569 433.68828,353.295569 C431.654045,347.261082 430.028141,352.695086 430.028141,352.695086 L428.402237,368.500401 L426.731788,400.948742 C426.731788,400.948742 426.939666,410.80853 425.410277,413.625612 C423.880889,416.442695 422.566802,423.692975 422.566802,423.692975 L423.309224,460.329873 C423.309224,460.329873 423.205285,467.980475 423.717556,470.901345 C424.229827,473.822215 422.596499,481.36903 422.596499,481.36903 C416.909548,494.653798 407.748063,480.264437 407.748063,480.264437 C407.748063,480.264437 408.148971,478.040425 408.965635,477.74389 C409.782299,477.447355 408.661242,472.005938 408.052456,471.071853 C407.44367,470.137767 408.148971,463.658478 408.148971,463.658478 C408.148971,463.658478 407.44367,457.727778 406.322613,450.566458 C405.201556,443.405138 405.513373,415.842211 406.218674,414.129722 C406.923975,412.417232 407.540185,404.492335 407.540185,404.492335 C407.540185,404.492335 406.730945,399.962763 407.748063,396.737945 C408.765181,393.513127 405.305495,379.931824 405.305495,378.419496 C405.305495,376.907167 403.983984,367.551489 403.27126,366.558096 C402.793093,365.695303 402.537923,364.72707 402.528838,363.741014 C402.528838,363.741014 402.424899,361.724576 400.695056,355.690089 C399.432939,351.242064 400.175361,342.583243 400.695056,338.209352 C400.873237,336.585823 401.021722,335.555363 401.021722,335.555363 C401.021722,335.555363 459.353802,326.192271 461.69243,328.312496 C462.241822,328.801779 462.605609,330.536509 462.813487,332.953269 C463.474243,340.855926 462.353186,356.594521 459.866073,362.762449 Z" id="Path" fill="url(#linearGradient-6)" fill-rule="nonzero"></path>
                <path d="M437.115385,407.36 C437.4,407.36 444.038462,407.725 446.523077,407.405 C449.007692,407.085 437.115385,407.36 437.115385,407.36 Z" id="Path" fill="url(#linearGradient-7)" fill-rule="nonzero"></path>
                <path d="M438.564286,411.526667 C438.564286,411.526667 447.135714,412.913333 447.564286,412.193333 C447.992857,411.473333 438.564286,411.526667 438.564286,411.526667 Z" id="Path" fill="url(#linearGradient-8)" fill-rule="nonzero"></path>
                <path d="M411.145455,410.413333 C411.145455,410.413333 415.654545,410.593333 418.112727,411.62 C420.570909,412.646667 411.145455,410.413333 411.145455,410.413333 Z" id="Path" fill="url(#linearGradient-9)" fill-rule="nonzero"></path>
                <path d="M394,297.139429 C394,297.139429 394.769724,311.023602 394.354073,313.474613 C394.354073,313.474613 396.039769,324.702301 397.43297,327.556922 C398.68996,329.833937 400.171981,331.991407 401.858884,334 L406,306.437128 L405.037845,297 L394,297.139429 Z" id="Path" fill="url(#linearGradient-10)" fill-rule="nonzero"></path>
                <circle id="Oval" fill="url(#linearGradient-11)" fill-rule="nonzero" cx="436.5" cy="217.5" r="15.5"></circle>
                <path d="M428.359651,224.527308 C428.359651,224.527308 423.421142,234.035611 418.482634,238.491697 C413.544126,242.947782 448.113684,248 448.93301,248 C449.752337,248 442.761754,227.768775 443.994502,225.339538 C445.22725,222.9103 428.359651,224.527308 428.359651,224.527308 Z" id="Path" fill="url(#linearGradient-12)" fill-rule="nonzero"></path>
                <path d="M462.8725,332.52 C462.098651,333.107852 461.245097,333.58261 460.3375,333.93 C454.045,336.375 447.1975,339.7725 442.54,338.43 C437.8825,337.0875 428.035,338.43 428.035,338.43 C428.035,338.43 408.1825,336.795 404.215,337.7475 C402.88456,338.151852 401.469415,338.188138 400.12,337.8525 C400.3,336.21 400.45,335.1675 400.45,335.1675 C400.45,335.1675 459.3775,325.695 461.74,327.84 C462.295,328.32 462.6625,330.0525 462.8725,332.52 Z" id="Path" fill="url(#linearGradient-13)" fill-rule="nonzero"></path>
                <path d="M467,323.071748 C467,323.071748 466.456703,329.768654 460.205069,332.231627 C453.953435,334.6946 447.165946,338.02817 442.544202,336.69623 C437.922458,335.36429 428.150558,336.69623 428.150558,336.69623 C428.150558,336.69623 408.450468,335.074091 404.513427,336.019099 C400.576385,336.964106 398.559489,335.751223 399.757719,333.995145 C400.955949,332.239068 400.851755,326.457406 400.851755,324.031638 C400.851755,321.60587 399.489792,311.76886 400.710349,310.020223 C401.930906,308.271587 403.0175,301.537476 405.466057,300.458531 C406.208624,300.149926 406.770193,299.519992 406.991753,298.747099 C407.205352,297.939996 407.205352,297.091229 406.991753,296.284126 C406.991753,296.284126 406.58242,295.949281 406.009353,295.443292 C404.572966,294.17088 402.131852,291.804641 402.913306,291.030776 C403.999899,289.95183 402.913306,282.942402 402.913306,282.942402 C402.913306,282.942402 400.330785,277.555114 401.283415,275.538601 C402.236045,273.522089 393,262.888891 393,262.888891 C393,262.888891 393,244.569134 404.163633,243.758064 C404.163633,243.758064 412.037715,244.033381 412.990345,240.528668 C413.942975,237.023954 420.187167,235 420.187167,235 L434.446847,238.1029 C434.446847,238.1029 447.098964,240.796544 449.39123,239.181845 C451.683496,237.567147 453.469677,241.332296 453.469677,241.332296 C453.469677,241.332296 461.343759,241.741552 462.162426,243.35625 C462.981092,244.970948 459.579905,260.730999 459.579905,260.730999 C459.579905,260.730999 453.871568,260.195247 454.280901,266.259667 C454.690234,272.324087 452.107714,279.995764 452.107714,279.995764 C452.107714,279.995764 451.698381,284.460368 451.97375,285.383052 C452.24912,286.305737 451.437896,289.639308 451.311375,290.167619 L451.311375,290.234588 C451.311375,290.234588 450.745751,292.46689 451.482551,293.292842 C451.553547,293.362801 451.633655,293.422871 451.720708,293.471426 C452.807302,294.007178 454.437192,299.260529 454.437192,299.260529 C455.286609,300.27755 455.724663,301.575537 455.665192,302.899181 C455.531228,305.057072 456.342452,310.169044 459.87016,313.138005 C463.397868,316.106966 467,323.071748 467,323.071748 Z" id="Path" fill="url(#linearGradient-14)" fill-rule="nonzero"></path>
                <path d="M406,291.950838 L406,292.522107 L405.74951,298.80607 C405.74951,298.80607 397.483355,299.473788 392.974543,298.331249 C388.465731,297.18871 390.373872,292.225344 390.550688,291.186672 C390.550688,291.186672 390.550688,291.186672 390.550688,291.186672 C390.6833,290.244448 391.891544,282.38764 391.891544,281.111557 C391.891544,279.835475 391.891544,274.597603 391.692625,272.208658 C391.493707,269.819713 392.701951,263.075767 392.701951,263.075767 L393.571297,262 L403.053064,265.627932 L406,291.950838 Z" id="Path" fill="url(#linearGradient-15)" fill-rule="nonzero"></path>
                <path d="M406.371739,292.585455 L406.120435,298.745455 C406.120435,298.745455 397.827391,299.4 393.303913,298.28 C388.780435,297.16 390.694783,292.294545 390.872174,291.276364 L406.371739,292.585455 Z" id="Path" fill="url(#linearGradient-16)" fill-rule="nonzero"></path>
                <path d="M407.483871,298.6925 C407.696808,297.878998 407.696808,297.023502 407.483871,296.21 C407.483871,296.21 407.075806,295.8725 406.504516,295.3625 C413.679032,294.365 442.072903,290.45 451.643871,290.03 L451.643871,290.0975 C451.643871,290.0975 451.08,292.3475 451.814516,293.18 L407.483871,298.6925 Z" id="Path" fill="url(#linearGradient-17)" fill-rule="nonzero"></path>
                <path d="M452.1525,304.132632 C452.1525,304.132632 453.93,313.94 447.2925,317.395789 C447.2925,317.395789 451.0575,312.510526 452.1525,304.132632 Z" id="Path" fill="url(#linearGradient-18)" fill-rule="nonzero"></path>
                <path d="M409.681481,317.89 C409.681481,317.89 425.496296,315.175 428.607407,317.275 C431.718519,319.375 409.681481,317.89 409.681481,317.89 Z" id="Path" fill="url(#linearGradient-19)" fill-rule="nonzero"></path>
                <path d="M446.8525,256.045882 C446.8525,256.045882 444.3925,266.285294 446.2375,268.640588 C448.0825,270.995882 446.8525,256.045882 446.8525,256.045882 Z" id="Path" fill="url(#linearGradient-20)" fill-rule="nonzero"></path>
                <path d="M401.4,248.075 C401.4,248.075 403.4,251.825 402.193333,255.68 C400.986667,259.535 401.4,248.075 401.4,248.075 Z" id="Path" fill="url(#linearGradient-21)" fill-rule="nonzero"></path>
                <path d="M396,281 C396,281 398.724253,282.720305 397.813798,285.395494 C396.903342,288.070682 396,281 396,281 Z" id="Path" fill="url(#linearGradient-22)" fill-rule="nonzero"></path>
                <path d="M396,273.273333 C396,273.273333 398.848,274.546667 399.2,276.413333 C399.552,278.28 396,273.273333 396,273.273333 Z" id="Path" fill="url(#linearGradient-23)" fill-rule="nonzero"></path>
                <path d="M435.585,353.936 C435.585,353.936 452.355,355.752 455.7075,351.536 C455.7075,351.552 440.58,354.736 435.585,353.936 Z" id="Path" fill="url(#linearGradient-24)" fill-rule="nonzero"></path>
                <path d="M406.136552,352.3075 C406.136552,352.3075 424.343448,356.515 427.93931,353.185 C427.93931,353.185 412.296552,354.34 406.136552,352.3075 Z" id="Path" fill="url(#linearGradient-25)" fill-rule="nonzero"></path>
                <path d="M436.3825,358.505 C436.3825,358.505 443.8825,358.505 447.4,358.64 C450.9175,358.775 436.3825,358.505 436.3825,358.505 Z" id="Path" fill="url(#linearGradient-26)" fill-rule="nonzero"></path>
                <path d="M407.630769,362.208 C407.630769,362.208 411.423077,366.624 415.7,365.832 C419.976923,365.04 407.630769,362.208 407.630769,362.208 Z" id="Path" fill="url(#linearGradient-27)" fill-rule="nonzero"></path>
                <path d="M414.824037,193.984662 C413.663658,195.758329 413.626226,197.807735 413.326774,199.775164 C412.501966,204.610444 410.213995,209.079846 406.768762,212.585813 C403.489756,216.028815 398.990481,219.143911 398.144528,223.347056 C397.343492,227.341534 400.068511,231.179512 401.498397,235.062204 C405.241554,245.309233 400.001134,256.048119 398.466439,266.623052 C398.047206,269.544387 398.556275,273.278031 402.209597,274.246841 C403.347516,274.552389 404.650135,274.515127 405.668274,274.99208 C407.045756,275.640437 407.464989,276.989319 407.719524,278.204058 C408.631527,282.545849 408.946339,286.990912 408.655313,291.417135 C408.490614,293.906231 408.310943,296.760495 410.684105,298.467091 C411.89474,299.210647 413.227833,299.735412 414.621906,300.017187 C418.365063,301.015806 423.208709,301.813211 425.731597,299.480615 C426.794653,298.504353 427.22886,297.118209 428.509019,296.343161 C430.485406,295.188042 433.292774,295.970542 435.785717,296.08978 C440.583308,296.294483 445.1148,293.892065 447.62158,289.814872 C449.635399,286.230276 449.463214,282.146369 448.714582,278.286034 C447.965951,274.425699 446.678305,270.610078 446.580983,266.705028 C446.464634,265.33674 446.772981,263.965871 447.464368,262.777622 C448.961631,260.452478 452.532603,259.394239 454.950682,257.560953 C459.487389,254.132856 459.442471,248.513758 457.825427,243.811304 C456.208383,239.108849 453.213857,234.615061 452.847028,229.756107 C452.685747,228.580276 452.922835,227.384478 453.520796,226.357819 C454.313309,225.382729 455.240888,224.524593 456.27576,223.809104 C462.901148,218.286887 462.122572,209.209883 456.642589,203.002047 C450.563702,196.093686 423.096414,181.263442 414.824037,193.984662 Z" id="Path" fill="url(#linearGradient-28)" fill-rule="nonzero"></path>
                <path d="M403.054824,239.67 C403.700129,235.610059 403.346498,231.453831 402.024588,227.561613 C401.283412,225.610323 400.268,223.666452 399.519412,221.715161 C399.14268,222.414236 398.868117,223.163811 398.704118,223.940968 C397.903647,227.910323 400.608941,231.73129 402.024588,235.604194 C402.502144,236.921817 402.847263,238.283823 403.054824,239.67 L403.054824,239.67 Z" id="Path" fill="url(#linearGradient-29)" fill-rule="nonzero"></path>
                <path d="M409.117647,283.666774 C409.406763,279.259822 409.092558,274.833992 408.183765,270.512258 C407.931765,269.302903 407.516706,267.96 406.160353,267.314516 C405.144941,266.832258 403.855294,266.869355 402.728706,266.572581 C401.334154,266.237396 400.170338,265.28023 399.571294,263.975806 C399.371176,264.999677 399.185882,266.023548 399.037647,267.04 C398.615176,269.948387 399.119176,273.665484 402.743529,274.63 C403.870118,274.934194 405.159765,274.897097 406.175176,275.371935 C407.531529,276.017419 407.946588,277.360323 408.198588,278.569677 C408.618467,280.574561 408.910586,282.604138 409.073176,284.646129 C409.058353,284.327097 409.117647,283.993226 409.117647,283.666774 Z" id="Path" fill="url(#linearGradient-30)" fill-rule="nonzero"></path>
                <path d="M447.658824,282.10129 C445.17944,286.15922 440.695811,288.551044 435.948235,288.348387 C433.480118,288.229677 430.700706,287.450645 428.744,288.600645 C427.439529,289.342581 427.039294,290.752258 425.994235,291.724194 C423.496471,294.046452 418.701059,293.252581 414.995176,292.258387 C413.614405,291.979825 412.294251,291.457253 411.096588,290.715161 C410.073308,289.975142 409.383385,288.860534 409.176941,287.613871 C409.176941,288.993871 409.176941,290.38129 409.088,291.76129 C408.924941,294.231935 408.747059,297.073548 411.096588,298.772581 C412.294251,299.514672 413.614405,300.037245 414.995176,300.315806 C418.701059,301.317419 423.496471,302.103871 425.994235,299.781613 C427.039294,298.809677 427.476588,297.437097 428.744,296.665484 C430.700706,295.508065 433.480118,296.287097 435.948235,296.413226 C440.698059,296.617555 445.183573,294.221884 447.658824,290.15871 C449.578471,286.730968 449.496941,282.843226 448.829882,279.133548 C448.573193,280.170552 448.179362,281.168614 447.658824,282.10129 Z" id="Path" fill="url(#linearGradient-31)" fill-rule="nonzero"></path>
                <path d="M456.249059,216.365806 C455.222248,217.078039 454.301446,217.932339 453.514118,218.903226 C452.925208,219.92642 452.693136,221.116678 452.854471,222.286452 C452.98037,223.756708 453.291667,225.2051 453.780941,226.597097 C454.537679,225.800703 455.363635,225.073217 456.249059,224.423226 C460.696118,220.713548 461.763412,215.371613 460.325529,210.393226 C459.564161,212.732823 458.14961,214.805331 456.249059,216.365806 L456.249059,216.365806 Z" id="Path" fill="url(#linearGradient-32)" fill-rule="nonzero"></path>
                <path d="M454.937176,249.968065 C452.535765,251.785806 449.007765,252.839355 447.525412,255.161613 C446.837736,256.343352 446.532232,257.709159 446.650824,259.071613 C446.706764,260.643591 446.90021,262.207638 447.228941,263.745806 C447.317666,263.564708 447.41665,263.38883 447.525412,263.219032 C449.007765,260.911613 452.535765,259.850645 454.937176,258.025484 C459.035882,254.909355 459.384235,249.975484 458.168706,245.575806 C457.548898,247.327444 456.424366,248.855896 454.937176,249.968065 L454.937176,249.968065 Z" id="Path" fill="url(#linearGradient-33)" fill-rule="nonzero"></path>
                <path d="M485.688981,251.302306 C482.941388,258.132792 479.385679,260.82579 479.385679,260.82579 L477.409469,260.82579 L460.012943,261 L458,255.614005 L460.821058,244 L462.554834,244.108881 C463.600367,244.651176 464.734328,245.007449 465.904841,245.161401 C467.175786,245.161401 469.658905,245.096072 470.393556,245.422716 C470.497067,245.468879 470.612012,245.484022 470.724148,245.466268 C471.377988,245.400939 472.075906,244.435525 472.075906,244.435525 C472.075906,244.435525 488.436575,244.46456 485.688981,251.302306 Z" id="Path" fill="url(#linearGradient-34)" fill-rule="nonzero"></path>
                <path d="M485.611429,251.5675 C482.761905,258.625 479.074286,261.4075 479.074286,261.4075 L477.024762,261.4075 C478.091429,258.61 480.346667,252.865 481.230476,251.545 C482.114286,250.225 474.518095,247.165 470.099048,245.4775 C470.777143,245.41 471.500952,244.4125 471.500952,244.4125 C471.500952,244.4125 488.460952,244.5025 485.611429,251.5675 Z" id="Path" fill="url(#linearGradient-35)" fill-rule="nonzero"></path>
                <path d="M471.754921,256.11041 C471.754921,256.11041 481.301939,262.355701 484.973868,259.018973 C488.645798,255.682246 488.15376,249.304077 487.661721,248.292724 C487.169682,247.281371 483.255405,234.266658 483.255405,234.266658 L475.713261,215.02142 C475.713261,215.02142 471.138037,189.693298 464.308247,196.012409 C457.478458,202.331521 467.980177,217.494437 467.980177,217.494437 C467.980177,217.494437 472.291023,228.567646 472.070707,230.782288 C471.850391,232.99693 474.472149,241.117284 474.472149,241.117284 L471.754921,256.11041 Z" id="Path" fill="#EFB7B9" fill-rule="nonzero"></path>
                <path d="M452.917496,484.072803 C452.842322,484.392348 452.752113,484.727111 452.661905,485.069481 C451.744782,488.242113 450.023298,487.526939 444.96409,492.753793 C442.399592,495.529191 438.5275,496.639247 434.905813,495.637312 C434.336954,495.481783 433.958029,494.938487 434.003726,494.343913 L434.635187,485.868345 L434.9434,481.790334 C434.9434,481.790334 443.00205,484.072803 447.099031,481.174067 C447.234344,481.07516 447.369657,480.976253 447.497453,480.86213 C447.538419,480.833327 447.576221,480.800169 447.610214,480.763223 C448.696885,479.854729 450.23439,479.747019 451.434374,480.495319 C452.634358,481.24362 453.230648,482.681948 452.917496,484.072803 L452.917496,484.072803 Z" id="Path" fill="#444053" fill-rule="nonzero"></path>
                <path d="M427.917096,480.07549 C427.849415,480.395117 427.759175,480.722354 427.668934,481.064811 C426.75149,484.24586 425.029403,483.522894 419.96842,488.751078 C417.404845,491.530207 413.529586,492.641064 409.906614,491.63533 C409.335715,491.482434 408.955393,490.937187 409.00421,490.341602 L409.635893,481.863879 L409.944214,477.78483 C409.944214,477.78483 418.005691,480.06788 422.104109,477.168407 C422.242292,477.074287 422.37534,476.97267 422.502671,476.864 L422.615472,476.757458 C423.703967,475.852725 425.240488,475.748586 426.438478,476.49835 C427.636468,477.248115 428.230745,478.685819 427.917096,480.07549 L427.917096,480.07549 Z" id="Path" fill="#444053" fill-rule="nonzero"></path>
                <path d="M419.662404,482.156005 L420,486.457299 C415.28133,491.018601 409.657289,484.228649 408,482 C412.342711,484.139503 419.662404,482.156005 419.662404,482.156005 Z" id="Path" fill="#000000" fill-rule="nonzero" opacity="0.1"></path>
                <path d="M446.406514,483.587266 L446.992762,483.209511 C442.925211,489.296356 436.860072,486.48814 435,485.397639 L435.296743,481.577324 C435.296743,481.577324 443.055489,483.71556 447,481 C446.688782,482.489638 446.406514,483.587266 446.406514,483.587266 Z" id="Path" fill="#000000" fill-rule="nonzero" opacity="0.1"></path>
                <path d="M459.890204,363.690586 C456.688696,371.686433 453.487187,398.480315 453.093498,401.553927 C452.699809,404.627539 452.788946,417.345167 452.788946,417.345167 L451.986712,448.526742 C451.890147,452.424439 449.015475,462.224363 449.015475,462.224363 C449.015475,462.224363 448.02011,470.390966 448.517793,473.123066 C449.015475,475.855166 447.217876,482.922989 447.217876,482.922989 L447.819552,482.522083 C442.820445,490.117024 434.916953,484.422675 434.916953,484.422675 C434.916953,484.422675 433.015361,475.22411 435.013518,472.922613 C437.011675,470.621116 434.315277,463.523595 434.315277,463.523595 C434.315277,463.523595 435.31807,426.632822 435.615194,424.917836 C435.912317,423.202849 434.411843,418.020768 433.015361,413.722165 C431.618879,409.423563 433.817595,392.42218 434.315277,389.326295 C434.81296,386.23041 434.114719,372.124459 433.617036,369.229027 C433.119354,366.333595 434.211284,354.232175 434.211284,354.232175 C432.213127,348.233434 430.616087,353.630816 430.616087,353.630816 L429.011618,369.325542 L427.280873,401.553927 C427.280873,401.553927 427.481431,411.346426 425.980956,414.175041 C424.480481,417.003655 423.187993,424.138296 423.187993,424.138296 L423.886234,460.5168 C423.886234,460.5168 423.789668,468.119165 424.287351,471.014597 C424.785033,473.910029 423.187993,481.408456 423.187993,481.408456 C417.58721,494.601232 408.584361,480.309676 408.584361,480.309676 C408.584361,480.309676 408.985478,478.082421 409.780284,477.807726 C410.57509,477.533031 409.48316,472.105953 408.881484,471.207626 C408.279809,470.3093 408.985478,463.783442 408.985478,463.783442 C408.985478,463.783442 408.242668,457.881215 407.180451,450.783695 C406.118233,443.686174 406.385645,416.290933 407.083886,414.590795 C407.782126,412.890657 408.383802,404.991324 408.383802,404.991324 C408.383802,404.991324 407.581568,400.492269 408.584361,397.292445 C409.587153,394.092621 406.185086,380.595454 406.185086,379.095769 C406.185086,377.596083 404.88517,368.301004 404.179501,367.298739 C403.720165,366.437291 403.480345,365.475967 403.48126,364.499822 C403.48126,364.499822 403.384695,362.502716 401.683661,356.503975 C400.44317,352.123706 401.171123,343.48938 401.683661,339.138808 C401.861936,337.52776 402.010498,336.503222 402.010498,336.503222 C402.010498,336.503222 459.429662,327.208143 461.732371,329.309187 C462.267194,329.799183 462.631171,331.536443 462.831729,333.919606 C463.448261,341.89318 462.348903,357.521088 459.890204,363.690586 Z" id="Path" fill="#444053" fill-rule="nonzero"></path>
                <path d="M438,408.433485 C438.260833,408.433485 444.441122,409.153485 446.694428,408.523485 C448.947733,407.893485 438,408.433485 438,408.433485 Z" id="Path" fill="#000000" fill-rule="nonzero" opacity="0.1"></path>
                <path d="M438,412.000716 C438,412.000716 446.527131,413.583289 446.983941,412.765244 C447.440752,411.9472 438,412.000716 438,412.000716 Z" id="Path" fill="#000000" fill-rule="nonzero" opacity="0.1"></path>
                <path d="M412,410 C412,410 416.281979,410.24666 418.612499,411.635264 C420.943019,413.023868 412,410 412,410 Z" id="Path" fill="#000000" fill-rule="nonzero" opacity="0.1"></path>
                <path d="M395,298.13328 C395,298.13328 395.716146,312.024014 395.322266,314.482289 C395.322266,314.482289 396.869141,325.722233 398.151042,328.55073 C399.302621,330.82773 400.659785,332.98709 402.204427,335 L406,307.440664 L405.104818,298 L395,298.13328 Z" id="Path" fill="#EFB7B9" fill-rule="nonzero"></path>
                <circle id="Oval" fill="#EFB7B9" fill-rule="nonzero" cx="436.5" cy="219.5" r="15.5"></circle>
                <path d="M428.023792,226.531259 C428.023792,226.531259 423.249391,236.034446 418.467599,240.4893 C413.685807,244.944154 447.136179,250 447.934376,250 C448.732574,250 441.962679,229.761591 443.152584,227.335086 C444.342489,224.90858 428.023792,226.531259 428.023792,226.531259 Z" id="Path" fill="#EFB7B9" fill-rule="nonzero"></path>
                <path d="M462,333.927934 C461.249311,334.502871 460.421072,334.968946 459.539845,335.312339 C453.419096,337.703584 446.76482,341.027636 442.237245,339.695054 C437.70967,338.362472 428.158042,339.695054 428.158042,339.695054 C428.158042,339.695054 408.891764,338.103358 405.008868,339.028763 C403.705043,339.420812 402.318699,339.448974 401,339.110198 C401.177843,337.503696 401.326045,336.48205 401.326045,336.48205 C401.326045,336.48205 458.606171,327.213199 460.903304,329.308315 C461.436832,329.796928 461.799927,331.492269 462,333.927934 Z" id="Path" fill="#000000" fill-rule="nonzero" opacity="0.1"></path>
                <path d="M467,325.224029 C467,325.224029 466.462961,331.909001 460.287013,334.293308 C454.111066,336.677615 447.427915,340.027528 442.870543,338.697962 C438.313171,337.368395 428.698682,338.697962 428.698682,338.697962 C428.698682,338.697962 409.305609,337.093568 405.397159,338.029464 C401.48871,338.965361 399.504649,337.762066 400.705528,336.023973 C401.906406,334.28588 401.779606,328.596226 401.779606,326.159925 C401.779606,323.723624 400.437008,314.022987 401.645346,312.284894 C402.853683,310.546802 403.883008,303.884113 406.336978,302.814517 C407.066777,302.505014 407.615682,301.881874 407.828752,301.120991 C408.035917,300.321993 408.035917,299.483689 407.828752,298.68469 C407.828752,298.68469 407.425973,298.350442 406.859099,297.852783 C405.441913,296.590066 403.040155,294.250326 403.815878,293.485268 C404.882497,292.415672 403.815878,285.478157 403.815878,285.478157 C403.815878,285.478157 401.264943,280.145035 402.204761,278.146971 C403.14458,276.148907 394,265.608934 394,265.608934 C394,265.608934 394,247.470377 404.986921,246.66818 C404.986921,246.66818 412.751609,246.935579 413.691427,243.466822 C414.631246,239.998064 420.792275,238 420.792275,238 L434.852253,241.067659 C434.852253,241.067659 447.308573,243.73422 449.583529,242.137255 C451.858486,240.540289 453.574027,244.26159 453.574027,244.26159 C453.574027,244.26159 461.338715,244.662689 462.144273,246.259654 C462.949831,247.85662 459.600797,263.462316 459.600797,263.462316 C459.600797,263.462316 453.976806,262.934946 454.379585,268.936565 C454.782364,274.938184 452.231429,282.536769 452.231429,282.536769 C452.231429,282.536769 451.82865,286.941423 452.09717,287.869891 C452.365689,288.79836 451.56759,292.088851 451.448248,292.608794 L451.448248,292.675643 C451.448248,292.675643 450.896291,294.903967 451.619802,295.698736 C451.68431,295.772769 451.762895,295.833355 451.851027,295.877002 C452.925105,296.404372 454.536222,301.611223 454.536222,301.611223 C455.370511,302.619714 455.798526,303.901049 455.7371,305.206252 C455.602841,307.345443 456.408399,312.411166 459.891693,315.345126 C463.374987,318.279086 467,325.224029 467,325.224029 Z" id="Path" fill="#3C9DCF" fill-rule="nonzero"></path>
                <path d="M407,293.956993 L407,294.52504 L406.752108,300.803452 C406.752108,300.803452 398.489028,301.476139 393.981893,300.332571 C389.474759,299.189003 391.367755,294.233542 391.540529,293.194615 C391.675743,292.252853 392.892669,284.397364 392.892669,283.126733 C392.892669,281.856102 392.892669,276.616618 392.689848,274.202419 C392.487027,271.78822 393.696441,265.076299 393.696441,265.076299 L394.575333,264 L404.085386,267.625035 L407,293.956993 Z" id="Path" fill="#3C9DCF" fill-rule="nonzero"></path>
                <path d="M407,294.363597 L406.752108,300.798551 C406.752108,300.798551 398.489028,301.48801 393.981893,300.315929 C389.474759,299.143849 391.367755,294.064832 391.540529,293 L407,294.363597 Z" id="Path" fill="#000000" fill-rule="nonzero" opacity="0.1"></path>
                <path d="M407.97354,300 C408.181535,299.245127 408.181535,298.453119 407.97354,297.698246 C407.97354,297.698246 407.569146,297.382456 407,296.912281 C414.129306,295.985965 442.324513,292.357895 451.827758,292 L451.827758,292.063158 C451.827758,292.063158 451.27359,294.168421 452,294.919298 L407.97354,300 Z" id="Path" fill="#000000" fill-rule="nonzero" opacity="0.1"></path>
                <path d="M451.78526,306 C451.78526,306 453.543111,315.602686 447,319 C447,319 450.711018,314.235031 451.78526,306 Z" id="Path" fill="#000000" fill-rule="nonzero" opacity="0.1"></path>
                <path d="M410,319.467361 C410,319.467361 425.621933,316.643737 428.701685,318.830276 C431.781438,321.016815 410,319.467361 410,319.467361 Z" id="Path" fill="#000000" fill-rule="nonzero" opacity="0.1"></path>
                <path d="M446.530222,258 C446.530222,258 443.638774,267.569484 445.805122,269.765641 C447.971471,271.961798 446.530222,258 446.530222,258 Z" id="Path" fill="#000000" fill-rule="nonzero" opacity="0.1"></path>
                <path d="M402.06173,250 C402.06173,250 403.659627,253.551384 402.68491,257.239637 C401.710193,260.92789 402.06173,250 402.06173,250 Z" id="Path" fill="#000000" fill-rule="nonzero" opacity="0.1"></path>
                <path d="M397,275 C397,275 399.636664,276.423706 399.975663,278.528974 C400.314663,280.634242 397,275 397,275 Z" id="Path" fill="#000000" fill-rule="nonzero" opacity="0.1"></path>
                <path d="M435,354.586735 C435,354.586735 451.672982,356.526786 455,352 C455,352.03449 439.964002,355.405867 435,354.586735 Z" id="Path" fill="#000000" fill-rule="nonzero" opacity="0.1"></path>
                <path d="M407,354 C407,354 424.532178,357.8919 428,354.817509 C428,354.845458 412.933168,355.886558 407,354 Z" id="Path" fill="#000000" fill-rule="nonzero" opacity="0.1"></path>
                <path d="M437,360.3272 C437,360.3272 444.163586,360.3272 447.484358,360.5972 C450.80513,360.8672 437,360.3272 437,360.3272 Z" id="Path" fill="#000000" fill-rule="nonzero" opacity="0.1"></path>
                <path d="M408,363 C408,363 411.804997,366.566448 416.096405,365.922145 C420.387814,365.277841 408,363 408,363 Z" id="Path" fill="#000000" fill-rule="nonzero" opacity="0.1"></path>
                <path d="M415.568154,195.91983 C414.430638,197.678103 414.393219,199.712038 414.071422,201.66402 C413.256991,206.43812 411.007752,210.854206 407.620504,214.32955 C404.402529,217.741793 399.979684,220.833672 399.141513,224.998397 C398.355729,228.954512 401.03488,232.761622 402.441809,236.613433 C406.183641,246.768208 400.945076,257.422154 399.448344,267.904743 C399.029258,270.802914 399.530664,274.505719 403.115339,275.466809 C404.237888,275.764822 405.517595,275.72757 406.527889,276.211841 C407.874948,276.852567 408.28655,278.193624 408.533511,279.393124 C409.435044,283.699841 409.7472,288.108183 409.461485,292.498222 C409.296844,294.964275 409.117237,297.795394 411.45214,299.494065 C412.644847,300.226166 413.956687,300.745537 415.328677,301.028829 C419.010639,302.019721 423.770249,302.802004 426.254826,300.492407 C427.295055,299.523866 427.684205,298.153009 428.986363,297.385627 C430.932115,296.238279 433.693587,297.013111 436.140745,297.132316 C440.869379,297.327816 445.329537,294.943485 447.777841,290.911306 C449.761012,287.350057 449.588888,283.311988 448.855489,279.482527 C448.12209,275.653067 446.849867,271.868309 446.760063,267.994147 C446.642645,266.639884 446.945664,265.282379 447.628168,264.105084 C449.124901,261.795487 452.604804,260.744993 454.992093,258.934567 C459.48229,255.537225 459.437389,249.994193 457.820917,245.300497 C456.204446,240.6068 453.278334,236.181315 452.919118,231.360963 C452.760743,230.196896 452.992206,229.013315 453.57768,227.993422 C454.385352,227.048701 455.319566,226.218925 456.354119,225.527369 C462.87239,220.05139 462.101573,211.051413 456.713335,204.897455 C450.741372,198.043169 423.725347,183.343703 415.568154,195.91983 Z" id="Path" fill="#E3787D" fill-rule="nonzero"></path>
                <path d="M402.9725,241.445528 C403.608863,237.42886 403.253825,233.320042 401.9375,229.467561 C401.2325,227.536585 400.1975,225.620407 399.44,223.689431 C399.068158,224.389152 398.795605,225.135982 398.63,225.908943 C397.8425,229.83748 400.5275,233.618049 401.9375,237.443008 C402.41682,238.739834 402.763543,240.080672 402.9725,241.445528 L402.9725,241.445528 Z" id="Path" fill-opacity="0.82" fill="#000000" fill-rule="nonzero" opacity="0.0731491815"></path>
                <path d="M408.9875,284.962764 C409.273838,280.603329 408.961001,276.225719 408.0575,271.949024 C407.81,270.757886 407.3975,269.426179 406.0475,268.789919 C405.035,268.309024 403.7525,268.346016 402.6275,268.050081 C401.238093,267.711534 400.081093,266.766334 399.485,265.482846 C399.2825,266.489024 399.1025,267.502602 398.9525,268.50878 C398.5325,271.386748 399.035,275.06374 402.6275,276.01813 C403.7525,276.314065 405.035,276.277073 406.0475,276.757967 C407.3975,277.401626 407.81,278.725935 408.0575,279.924472 C408.473753,281.907188 408.764316,283.913572 408.9275,285.931951 C408.9425,285.606423 408.965,285.280894 408.9875,284.962764 Z" id="Path" fill-opacity="0.82" fill="#000000" fill-rule="nonzero" opacity="0.0731491815"></path>
                <path d="M447.3875,283.386911 C444.935009,287.392182 440.464333,289.760305 435.725,289.564553 C433.2725,289.446179 430.475,288.676748 428.555,289.816098 C427.2575,290.555935 426.86,291.939431 425.8175,292.90122 C423.3275,295.194715 418.5575,294.417886 414.8675,293.433902 C413.493044,293.154666 412.180022,292.636073 410.99,291.902439 C409.973167,291.164244 409.285172,290.066704 409.07,288.839512 C409.07,290.200813 409.07,291.569512 408.9875,292.930813 C408.8225,295.379675 408.6425,298.191057 410.99,299.877886 C412.182322,300.60545 413.49467,301.121273 414.8675,301.401951 C418.5575,302.385935 423.3275,303.162764 425.8175,300.876667 C426.86,299.90748 427.2575,298.546179 428.555,297.784146 C430.505,296.644797 433.2725,297.414228 435.725,297.532602 C440.464333,297.728354 444.935009,295.360231 447.3875,291.354959 C449.3,287.959106 449.2175,284.11935 448.55,280.449756 C448.294729,281.474853 447.903877,282.462375 447.3875,283.386911 Z" id="Path" fill-opacity="0.82" fill="#000000" fill-rule="nonzero" opacity="0.0731491815"></path>
                <path d="M455.9225,218.399593 C454.899505,219.104612 453.982901,219.949015 453.2,220.907642 C452.613248,221.920425 452.381279,223.095755 452.54,224.251707 C452.672138,225.706782 452.984463,227.140412 453.47,228.520569 C454.218211,227.729619 455.039233,227.008885 455.9225,226.367642 C460.34,222.668455 461.4125,217.41561 459.98,212.495691 C459.226468,214.805346 457.818523,216.85399 455.9225,218.399593 Z" id="Path" fill-opacity="0.82" fill="#000000" fill-rule="nonzero" opacity="0.0731491815"></path>
                <path d="M454.6175,251.633089 C452.225,253.430894 448.7375,254.474065 447.2375,256.760163 C446.556068,257.932932 446.252622,259.282516 446.3675,260.629512 C446.425307,262.184318 446.618519,263.731342 446.945,265.253496 C447.027697,265.073127 447.125538,264.899895 447.2375,264.73561 C448.7375,262.442114 452.225,261.398943 454.6175,259.601138 C458.6975,256.516016 459.0425,251.640488 457.835,247.290244 C457.216808,249.017458 456.098018,250.527554 454.6175,251.633089 Z" id="Path" fill-opacity="0.82" fill="#000000" fill-rule="nonzero" opacity="0.0731491815"></path>
                <path d="M484.690613,253.31914 C481.942462,260.148387 478.38032,262.824516 478.38032,262.824516 L476.401352,262.824516 L459.008839,263 L457,257.618495 L459.815362,246 L461.55536,246.065806 C462.600937,246.607499 463.736084,246.963952 464.908403,247.11871 C466.185398,247.11871 468.642305,247.052903 469.389085,247.381935 C469.49251,247.425508 469.606104,247.440675 469.717668,247.425806 C470.374835,247.36 471.061873,246.394839 471.061873,246.394839 C471.061873,246.394839 487.431297,246.489892 484.690613,253.31914 Z" id="Path" fill="#3C9DCF" fill-rule="nonzero"></path>
                <path d="M484.695787,253.138331 C481.995812,260.223561 478.496117,263 478.496117,263 L476.551841,263 C477.571669,260.193217 479.706703,254.43552 480.543109,253.138331 C481.379514,251.841142 474.182026,248.746095 470,247.069612 C470.645646,247.001339 471.32064,246 471.32064,246 C471.32064,246 487.388425,246.053101 484.695787,253.138331 Z" id="Path" fill="#000000" fill-rule="nonzero" opacity="0.1"></path>
                <g id="Oval">
                    <use fill="black" fill-opacity="1" filter="url(#filter-38)" xlink:href="#path-37"></use>
                    <use fill="url(#linearGradient-36)" fill-rule="evenodd" xlink:href="#path-37"></use>
                </g>
                <mask id="mask-40" fill="white">
                    <use xlink:href="#path-39"></use>
                </mask>
                <use id="Combined-Shape" fill="#000000" fill-rule="nonzero" xlink:href="#path-39"></use>
                <rect id="Rectangle" stroke="#979797" fill="url(#linearGradient-41)" mask="url(#mask-40)" x="82.5" y="404.5" width="145" height="133"></rect>
            </g>
        </g>
    </g>
</svg>