<?xml version="1.0" encoding="UTF-8"?>
<svg width="688px" height="549px" viewBox="0 0 688 549" version="1.1" xmlns="http://www.w3.org/2000/svg" xmlns:xlink="http://www.w3.org/1999/xlink">
    <!-- Generator: Sketch 62 (91390) - https://sketch.com -->
    <title>Group 32</title>
    <desc>Created with Sketch.</desc>
    <defs>
        <path d="M106.424798,0.852035337 C165.201591,0.852035337 212.849596,48.6056448 212.849596,107.512707 C212.849596,108.904597 212.822994,110.29026 212.770271,111.669213 L212.849596,111.668318 L212.849596,463.510016 L0,463.510016 L0,111.668318 L0.0793252221,111.669213 C0.0266023285,110.29026 0,108.904597 0,107.512707 C0,48.6056448 47.648005,0.852035337 106.424798,0.852035337 Z" id="path-1"></path>
        <linearGradient x1="14.4215485%" y1="15.8771693%" x2="97.2401704%" y2="104.648685%" id="linearGradient-3">
            <stop stop-color="#FFFFFF" offset="0%"></stop>
            <stop stop-color="#F8F8F8" offset="100%"></stop>
        </linearGradient>
        <circle id="path-4" cx="98.5" cy="98.5" r="98.5"></circle>
        <filter x="-3.6%" y="-2.5%" width="107.1%" height="107.1%" filterUnits="objectBoundingBox" id="filter-5">
            <feOffset dx="0" dy="2" in="SourceAlpha" result="shadowOffsetOuter1"></feOffset>
            <feGaussianBlur stdDeviation="2" in="shadowOffsetOuter1" result="shadowBlurOuter1"></feGaussianBlur>
            <feColorMatrix values="0 0 0 0 0   0 0 0 0 0   0 0 0 0 0  0 0 0 0.5 0" type="matrix" in="shadowBlurOuter1"></feColorMatrix>
        </filter>
        <path d="M66.483871,43 C76.2332903,43 84.6098065,48.9739355 88.155871,57.4516129 L88.155871,57.4516129 L97.1935484,57.4516129 C97.1935484,55.4590968 98.8139355,53.8387097 100.806452,53.8387097 L100.806452,53.8387097 L104.419355,53.8387097 C106.411871,53.8387097 108.032258,55.4590968 108.032258,57.4516129 L108.032258,57.4516129 L118.870968,57.4516129 C118.870968,55.4590968 120.491355,53.8387097 122.483871,53.8387097 L122.483871,53.8387097 L126.096774,53.8387097 C128.08929,53.8387097 129.709677,55.4590968 129.709677,57.4516129 L129.709677,57.4516129 L138.741935,57.4516129 C145.713032,57.4516129 151.387097,63.1256774 151.387097,70.0967742 L151.387097,70.0967742 L151.387097,93.5806452 C153.379613,93.5806452 155,95.2010323 155,97.1935484 L155,97.1935484 L155,100.806452 C155,102.798968 153.379613,104.419355 151.387097,104.419355 L151.387097,104.419355 L151.387097,133.322581 C153.379613,133.322581 155,134.942968 155,136.935484 L155,136.935484 L155,140.548387 C155,142.540903 153.379613,144.16129 151.387097,144.16129 L151.387097,144.16129 L151.387097,155 L133.322581,155 L133.322581,144.16129 C131.330065,144.16129 129.709677,142.540903 129.709677,140.548387 L129.709677,140.548387 L129.709677,136.935484 C129.709677,134.942968 131.330065,133.322581 133.322581,133.322581 L133.322581,133.322581 L133.322581,126.096774 L126.096774,126.096774 C126.096774,128.08929 124.476387,129.709677 122.483871,129.709677 L122.483871,129.709677 L118.870968,129.709677 C116.878452,129.709677 115.258065,128.08929 115.258065,126.096774 L115.258065,126.096774 L82.7419355,126.096774 C82.7419355,128.08929 81.1215484,129.709677 79.1290323,129.709677 L79.1290323,129.709677 L75.516129,129.709677 C73.5236129,129.709677 71.9032258,128.08929 71.9032258,126.096774 L71.9032258,126.096774 L68.2903226,126.096774 L68.2903226,133.322581 C70.2828387,133.322581 71.9032258,134.942968 71.9032258,136.935484 L71.9032258,136.935484 L71.9032258,140.548387 C71.9032258,142.540903 70.2828387,144.16129 68.2903226,144.16129 L68.2903226,144.16129 L68.2903226,155 L50.2258065,155 L50.2258065,144.16129 C48.2332903,144.16129 46.6129032,142.540903 46.6129032,140.548387 L46.6129032,140.548387 L46.6129032,136.935484 C46.6129032,134.942968 48.2332903,133.322581 50.2258065,133.322581 L50.2258065,133.322581 L50.2258065,120.677419 C50.2258065,113.706323 55.899871,108.032258 62.8709677,108.032258 L62.8709677,108.032258 L71.9032258,108.032258 C71.9032258,106.039742 73.5236129,104.419355 75.516129,104.419355 L75.516129,104.419355 L79.1290323,104.419355 C81.1215484,104.419355 82.7419355,106.039742 82.7419355,108.032258 L82.7419355,108.032258 L91.7741935,108.032258 L91.7741935,100.806452 L89.9677419,100.806452 C86.979871,100.806452 84.5483871,98.3749677 84.5483871,95.3870968 C84.5483871,92.3992258 86.979871,89.9677419 89.9677419,89.9677419 L89.9677419,89.9677419 L91.7741935,89.9677419 C91.7741935,85.9827097 95.0149677,82.7419355 99,82.7419355 C102.985032,82.7419355 106.225806,85.9827097 106.225806,89.9677419 L106.225806,89.9677419 L108.032258,89.9677419 C111.020129,89.9677419 113.451613,92.3992258 113.451613,95.3870968 C113.451613,98.3749677 111.020129,100.806452 108.032258,100.806452 L108.032258,100.806452 L106.225806,100.806452 L106.225806,108.032258 L115.258065,108.032258 C115.258065,106.039742 116.878452,104.419355 118.870968,104.419355 L118.870968,104.419355 L122.483871,104.419355 C124.476387,104.419355 126.096774,106.039742 126.096774,108.032258 L126.096774,108.032258 L133.322581,108.032258 L133.322581,104.419355 C131.330065,104.419355 129.709677,102.798968 129.709677,100.806452 L129.709677,100.806452 L129.709677,97.1935484 C129.709677,95.2010323 131.330065,93.5806452 133.322581,93.5806452 L133.322581,93.5806452 L133.322581,75.516129 L129.709677,75.516129 C129.709677,77.5086452 128.08929,79.1290323 126.096774,79.1290323 L126.096774,79.1290323 L122.483871,79.1290323 C120.491355,79.1290323 118.870968,77.5086452 118.870968,75.516129 L118.870968,75.516129 L108.032258,75.516129 C108.032258,77.5086452 106.411871,79.1290323 104.419355,79.1290323 L104.419355,79.1290323 L100.806452,79.1290323 C98.8139355,79.1290323 97.1935484,77.5086452 97.1935484,75.516129 L97.1935484,75.516129 L88.155871,75.516129 C84.6098065,83.9938065 76.2332903,89.9677419 66.483871,89.9677419 C53.5352258,89.9677419 43,79.4325161 43,66.483871 C43,53.5352258 53.5352258,43 66.483871,43 Z M64.6774194,144.16129 L53.8387097,144.16129 L53.8387097,151.387097 L64.6774194,151.387097 L64.6774194,144.16129 Z M147.774194,144.16129 L136.935484,144.16129 L136.935484,151.387097 L147.774194,151.387097 L147.774194,144.16129 Z M151.387097,136.935484 L133.322581,136.935484 L133.322581,140.548387 L151.39071,140.548387 L151.387097,136.935484 Z M68.2903226,136.935484 L50.2258065,136.935484 L50.2258065,140.548387 L68.2939355,140.548387 L68.2903226,136.935484 Z M147.774194,104.419355 L136.935484,104.419355 L136.935484,133.322581 L147.774194,133.322581 L147.774194,104.419355 Z M71.9032258,111.645161 L62.8709677,111.645161 C57.8905806,111.645161 53.8387097,115.697032 53.8387097,120.677419 L53.8387097,120.677419 L53.8387097,133.322581 L64.6774194,133.322581 L64.6774194,126.096774 C64.6774194,124.104258 66.2978065,122.483871 68.2903226,122.483871 L68.2903226,122.483871 L71.9032258,122.483871 L71.9032258,111.645161 Z M144.16129,126.096774 L144.16129,129.709677 L140.548387,129.709677 L140.548387,126.096774 L144.16129,126.096774 Z M79.1290323,108.032258 L75.516129,108.032258 L75.516129,126.096774 L79.1326452,126.096774 L79.1290323,108.032258 Z M122.483871,108.032258 L118.870968,108.032258 L118.870968,126.096774 L122.487484,126.096774 L122.483871,108.032258 Z M115.258065,111.645161 L82.7419355,111.645161 L82.7419355,122.483871 L115.258065,122.483871 L115.258065,111.645161 Z M133.322581,111.645161 L126.096774,111.645161 L126.096774,122.483871 L133.322581,122.483871 L133.322581,111.645161 Z M144.16129,118.870968 L144.16129,122.483871 L140.548387,122.483871 L140.548387,118.870968 L144.16129,118.870968 Z M97.1935484,115.258065 L97.1935484,118.870968 L93.5806452,118.870968 L93.5806452,115.258065 L97.1935484,115.258065 Z M89.9677419,115.258065 L89.9677419,118.870968 L86.3548387,118.870968 L86.3548387,115.258065 L89.9677419,115.258065 Z M104.419355,115.258065 L104.419355,118.870968 L100.806452,118.870968 L100.806452,115.258065 L104.419355,115.258065 Z M144.16129,111.645161 L144.16129,115.258065 L140.548387,115.258065 L140.548387,111.645161 L144.16129,111.645161 Z M102.612903,100.806452 L95.3870968,100.806452 L95.3870968,108.032258 L102.612903,108.032258 L102.612903,100.806452 Z M151.387097,97.1935484 L133.322581,97.1935484 L133.322581,100.806452 L151.39071,100.806452 L151.387097,97.1935484 Z M108.032258,93.5806452 L89.9677419,93.5806452 C88.9705806,93.5806452 88.1612903,94.3899355 88.1612903,95.3870968 C88.1612903,96.3842581 88.9705806,97.1935484 89.9677419,97.1935484 L89.9677419,97.1935484 L108.032258,97.1935484 C109.029419,97.1935484 109.83871,96.3842581 109.83871,95.3870968 C109.83871,94.3899355 109.029419,93.5806452 108.032258,93.5806452 L108.032258,93.5806452 Z M138.741935,61.0645161 L129.709677,61.0645161 L129.709677,71.9032258 L133.322581,71.9032258 C135.315097,71.9032258 136.935484,73.5236129 136.935484,75.516129 L136.935484,75.516129 L136.935484,93.5806452 L147.774194,93.5806452 L147.774194,70.0967742 C147.774194,65.1163871 143.722323,61.0645161 138.741935,61.0645161 L138.741935,61.0645161 Z M144.16129,86.3548387 L144.16129,89.9677419 L140.548387,89.9677419 L140.548387,86.3548387 L144.16129,86.3548387 Z M99,86.3548387 C97.0074839,86.3548387 95.3870968,87.9752258 95.3870968,89.9677419 L95.3870968,89.9677419 L102.612903,89.9677419 C102.612903,87.9752258 100.992516,86.3548387 99,86.3548387 Z M66.483871,46.6129032 C55.5277419,46.6129032 46.6129032,55.5277419 46.6129032,66.483871 C46.6129032,77.44 55.5277419,86.3548387 66.483871,86.3548387 C77.44,86.3548387 86.3548387,77.44 86.3548387,66.483871 C86.3548387,55.5277419 77.44,46.6129032 66.483871,46.6129032 Z M144.16129,79.1290323 L144.16129,82.7419355 L140.548387,82.7419355 L140.548387,79.1290323 L144.16129,79.1290323 Z M66.483871,50.2258065 C68.2885161,50.2258065 69.936,51.288 70.6820645,52.9300645 L70.6820645,52.9300645 L76.5674839,67.8350968 C77.067871,69.1086452 77.3225806,70.4472258 77.3225806,71.8147097 C77.3225806,77.8807742 72.4614194,82.7419355 66.483871,82.7419355 C60.5063226,82.7419355 55.6451613,77.8807742 55.6451613,71.9032258 L55.6451613,71.9032258 L55.6451613,69.7535484 L62.2856774,52.9300645 C63.0317419,51.288 64.6792258,50.2258065 66.483871,50.2258065 Z M67.3581935,54.3390968 C67.1125161,53.8043871 65.9310968,53.7086452 65.5896774,54.3914839 L65.5896774,54.3914839 L59.2580645,70.44 L59.2580645,71.9032258 C59.2580645,75.8882581 62.4988387,79.1290323 66.483871,79.1290323 C70.4689032,79.1290323 73.7096774,75.8882581 73.7096774,71.9032258 C73.7096774,70.9024516 73.539871,70.0100645 73.2056774,69.1592258 L73.2056774,69.1592258 Z M144.16129,71.9032258 L144.16129,75.516129 L140.548387,75.516129 L140.548387,71.9032258 L144.16129,71.9032258 Z M104.419355,57.4516129 L100.806452,57.4516129 L100.806452,75.516129 L104.422968,75.516129 L104.419355,57.4516129 Z M126.096774,57.4516129 L122.483871,57.4516129 L122.483871,75.516129 L126.100387,75.516129 L126.096774,57.4516129 Z M97.1935484,61.0645161 L89.312,61.0645161 C89.7256774,62.8077419 89.9677419,64.616 89.9677419,66.483871 C89.9677419,68.3517419 89.7256774,70.16 89.312,71.9032258 L89.312,71.9032258 L97.1935484,71.9032258 L97.1935484,61.0645161 Z M118.870968,61.0645161 L108.032258,61.0645161 L108.032258,71.9032258 L118.870968,71.9032258 L118.870968,61.0645161 Z" id="path-6"></path>
        <linearGradient x1="9.63362412%" y1="38.8279655%" x2="92.4740363%" y2="75.7326273%" id="linearGradient-8">
            <stop stop-color="#3C9DCF" offset="0%"></stop>
            <stop stop-color="#03306C" offset="100%"></stop>
        </linearGradient>
    </defs>
    <g id="Page-2" stroke="none" stroke-width="1" fill="none" fill-rule="evenodd">
        <g id="Artboard" transform="translate(0.000000, -870.000000)">
            <g id="Group-32" transform="translate(0.000000, 870.000000)">
                <g id="Group">
                    <path d="M113.02495,543 C35.5249501,527 -19.4750499,520.5 6.52495012,391 C32.5249501,261.5 82.0249501,231 220.52495,222 C359.02495,213 340.213121,41.3401981 411.52495,20 C482.836779,-1.34019812 509.02495,50 578.02495,111 C647.02495,172 695.02495,238 686.52495,311 C678.02495,384 661.02495,452.5 556.52495,494 C452.02495,535.5 190.52495,559 113.02495,543 Z" id="Path-5" fill="#B8E1F5" fill-rule="nonzero" opacity="0.4"></path>
                    <g id="Group-8" transform="translate(285.524950, 0.000000)">
                        <path d="M127.146067,50 L127.149187,61.1580016 C185.675974,63.2955643 232.737595,110.469627 234.868467,169.135384 L234.94382,169.135294 L234.94382,213.464706 L246,213.464706 L246,221.776471 L234.94382,221.776471 L234.94382,351.994118 L246,351.994118 L246,360.305882 L234.94382,360.305882 L234.94382,490.523529 L246,490.523529 L246,498.835294 L234.94382,498.835294 L234.94382,521 L229.41573,521 L229.41573,177.447059 L229.33634,177.449821 C229.389106,176.070162 229.41573,174.683786 229.41573,173.291176 C229.41573,114.380262 181.771785,66.6235294 123,66.6235294 C64.228215,66.6235294 16.5842697,114.380262 16.5842697,173.291176 L16.6041774,175.375355 L16.6636596,177.449821 L16.5842697,177.447059 L16.5842697,521 L11.0561798,521 L11.0561798,498.835294 L0,498.835294 L0,490.523529 L11.0561798,490.523529 L11.0561798,360.305882 L0,360.305882 L0,351.994118 L11.0561798,351.994118 L11.0561798,221.776471 L0,221.776471 L0,213.464706 L11.0561798,213.464706 L11.0561798,169.135294 L11.1315329,169.135384 C13.2624384,110.468703 60.3255079,63.2940787 118.853578,61.1579007 L118.853933,50 L127.146067,50 Z" id="Path" fill="#9BAEBC"></path>
                        <path d="M126.640449,20 L126.643189,29.7972697 C178.032563,31.674154 219.354962,73.0952821 221.225971,124.606678 L221.292135,124.6066 L221.292135,163.529986 L231,163.529986 L231,170.828121 L221.292135,170.828121 L221.292135,285.165567 L231,285.165567 L231,292.463702 L221.292135,292.463702 L221.292135,406.801148 L231,406.801148 L231,414.099283 L221.292135,414.099283 L221.292135,433.560976 L216.438202,433.560976 L216.438202,131.904735 L216.368494,131.90716 C216.414825,130.695752 216.438202,129.478446 216.438202,128.255667 C216.438202,76.5290103 174.604494,34.5962697 123,34.5962697 C71.3955059,34.5962697 29.5617978,76.5290103 29.5617978,128.255667 L29.5792777,130.085678 L29.631506,131.90716 L29.5617978,131.904735 L29.5617978,433.560976 L24.7078652,433.560976 L24.7078652,414.099283 L15,414.099283 L15,406.801148 L24.7078652,406.801148 L24.7078652,292.463702 L15,292.463702 L15,285.165567 L24.7078652,285.165567 L24.7078652,170.828121 L15,170.828121 L15,163.529986 L24.7078652,163.529986 L24.7078652,124.6066 L24.7740289,124.606678 C26.6450679,73.094471 67.9687386,31.6728496 119.359239,29.7971811 L119.359551,20 L126.640449,20 Z" id="Path" fill="#9BAEBC"></path>
                        <path d="M126.134831,-5.68434189e-14 L126.13719,8.43653782 C170.389151,10.0527438 205.972328,45.7209374 207.583475,90.0779731 L207.640449,90.0779053 L207.640449,123.595265 L216,123.595265 L216,129.87977 L207.640449,129.87977 L207.640449,228.337016 L216,228.337016 L216,234.621521 L207.640449,234.621521 L207.640449,333.078766 L216,333.078766 L216,339.363271 L207.640449,339.363271 L207.640449,356.121951 L203.460674,356.121951 L203.460674,96.3624103 L203.400648,96.3644992 C203.440544,95.3213419 203.460674,94.2731063 203.460674,93.2201578 C203.460674,48.6777588 167.437203,12.56901 123,12.56901 C78.5627967,12.56901 42.5393258,48.6777588 42.5393258,93.2201578 L42.5543781,94.7960002 L42.5993523,96.3644992 L42.5393258,96.3624103 L42.5393258,356.121951 L38.3595506,356.121951 L38.3595506,339.363271 L30,339.363271 L30,333.078766 L38.3595506,333.078766 L38.3595506,234.621521 L30,234.621521 L30,228.337016 L38.3595506,228.337016 L38.3595506,129.87977 L30,129.87977 L30,123.595265 L38.3595506,123.595265 L38.3595506,90.0779053 L38.4165249,90.0779731 C40.0276973,45.7202389 75.6119694,10.0516205 119.8649,8.4364615 L119.865169,-5.68434189e-14 L126.134831,-5.68434189e-14 Z" id="Path" fill="#9BAEBC"></path>
                        <path d="M123,0 C162.754636,0 196.683257,28.5650543 209.988414,68.7496947 L210.5,68.75 L234.047627,118.647248 C236.068572,122.309891 237.85492,126.088165 239.389837,129.96749 L242,135.5 L241.384835,135.500144 C244.391387,144.719805 246,154.447247 246,164.5 C246,166.007998 245.963802,167.508676 245.892118,169.001418 L246,169 L246,521 L229.849,521 L229.849596,184.816283 L229.770271,184.817177 C229.822994,183.438224 229.849596,182.052562 229.849596,180.660672 C229.849596,121.753609 182.201591,74 123.424798,74 C64.648005,74 17,121.753609 17,180.660672 C17,182.052562 17.0266023,183.438224 17.0793252,184.817177 L17.0793252,184.817177 L17,184.816283 L17,521 L0,521 L0,169 L0.107882392,169.001418 C0.0361978948,167.508676 0,166.007998 0,164.5 C0,154.447247 1.60861348,144.719805 4.61512285,135.500126 L4.5,135.5 L4.88527633,134.684226 C7.29151084,127.525723 10.5422372,120.678611 14.5378483,114.229136 L36,68.75 L36.0111197,68.7494907 C49.3167426,28.5650543 83.2453642,0 123,0 Z" id="Combined-Shape" fill="#00A0F3" opacity="0.25" style="mix-blend-mode: multiply;"></path>
                        <g id="Group-5" style="mix-blend-mode: multiply;" transform="translate(18.000000, 79.000000)">
                            <mask id="mask-2" fill="white">
                                <use xlink:href="#path-1"></use>
                            </mask>
                            <use id="Combined-Shape" fill="#FFFFFF" xlink:href="#path-1"></use>
                            <g id="Group-3" mask="url(#mask-2)" fill="#D8D8D8" opacity="0.617931548">
                                <g transform="translate(5.528561, -13.000000)" id="Rectangle">
                                    <rect x="0" y="0" width="30.4070851" height="457.117166"></rect>
                                    <rect x="33.1713656" y="0" width="33.1713656" height="457.117166"></rect>
                                    <rect x="69.1070116" y="0" width="30.4070851" height="457.117166"></rect>
                                    <rect x="102.278377" y="0" width="30.4070851" height="457.117166"></rect>
                                    <rect x="135.449743" y="0" width="33.1713656" height="457.117166"></rect>
                                    <rect x="171.385389" y="0" width="30.4070851" height="457.117166"></rect>
                                </g>
                            </g>
                        </g>
                    </g>
                    <g id="Group-13" transform="translate(457.524950, 330.000000)">
                        <g id="Oval">
                            <use fill="black" fill-opacity="1" filter="url(#filter-5)" xlink:href="#path-4"></use>
                            <use fill="url(#linearGradient-3)" fill-rule="evenodd" xlink:href="#path-4"></use>
                        </g>
                        <mask id="mask-7" fill="white">
                            <use xlink:href="#path-6"></use>
                        </mask>
                        <use id="Combined-Shape" fill="#000000" fill-rule="nonzero" xlink:href="#path-6"></use>
                        <rect id="Rectangle" stroke="#979797" fill="url(#linearGradient-8)" mask="url(#mask-7)" x="11.5" y="30.5" width="152" height="138"></rect>
                    </g>
                    <g id="Group-17" transform="translate(153.524950, 161.000000)" fill-rule="nonzero">
                        <path d="M93,184.058537 L88.951856,279.665296 L86.4217676,322.663059 C86.4217676,322.663059 91.9879973,331.768458 83.8916791,332.780163 C75.795361,333.791868 60.6147697,331.262599 62.6388356,326.204032 C64.6629015,321.145465 66.1809631,321.145459 66.1809631,321.145459 L68.205029,272.583307 L53.0244317,212.892328 L33.7956783,277.136034 L29.7475404,323.168881 C29.7475404,323.168881 35.3137641,330.25087 29.7475404,331.768428 C24.1813168,333.285985 9.50676013,333.285991 10.0127645,328.733307 C10.5187689,324.180622 12.5428711,324.180592 12.5428711,324.180592 L10.0127645,190.634686 L17.6030662,179 L93,184.058537 Z" id="Path" fill="#03306C"></path>
                        <path d="M81.8787577,329 L83.9192823,341.671243 C83.9192823,341.671243 95.6523247,366 79.3280669,366 C63.0038091,366 67.5950245,356.369875 67.5950245,356.369875 L69.1254195,329 L81.8787577,329 Z" id="Path" fill="#03306C"></path>
                        <path d="M13.1212507,329 L11.0807263,341.671243 C11.0807263,341.671243 -0.652327139,366 15.671923,366 C31.9961731,366 27.4049825,356.369875 27.4049825,356.369875 L25.8745755,329 L13.1212507,329 Z" id="Path" fill="#03306C"></path>
                        <path d="M64.8469363,41.5000553 C64.8469363,41.5000553 69.9177485,59.5000613 70.9319012,59.5000613 C71.946054,59.5000613 61.2973956,73.5000533 61.2973956,73.5000533 L45.5778886,82 L40,59.000011 C40,59.000011 45.0708122,46.5 44.0566231,40 L64.8469363,41.5000553 Z" id="Path" fill="#FFB9B9"></path>
                        <circle id="Oval" fill="#FFB9B9" cx="56.5" cy="29.5" r="18.5"></circle>
                        <path d="M53.9879405,67.6485339 L68.9474663,54.6597677 L77.7710693,59.0478763 L97,71.1899487 C97,71.1899487 91.9397449,180.468613 94.4698906,184.515986 C94.4698906,184.515986 88.9036148,197.163975 56.0120595,189.575175 C23.1205042,181.986374 14.5180983,180.974547 14.5180983,180.974547 L21.6024422,114.193134 L13,72.2018178 L41.895613,52 L50.9518104,67.6485399 L53.9879405,67.6485339 Z" id="Path" fill="#3C9DCF"></path>
                        <path d="M4.50614927,106 L0,127.332678 L0,170.505976 C0,170.505976 6.50889559,197.933727 11.5157314,190.822806 C16.5225673,183.711885 16.4191697,181.460132 16.4191697,181.460132 L10.0136837,171.521805 L13.0177732,130.888144 L21,111.504682 L4.50614927,106 Z" id="Path" fill="#FFB9B9"></path>
                        <path d="M88.9347888,118.532965 L94.3561023,139.554611 L91.8434803,181.839109 L84.0115872,191.253723 C84.0115872,191.253723 83.5995658,193.561914 87.6893597,201.543795 C91.7791537,209.525676 102.104029,182.092497 102.104029,182.092497 L108,137.579813 L106.358495,115 L88.9347888,118.532965 Z" id="Path" fill="#FFB9B9"></path>
                        <path d="M39.4864865,10.4645817 C39.4864865,10.4645817 45.5431404,-2.55421285 57.1517829,0.450110999 C68.7604254,3.45443485 75.3218593,7.96095357 75.8265246,12.4674543 C76.3311899,16.9739551 75.5741708,23.7337361 75.5741708,23.7337361 C75.5741708,23.7337361 74.3123536,14.4703628 66.2367909,16.4732474 C58.1612282,18.476132 45.5431344,16.9739551 45.5431344,16.9739551 L43.5242497,35 C43.5242497,35 41.2529872,31.7453043 38.7293829,33.7481889 C36.2057786,35.7510735 31.4109057,14.4703688 39.4864865,10.4645817 Z" id="Path" fill="#2F2E41"></path>
                        <path d="M24.5455084,72 L12.8341089,73.0175605 C12.8341089,73.0175605 -0.404854142,109.142066 1.12270938,110.15965 C2.6502729,111.177235 20.9811692,117.282799 23.5271327,115.756397 C26.0730963,114.229996 24.5455084,72 24.5455084,72 Z" id="Path" fill="#3C9DCF"></path>
                        <path d="M93.257723,72.0203225 L97.2899305,71 C97.2899305,71 104.850289,80.6930148 107.370398,91.9164706 C109.890508,103.139926 113.418695,114.363449 111.402576,114.363449 C109.386457,114.363449 85,121 85,121 L93.257723,72.0203225 Z" id="Path" fill="#3C9DCF"></path>
                    </g>
                </g>
            </g>
        </g>
    </g>
</svg>