<?xml version="1.0" encoding="UTF-8"?>
<svg width="1010px" height="670px" viewBox="0 0 1010 670" version="1.1" xmlns="http://www.w3.org/2000/svg" xmlns:xlink="http://www.w3.org/1999/xlink">
    <!-- Generator: Sketch 62 (91390) - https://sketch.com -->
    <title>Group 19</title>
    <desc>Created with Sketch.</desc>
    <defs>
        <path d="M92.9050353,0 C144.21507,0 185.810071,41.7215746 185.810071,93.1877451 C185.810071,94.4038816 185.786845,95.6145771 185.740815,96.8194095 L185.810071,96.8184365 L185.810071,404.216972 L0,404.216972 L0,96.8184365 L0.0692553929,96.8194095 C0.0232253407,95.6145771 0,94.4038816 0,93.1877451 C0,41.7215746 41.5950011,0 92.9050353,0 Z" id="path-1"></path>
        <linearGradient x1="14.4801678%" y1="15.8771693%" x2="97.1623372%" y2="104.648685%" id="linearGradient-3">
            <stop stop-color="#FFFFFF" offset="0%"></stop>
            <stop stop-color="#F8F8F8" offset="100%"></stop>
        </linearGradient>
        <ellipse id="path-4" cx="78.1302932" cy="78.1947368" rx="78.1302932" ry="78.1947368"></ellipse>
        <filter x="-4.5%" y="-3.2%" width="109.0%" height="109.0%" filterUnits="objectBoundingBox" id="filter-5">
            <feOffset dx="0" dy="2" in="SourceAlpha" result="shadowOffsetOuter1"></feOffset>
            <feGaussianBlur stdDeviation="2" in="shadowOffsetOuter1" result="shadowBlurOuter1"></feGaussianBlur>
            <feColorMatrix values="0 0 0 0 0   0 0 0 0 0   0 0 0 0 0  0 0 0 0.5 0" type="matrix" in="shadowBlurOuter1"></feColorMatrix>
        </filter>
        <path d="M52.606306,30.286559 C66.8960895,30.286559 78.5214478,41.9268204 78.5214478,56.2344672 L78.5214478,56.2344672 L78.5214478,85.8627747 L78.8183566,85.8627747 C79.6929623,85.8627747 80.4704349,86.4207701 80.7510188,87.2503055 L80.7510188,87.2503055 L85.8678498,102.369508 C86.079053,102.993294 85.9768184,103.680419 85.5935917,104.215735 C85.2103651,104.750846 84.5930804,105.068358 83.9351875,105.068358 L83.9351875,105.068358 L21.2776286,105.068358 C20.6197357,105.068358 20.0024511,104.750846 19.6192244,104.215735 C19.2359977,103.680419 19.1337631,102.993294 19.3449663,102.369508 L19.3449663,102.369508 L24.4615932,87.2503055 C24.7421772,86.4207701 25.5196498,85.8627747 26.3942555,85.8627747 L26.3942555,85.8627747 L26.6911643,85.8627747 L26.6911643,56.2344672 C26.6911643,41.9266161 38.3165226,30.286559 52.606306,30.286559 Z M77.3550348,89.9493603 L27.8573732,89.9493603 L24.1236681,100.982181 L81.0889439,100.982181 L77.3550348,89.9493603 Z M52.606306,34.3731446 C40.5671119,34.3731446 30.7723854,44.1802554 30.7723854,56.2346716 L30.7723854,56.2346716 L30.7723854,85.8629791 L74.4402267,85.8629791 L74.4402267,56.2346716 C74.4402267,44.1802554 64.6455001,34.3731446 52.606306,34.3731446 Z M52.3778502,69.5014049 C55.7806878,69.5014049 58.5489132,72.2627921 58.5489132,75.6572237 C58.5489132,79.0514502 55.7804821,81.8130426 52.3778502,81.8130426 C48.9752183,81.8130426 46.2067871,79.0516554 46.2067871,75.6572237 C46.2067871,72.2629973 48.9750126,69.5014049 52.3778502,69.5014049 Z M52.3778502,73.6052157 C51.243571,73.6052157 50.3207606,74.5257465 50.3207606,75.6572237 C50.3207606,76.788701 51.243571,77.7092317 52.3778502,77.7092317 C53.5121294,77.7092317 54.4349398,76.788701 54.4349398,75.6572237 C54.4349398,74.5257465 53.5121294,73.6052157 52.3778502,73.6052157 Z M52.3778502,43.5101698 C55.7806878,43.5101698 58.5489132,46.2376533 58.5489132,49.5899571 L58.5489132,49.5899571 L58.5489132,59.3177384 C58.5489132,62.6700422 55.7804821,65.3975257 52.3778502,65.3975257 C48.9752183,65.3975257 46.2067871,62.6702449 46.2067871,59.3177384 L46.2067871,59.3177384 L46.2067871,49.5899571 C46.2067871,46.2376533 48.9750126,43.5101698 52.3778502,43.5101698 Z M52.3778502,47.5632938 C51.243571,47.5632938 50.3207606,48.472455 50.3207606,49.5899571 L50.3207606,49.5899571 L50.3207606,59.3177384 C50.3207606,60.4352406 51.243571,61.3444017 52.3778502,61.3444017 C53.5121294,61.3444017 54.4349398,60.4352406 54.4349398,59.3177384 L54.4349398,59.3177384 L54.4349398,49.5899571 C54.4349398,48.472455 53.5121294,47.5632938 52.3778502,47.5632938 Z M19.5112961,55.3658209 C20.621791,55.3658209 21.5225348,56.2846795 21.5225348,57.4177605 C21.5225348,58.5508416 20.6219922,59.4697001 19.5114972,59.4697001 L19.5114972,59.4697001 L10.2772147,59.4697001 C9.16671972,59.4697001 8.26617708,58.5508416 8.26617708,57.4177605 C8.26617708,56.2846795 9.16671972,55.3658209 10.2772147,55.3658209 L10.2772147,55.3658209 Z M2.09511401,55.3658209 C2.63611054,55.3658209 3.16682196,55.5851733 3.54922217,55.9670392 C3.93182808,56.3487 4.15213503,56.8781004 4.15213503,57.4177605 C4.15213503,57.9574207 3.93182808,58.4868211 3.54922217,58.8682766 C3.16682196,59.2501426 2.63611054,59.4697001 2.09511401,59.4697001 C1.55411748,59.4697001 1.02340605,59.2499374 0.640800142,58.8682766 C0.257988529,58.4868211 0.0380929819,57.9574207 0.0380929819,57.4177605 C0.0380929819,56.8781004 0.258194232,56.3489052 0.640800142,55.9670392 C1.02340605,55.5851733 1.55411748,55.3658209 2.09511401,55.3658209 Z M95.3927172,55.3658209 C96.5032122,55.3658209 97.4037548,56.2846795 97.4037548,57.4177605 C97.4037548,58.5508416 96.5032122,59.4697001 95.3927172,59.4697001 L95.3927172,59.4697001 L86.1584347,59.4697001 C85.0479397,59.4697001 84.1473971,58.5508416 84.1473971,57.4177605 C84.1473971,56.2846795 85.0479397,55.3658209 86.1584347,55.3658209 L86.1584347,55.3658209 Z M102.660586,55.3658209 C103.201583,55.3658209 103.732294,55.5853785 104.114694,55.9670392 C104.497506,56.3487 104.717607,56.8781004 104.717607,57.4177605 C104.717607,57.9574207 104.4973,58.4868211 104.114694,58.8682766 C103.732294,59.2501426 103.201583,59.4697001 102.660586,59.4697001 C102.11959,59.4697001 101.588878,59.2499374 101.206272,58.8682766 C100.823461,58.4868211 100.603565,57.9574207 100.603565,57.4177605 C100.603565,56.8781004 100.823667,56.3489052 101.206272,55.9670392 C101.588878,55.5851733 102.11959,55.3658209 102.660586,55.3658209 Z M6.1394698,37.9286429 C6.57933224,36.8889347 7.79613241,36.3958836 8.85812763,36.8255454 L8.85812763,36.8255454 L15.6664242,39.5881811 C16.7280033,40.0190658 17.2321597,41.2112346 16.7925053,42.2513505 C16.4604238,43.0362782 15.6857748,43.5101698 14.8693036,43.5101698 C14.6040128,43.5101698 14.3343526,43.4598252 14.0738475,43.354448 L14.0738475,43.354448 L7.26555094,40.5918123 C6.20397186,40.1609276 5.69981543,38.9687588 6.1394698,37.9286429 Z M95.8975592,36.8257665 C96.9593409,36.3957113 98.1763428,36.8887462 98.616203,37.9288276 C99.0558551,38.9687052 98.5519094,40.1610384 97.4901277,40.5919089 L97.4901277,40.5919089 L90.6818663,43.3544532 C90.4213625,43.4600307 90.1517037,43.5101698 89.8864143,43.5101698 C89.0699473,43.5101698 88.2953024,43.0362938 87.9632225,42.2513921 C87.5235704,41.2115145 88.0275162,40.0191813 89.0892978,39.5883108 L89.0892978,39.5883108 Z M89.7940984,16.7490473 C90.5941315,15.9516176 91.8903203,15.9516176 92.6901486,16.7490473 C93.4895675,17.5468854 93.4895675,18.8402574 92.6901486,19.6378913 L92.6901486,19.6378913 L82.6148915,29.6882825 C82.2149773,30.0869974 81.6911778,30.286559 81.1669687,30.286559 C80.6429644,30.286559 80.1189601,30.0872016 79.7188412,29.6882825 C78.9192176,28.8904444 78.9192176,27.5970724 79.7188412,26.7994385 L79.7188412,26.7994385 Z M12.0656988,16.7490559 C12.8657232,15.9516148 14.161898,15.9516148 14.9617177,16.7490559 L14.9617177,16.7490559 L25.0368657,26.7991838 C25.8364806,27.5970335 25.8364806,28.8904242 25.0368657,29.6882739 C24.6369558,30.0869945 24.1129572,30.286559 23.5889586,30.286559 C23.06496,30.286559 22.5409614,30.0869945 22.1410515,29.6882739 L22.1410515,29.6882739 L12.0656988,19.6379417 C11.2660838,18.840092 11.2660838,17.5467013 12.0656988,16.7490559 Z M52.3778502,20.7108408 C52.9188467,20.7108408 53.4495581,20.9284553 53.8319583,21.3103069 C54.2147699,21.6942116 54.4348712,22.2216186 54.4348712,22.7638069 C54.4348712,23.303737 54.2145642,23.8313493 53.8319583,24.215254 C53.4495581,24.5969004 52.9188467,24.8147201 52.3778502,24.8147201 C51.8368536,24.8147201 51.3061422,24.5969004 50.9235363,24.215254 C50.5407247,23.8313493 50.3208291,23.303737 50.3208291,22.7638069 C50.3208291,22.2216186 50.5409304,21.6942116 50.9235363,21.3103069 C51.3061422,20.9284553 51.8368536,20.7108408 52.3778502,20.7108408 Z M33.2979923,10.837271 C34.3406202,10.3995228 35.5356684,10.9016152 35.9675938,11.9605964 L35.9675938,11.9605964 L38.7369018,18.7522319 C39.1686229,19.8110055 38.673768,21.0252431 37.6311401,21.4642367 C37.3753356,21.5717538 37.1105412,21.622814 36.8500375,21.622814 C36.0482989,21.622814 35.287628,21.1402324 34.9615386,20.3409112 L34.9615386,20.3409112 L32.1922305,13.5492758 C31.7605094,12.4902946 32.2553644,11.276057 33.2979923,10.837271 Z M68.7881024,11.9604947 C69.2200314,10.9017099 70.4150892,10.3996122 71.4577256,10.8371574 C72.5001577,11.2759481 72.995221,12.4897833 72.5634963,13.5491908 L72.5634963,13.5491908 L69.7941658,20.3408977 C69.4680738,21.1402273 68.7073967,21.622814 67.9056516,21.622814 C67.6451458,21.622814 67.3803492,21.5717532 67.1245427,21.464235 C66.0821106,21.0252368 65.5870473,19.811194 66.0187719,18.7522016 L66.0187719,18.7522016 Z M52.3778502,0.647431327 C53.5137372,0.647431327 54.4348712,1.56630137 54.4348712,2.69939659 L54.4348712,2.69939659 L54.4348712,15.0109829 C54.4348712,16.1440782 53.5137372,17.0629482 52.3778502,17.0629482 C51.2417575,17.0629482 50.3208291,16.1440782 50.3208291,15.0109829 L50.3208291,15.0109829 L50.3208291,2.69939659 C50.3208291,1.56630137 51.2419632,0.647431327 52.3778502,0.647431327 Z" id="path-6"></path>
        <linearGradient x1="9.63362412%" y1="38.7793176%" x2="92.4740363%" y2="75.8446786%" id="linearGradient-8">
            <stop stop-color="#3C9DCF" offset="0%"></stop>
            <stop stop-color="#03306C" offset="100%"></stop>
        </linearGradient>
        <ellipse id="path-9" cx="78.1302932" cy="78.1947368" rx="78.1302932" ry="78.1947368"></ellipse>
        <filter x="-4.5%" y="-3.2%" width="109.0%" height="109.0%" filterUnits="objectBoundingBox" id="filter-10">
            <feOffset dx="0" dy="2" in="SourceAlpha" result="shadowOffsetOuter1"></feOffset>
            <feGaussianBlur stdDeviation="2" in="shadowOffsetOuter1" result="shadowBlurOuter1"></feGaussianBlur>
            <feColorMatrix values="0 0 0 0 0   0 0 0 0 0   0 0 0 0 0  0 0 0 0.5 0" type="matrix" in="shadowBlurOuter1"></feColorMatrix>
        </filter>
        <path d="M35.7915309,0 C55.5278071,0 71.5830619,16.1064248 71.5830619,35.9056027 C71.5830619,51.8504523 61.1663498,65.3937694 46.8043097,70.0642598 L46.8043097,70.0642598 L46.8043097,80.0971138 L44.051115,80.0971138 L44.051115,85.6210526 L41.2979203,85.6210526 L41.2979203,80.0971138 L30.2851416,80.0971138 L30.2851416,85.6210526 L27.5319469,85.6210526 L27.5319469,80.0971138 L24.7787522,80.0971138 L24.7787522,70.0642598 C10.4167121,65.3937694 0,51.8504523 0,35.9056027 C0,16.1064248 16.0552548,0 35.7915309,0 Z M44.051115,70.8348492 C41.3984119,71.4673402 38.6342045,71.8112054 35.7915309,71.8112054 C32.9488574,71.8112054 30.18465,71.4673402 27.5319469,70.8348492 L27.5319469,70.8348492 L27.5319469,77.3351443 L44.051115,77.3351443 Z M35.7915309,2.76196944 C17.5750183,2.76196944 2.75319469,17.6310319 2.75319469,35.9056027 C2.75319469,54.1801735 17.5750183,69.049236 35.7915309,69.049236 C54.0080436,69.049236 68.8298672,54.1801735 68.8298672,35.9056027 C68.8298672,17.6310319 54.0080436,2.76196944 35.7915309,2.76196944 Z M16.1268379,55.217293 C21.3565312,60.5741328 28.3400095,63.5252971 35.7915309,63.5252971 C43.2430524,63.5252971 50.2265307,60.5741328 55.456224,55.218674 L55.456224,55.218674 L57.4247582,57.1492907 C51.6719579,63.0419525 43.9905447,66.2872666 35.7915309,66.2872666 C27.5925172,66.2872666 19.911104,63.0419525 14.1583037,57.1479097 L14.1583037,57.1479097 Z M13.6410159,47.1385953 L15.0176133,49.5304608 L10.2492291,52.2923439 L8.87263173,49.9004784 L13.6410159,47.1385953 Z M57.9377531,47.1387385 L62.7061372,49.9006217 L61.3295399,52.2924872 L56.5611557,49.5306041 L57.9377531,47.1387385 Z M35.7915309,30.3816638 C38.8283047,30.3816638 41.2979203,32.8591504 41.2979203,35.9056027 C41.2979203,38.952055 38.8283047,41.4295416 35.7915309,41.4295416 C33.7087392,41.4295416 31.9150328,40.2501806 30.9789466,38.5349976 L30.9789466,38.5349976 L14.09911,42.7677158 L13.4328369,40.0899864 L30.2892714,35.8627922 C30.3126735,32.8370547 32.7698998,30.3816638 35.7915309,30.3816638 Z M35.7915309,33.1436333 C34.2731441,33.1436333 33.0383363,34.3823766 33.0383363,35.9056027 C33.0383363,37.4288289 34.2731441,38.6675722 35.7915309,38.6675722 C37.3099178,38.6675722 38.5447256,37.4288289 38.5447256,35.9056027 C38.5447256,34.3823766 37.3099178,33.1436333 35.7915309,33.1436333 Z M11.0127788,34.524618 L11.0127788,37.2865874 L5.50638938,37.2865874 L5.50638938,34.524618 L11.0127788,34.524618 Z M66.0766725,34.524618 L66.0766725,37.2865874 L60.5702831,37.2865874 L60.5702831,34.524618 L66.0766725,34.524618 Z M61.3326399,19.5222632 L62.7089619,21.9144049 L57.9398781,24.675822 L56.5635561,22.2836802 L61.3326399,19.5222632 Z M10.2507199,19.515445 L15.0191041,22.2773281 L13.6425068,24.6691936 L8.87412259,21.9073105 L10.2507199,19.515445 Z M49.7405548,8.90808937 L52.1250967,10.2887979 L49.3724527,15.0730814 L46.9879108,13.6923728 L49.7405548,8.90808937 Z M21.8403171,8.90254147 L24.5934257,13.6861231 L22.2091591,15.0671078 L19.4560505,10.2835262 L21.8403171,8.90254147 Z M37.1681283,5.52393888 L37.1681283,11.0478778 L34.4149336,11.0478778 L34.4149336,5.52393888 L37.1681283,5.52393888 Z" id="path-11"></path>
        <linearGradient x1="9.63362412%" y1="38.5917759%" x2="92.4740363%" y2="76.2766446%" id="linearGradient-13">
            <stop stop-color="#3C9DCF" offset="0%"></stop>
            <stop stop-color="#03306C" offset="100%"></stop>
        </linearGradient>
    </defs>
    <g id="Page-2" stroke="none" stroke-width="1" fill="none" fill-rule="evenodd">
        <g id="Artboard" transform="translate(-1086.000000, -56.000000)">
            <g id="Group-19" transform="translate(1086.000000, 56.000000)">
                <path d="M311.856675,35.1480385 C346.122503,4.30589323 399.916358,-1.97433969 448.876283,0.480104606 C602.661672,8.1928246 741.481985,83.1014165 861.560988,167.83652 C905.031388,198.512707 947.828708,231.599664 976.071793,273.814359 C1033.5195,359.807256 1016.474,478.939519 936.604901,549.777751 C909.428253,573.88546 876.482358,592.359303 842.662334,608.745557 C782.53105,637.866971 717.66199,661.240967 649.401312,667.896791 C600.729849,672.639721 551.498944,668.770259 503.072237,662.166843 C367.888298,643.666797 235.195624,602.771038 123.971541,532.771335 C75.1689588,502.077679 29.189811,463.915874 9.0848604,414.23303 C-11.0200902,364.550186 1.8470782,301.651775 51.6549079,272.259587 C72.2581116,260.100916 96.8823054,254.615539 120.999505,249.453344 C156.497854,241.871644 192.555646,234.386026 224.592448,218.960586 C257.678203,203.028535 296.847892,172.212594 290.300671,136.941967 C283.27268,99.1295492 277.634552,65.8941024 311.856675,35.1480385 Z" id="Path" fill="#B8E1F5" fill-rule="nonzero" opacity="0.4"></path>
                <g id="Group-34" transform="translate(315.000000, 89.000000)">
                    <g id="Group-5" transform="translate(3.000000, 0.000000)">
                        <path d="M110.993961,84.7473684 L110.996685,94.4959383 C162.088473,96.363493 203.171581,137.578727 205.031756,188.834072 L205.097537,188.833994 L205.097537,227.563901 L214.749186,227.563901 L214.749186,234.825759 L205.097537,234.825759 L205.097537,348.594861 L214.749186,348.594861 L214.749186,355.856718 L205.097537,355.856718 L205.097537,469.62582 L214.749186,469.62582 L214.749186,476.887678 L205.097537,476.887678 L205.097537,496.252632 L200.271712,496.252632 L200.271712,196.095851 L200.202408,196.098265 C200.248471,194.892878 200.271712,193.681623 200.271712,192.464923 C200.271712,140.995387 158.680255,99.2710836 107.374593,99.2710836 C56.0689304,99.2710836 14.4774732,140.995387 14.4774732,192.464923 L14.494852,194.285837 L14.5467777,196.098265 L14.4774732,196.095851 L14.4774732,496.252632 L9.65164879,496.252632 L9.65164879,476.887678 L0,476.887678 L0,469.62582 L9.65164879,469.62582 L9.65164879,355.856718 L0,355.856718 L0,348.594861 L9.65164879,348.594861 L9.65164879,234.825759 L0,234.825759 L0,227.563901 L9.65164879,227.563901 L9.65164879,188.833994 L9.71742939,188.834072 C11.5776335,137.57792 52.6620069,96.362195 103.754915,94.4958501 L103.755225,84.7473684 L110.993961,84.7473684 Z" id="Path" fill="#9BAEBC"></path>
                        <path d="M207.892984,43.6842105 L207.895707,53.4327804 C258.987495,55.3003351 300.070604,96.5155688 301.930779,147.770914 L301.99656,147.770836 L301.99656,186.500743 L311.648208,186.500743 L311.648208,193.762601 L301.99656,193.762601 L301.99656,307.531703 L311.648208,307.531703 L311.648208,314.79356 L301.99656,314.79356 L301.99656,428.562663 L311.648208,428.562663 L311.648208,435.82452 L301.99656,435.82452 L301.99656,455.189474 L297.170735,455.189474 L297.170735,155.032693 L297.101431,155.035107 C297.147493,153.82972 297.170735,152.618465 297.170735,151.401765 C297.170735,99.9322286 255.579278,58.2079257 204.273616,58.2079257 C152.967953,58.2079257 111.376496,99.9322286 111.376496,151.401765 L111.393875,153.222679 L111.445801,155.035107 L111.376496,155.032693 L111.376496,455.189474 L106.550672,455.189474 L106.550672,435.82452 L96.8990228,435.82452 L96.8990228,428.562663 L106.550672,428.562663 L106.550672,314.79356 L96.8990228,314.79356 L96.8990228,307.531703 L106.550672,307.531703 L106.550672,193.762601 L96.8990228,193.762601 L96.8990228,186.500743 L106.550672,186.500743 L106.550672,147.770836 L106.616452,147.770914 C108.476656,96.5147617 149.56103,55.2990372 200.653937,53.4326922 L200.654247,43.6842105 L207.892984,43.6842105 Z" id="Path" fill="#9BAEBC"></path>
                        <path d="M299.554222,0 L299.556945,9.74856985 C350.648733,11.6161246 391.731842,52.8313582 393.592017,104.086704 L393.657797,104.086625 L393.657797,142.816533 L403.309446,142.816533 L403.309446,150.07839 L393.657797,150.07839 L393.657797,263.847492 L403.309446,263.847492 L403.309446,271.10935 L393.657797,271.10935 L393.657797,384.878452 L403.309446,384.878452 L403.309446,392.14031 L393.657797,392.14031 L393.657797,411.505263 L388.831973,411.505263 L388.831973,111.348483 L388.762669,111.350897 C388.808731,110.14551 388.831973,108.934255 388.831973,107.717554 C388.831973,56.2480181 347.240516,14.5237152 295.934853,14.5237152 C244.629191,14.5237152 203.037734,56.2480181 203.037734,107.717554 L203.055113,109.538468 L203.107038,111.350897 L203.037734,111.348483 L203.037734,411.505263 L198.211909,411.505263 L198.211909,392.14031 L188.560261,392.14031 L188.560261,384.878452 L198.211909,384.878452 L198.211909,271.10935 L188.560261,271.10935 L188.560261,263.847492 L198.211909,263.847492 L198.211909,150.07839 L188.560261,150.07839 L188.560261,142.816533 L198.211909,142.816533 L198.211909,104.086625 L198.27769,104.086704 C200.137894,52.8305511 241.222267,11.6148266 292.315175,9.74848166 L292.315485,0 L299.554222,0 Z" id="Path" fill="#9BAEBC"></path>
                        <g id="Group-4" opacity="0.827078683" transform="translate(14.840391, 103.968421)">
                            <mask id="mask-2" fill="white">
                                <use xlink:href="#path-1"></use>
                            </mask>
                            <g id="Combined-Shape"></g>
                            <g id="Group-3" mask="url(#mask-2)" fill="#D8D8D8" opacity="0.617931548">
                                <g transform="translate(4.826236, -12.102305)" id="Rectangle">
                                    <rect x="0" y="0" width="26.5442958" height="399.37605"></rect>
                                    <rect x="28.9574136" y="0" width="28.9574136" height="399.37605"></rect>
                                    <rect x="60.327945" y="0" width="26.5442958" height="399.37605"></rect>
                                    <rect x="89.2853586" y="0" width="26.5442958" height="399.37605"></rect>
                                    <rect x="118.242772" y="0" width="28.9574136" height="399.37605"></rect>
                                    <rect x="149.613304" y="0" width="26.5442958" height="399.37605"></rect>
                                </g>
                            </g>
                        </g>
                        <polygon id="Rectangle" fill="#9BAEBC" points="9.60260586 205.72964 200.781759 118.821053 200.781759 123.649307 9.60260586 210.557895"></polygon>
                        <polygon id="Rectangle" fill="#9BAEBC" points="203.400651 205.72964 394.579805 118.821053 394.579805 123.649307 203.400651 210.557895"></polygon>
                        <polygon id="Rectangle" fill="#9BAEBC" points="9.60260586 495.792798 200.781759 408.884211 200.781759 413.712465 9.60260586 500.621053"></polygon>
                        <polygon id="Rectangle" fill="#9BAEBC" points="203.400651 495.792798 394.579805 408.884211 394.579805 413.712465 203.400651 500.621053"></polygon>
                    </g>
                    <path d="M254.959166,11.2812313 C219.12668,29.2598364 194.042239,66.899029 192.511905,110.818025 L192.511905,110.818025 L192.437768,110.817933 L192.437,409.71 L0,495 L0,222.539313 L1.21030043,220.306663 L1.21030043,190.641817 L1.28443757,190.641909 C2.99959336,141.418703 34.3017985,100.083753 77.1621972,85.4750284 Z M282,-1.42108547e-13 L281.999735,2.00468402 C277.472321,2.89861782 273.04285,4.08206726 268.729619,5.53591525 L282,-1.42108547e-13 Z" id="Combined-Shape" fill="#00A0F3" opacity="0.25" style="mix-blend-mode: multiply;"></path>
                    <path d="M296.884506,0 C356.334246,0 404.780497,49.2326347 406.925878,110.811332 L407,110.81124 L407,418.445391 L221.531283,510 L220.648921,509.959157 L220.650703,190.630304 L220.57658,190.630396 L220.502758,188.875261 L220.403946,187.12703 L220.275765,185.327789 C220.178992,184.098699 220.063735,182.875082 219.930285,181.657244 L219.656043,179.359121 L219.503917,178.223675 L219.409039,177.554224 C219.148645,175.753514 218.848319,173.966489 218.509034,172.194166 L218.123912,170.26859 L217.807604,168.798879 C217.552471,167.648858 217.280841,166.505445 216.992987,165.368926 L216.599673,163.857981 L216.18726,162.355267 C215.597588,160.260892 214.952442,158.19134 214.253599,156.148468 L213.536922,154.114558 L212.996362,152.654485 L212.297893,150.850736 L211.386675,148.621086 L210.919932,147.527289 L210.247924,146.004169 C209.612149,144.590496 208.949656,143.192545 208.261126,141.811025 L206.980336,139.316729 L206.442711,138.311935 C205.604404,136.763446 204.73275,135.237276 203.828767,133.73449 L202.931385,132.26741 L201.768735,130.436389 C201.444997,129.936942 201.117601,129.440295 200.786589,128.946489 L199.964185,127.736257 L198.848964,126.146096 L198.256154,125.323459 C197.559748,124.365975 196.849317,123.42024 196.125179,122.486587 L194.713169,120.702836 L193.431817,119.144996 L192.130852,117.618825 L191.182288,116.539454 C190.300655,115.548892 189.402102,114.574163 188.487482,113.616193 L187.467101,112.561204 C167.618047,92.3031139 140.47172,79.8190631 110.535209,79.8190631 C95.840121,79.8190631 81.8173511,82.8271997 69,88.2863705 L69.8210353,87.0610273 L247.431553,12.2294995 C252.818784,9.39495477 258.459282,7.00907742 264.308113,5.11882321 L267.843057,3.62813923 L269.071375,3.70219173 C277.955666,1.28596941 287.276379,0 296.884506,0 Z" id="Path" fill="#00A0F3" opacity="0.25" style="mix-blend-mode: multiply;"></path>
                    <path d="M407,128 L406.563679,417.778032 L222,510 C284.78173,440.373445 327.395724,382.971462 349.841981,337.79405 C372.288238,292.616638 391.340911,222.685288 407,128 Z" id="Path-4" fill="#BFE8FC" style="mix-blend-mode: multiply;"></path>
                </g>
                <g id="Group-15" transform="translate(237.000000, 106.000000)">
                    <g id="Oval">
                        <use fill="black" fill-opacity="1" filter="url(#filter-5)" xlink:href="#path-4"></use>
                        <use fill="url(#linearGradient-3)" fill-rule="evenodd" xlink:href="#path-4"></use>
                    </g>
                    <g id="Group-12" transform="translate(26.188925, 25.336842)">
                        <g id="940615">
                            <mask id="mask-7" fill="white">
                                <use xlink:href="#path-6"></use>
                            </mask>
                            <use id="Combined-Shape" fill="#000000" fill-rule="nonzero" xlink:href="#path-6"></use>
                            <rect id="Rectangle" stroke="#979797" fill="url(#linearGradient-8)" mask="url(#mask-7)" x="-9.97557003" y="-3.86842105" width="124.70684" height="113.452632"></rect>
                        </g>
                    </g>
                </g>
                <g id="Group-16" transform="translate(617.000000, 444.000000)">
                    <g id="Oval">
                        <use fill="black" fill-opacity="1" filter="url(#filter-10)" xlink:href="#path-9"></use>
                        <use fill="url(#linearGradient-3)" fill-rule="evenodd" xlink:href="#path-9"></use>
                    </g>
                    <g id="Group-14" transform="translate(42.775244, 35.821053)">
                        <mask id="mask-12" fill="white">
                            <use xlink:href="#path-11"></use>
                        </mask>
                        <use id="Combined-Shape" fill="#000000" fill-rule="nonzero" xlink:href="#path-11"></use>
                        <rect id="Rectangle" stroke="#979797" fill="url(#linearGradient-13)" mask="url(#mask-12)" x="-21.3241042" y="-9.98421053" width="115.104235" height="105.589474"></rect>
                        <g id="656211" mask="url(#mask-12)"></g>
                    </g>
                </g>
                <g id="Group-2" transform="translate(258.000000, 305.000000)" fill-rule="nonzero">
                    <path d="M104.236493,113.776202 C104.236493,113.776202 105.541246,123.540908 102.279364,127.44679 C99.0174818,131.352672 93.7984702,157.391888 93.7984702,157.391888 L93.7984702,173.015417 C93.7984702,173.015417 114.02214,143.7213 117.936399,132.003653 C121.850658,120.286006 117.936399,111.17228 117.936399,111.17228 L104.236493,113.776202 Z" id="Path" fill="#FFC1C7"></path>
                    <path d="M102.279364,65.6036526 L102.555045,65.9131287 C105.923969,69.6936408 108.567878,74.0598206 110.355015,78.7940777 C114.637807,90.1424236 123.843668,118.116373 120.545905,120.936986 C115.979269,124.842868 102.93174,127.44679 102.279364,126.795809 C101.626988,126.144829 88.5794586,85.7840448 88.5794586,85.7840448 L102.279364,65.6036526 Z" id="Path" fill="#3C9DCF"></path>
                    <path d="M81.0771294,342.270319 C81.0771294,342.270319 96.7341642,345.525221 97.3865407,342.270319 C97.8037483,340.246836 98.4607423,338.280071 99.34367,336.411496 C99.34367,336.411496 113.534711,337.001525 109.829695,349.416131 C109.458174,350.639547 108.647161,351.683063 107.552158,352.346597 C104.172508,354.410388 96.2115454,359.277631 92.1675291,361.799731 C89.1279441,363.695386 84.7606556,362.278924 81.643203,360.765323 C79.3454578,359.641764 78.0966812,357.112732 78.6038855,354.610076 L81.0771294,342.270319 Z" id="Path" fill="#3F3D56"></path>
                    <path d="M36.0631544,344.22326 C36.0631544,344.22326 20.4061197,347.478162 19.7537432,344.22326 C19.3365356,342.199777 18.6795416,340.233013 17.7966139,338.364437 C17.7966139,338.364437 3.63286878,338.953327 7.29992247,351.333268 C7.67680365,352.580174 8.5030356,353.643662 9.61926427,354.318619 C13.0164298,356.393079 20.9411075,361.238287 24.9727548,363.752672 C28.3013817,365.828616 33.2222377,363.932519 36.3502979,362.286586 C38.1351325,361.35685 39.0929233,359.365005 38.7029436,357.393967 L36.0631544,344.22326 Z" id="Path" fill="#3F3D56"></path>
                    <path d="M16.491861,122.238947 C16.491861,122.238947 15.1871081,132.003653 18.4489903,135.909535 C21.7108726,139.815417 26.9298842,154.787966 26.9298842,154.787966 L26.9298842,170.411496 C26.9298842,170.411496 6.70621424,152.184045 2.79195554,140.466398 C-1.12230315,128.748751 2.79195554,119.635025 2.79195554,119.635025 L16.491861,122.238947 Z" id="Path" fill="#FFC1C7"></path>
                    <ellipse id="Oval" fill="#FFC1C7" cx="62.1582124" cy="25.8938487" rx="16.3094112" ry="16.2745098"></ellipse>
                    <path d="M75.2057414,32.4036526 C75.2057414,32.4036526 70.6391063,53.2350252 75.2057414,55.8389467 C79.7723765,58.4428683 47.8059305,55.8389467 47.8059305,55.8389467 C47.8059305,55.8389467 54.9820715,38.2624762 51.7201892,32.4036526 C48.458307,26.5448291 75.2057414,32.4036526 75.2057414,32.4036526 Z" id="Path" fill="#FFC1C7"></path>
                    <path d="M90.8627762,171.062476 C90.8627762,171.062476 96.7341642,179.525221 94.7770349,205.564437 C92.8199055,231.603653 90.8627762,258.944829 90.8627762,258.944829 C90.8627762,258.944829 105.215058,340.968359 100.648423,342.9213 C96.0817878,344.874241 81.0771294,346.827182 79.1200001,344.874241 C77.1628707,342.9213 68.0296005,266.756594 68.0296005,266.756594 L59.5487066,204.262476 L46.5011776,275.870319 C46.5011776,275.870319 39.3250367,345.525221 34.1060251,348.780123 C30.3750842,351.106955 22.9769004,349.441669 19.0613239,348.30285 C17.5498421,347.869553 16.5321274,346.460014 16.5987463,344.892169 C17.076997,333.938239 19.2243071,290.708532 24.3203784,264.152672 C30.1917664,233.556594 18.4489903,172.364437 28.8870135,171.062476 C39.3250367,169.760515 90.8627762,171.062476 90.8627762,171.062476 Z" id="Path" fill="#03306C"></path>
                    <path d="M45.1964247,53.2350252 C45.1964247,53.2350252 47.8059305,41.5173781 57.5915773,42.8193389 C67.377224,44.1212997 73.9009885,43.4703193 75.8581178,49.9801232 C77.8152472,56.4899271 98.6912936,61.6977703 98.6912936,61.6977703 C98.6912936,61.6977703 103.910305,62.3487507 103.257929,70.8114958 C102.605552,79.2742409 89.5580233,110.5213 89.5580233,110.5213 C89.5580233,110.5213 90.2103997,136.560515 93.472282,148.278162 C96.7341642,159.995809 96.7341642,174.317378 89.5580233,177.57228 C82.3818823,180.827182 37.3679073,192.544829 26.9298842,178.22326 C26.9298842,178.22326 21.0584961,157.391888 24.9727548,148.929143 C28.8870135,140.466398 24.3203784,107.266398 24.3203784,107.266398 L11.9252258,79.9252213 C11.9252258,79.9252213 15.8394845,66.9056134 26.9298842,62.9997311 C33.4932735,60.7186717 39.6571446,57.4236642 45.1964247,53.2350252 L45.1964247,53.2350252 Z" id="Path" fill="#3C9DCF"></path>
                    <path d="M17.1442374,74.0663977 L11.9252258,79.9252213 C11.9252258,79.9252213 -3.73180895,118.333064 0.834826193,122.238947 C5.40146134,126.144829 18.4489903,128.748751 19.1013668,128.09777 C19.7537432,127.44679 30.8441429,94.2467899 30.8441429,94.2467899 L17.1442374,74.0663977 Z" id="Path" fill="#3C9DCF"></path>
                    <path d="M81.0771294,16.1291428 C81.0771294,16.1291428 78.4676236,18.082084 77.8152472,22.6389467 C77.1628707,27.1958095 73.1567966,20.0424724 72.2241396,29.4779645 C71.2914827,38.9134565 55.6344479,45.4232605 49.7630599,40.8663977 C43.8916718,36.309535 34.1060251,7.66639772 47.8059305,3.10953498 C61.505836,-1.44732777 75.2057414,-0.796347376 77.8152472,3.76051537 C80.424753,8.31737811 81.0771294,16.1291428 81.0771294,16.1291428 Z" id="Path" fill="#2F2E41"></path>
                    <path d="M68.3099201,29.4779384 C69.2425314,20.0424529 73.2486121,27.1958095 73.9009885,22.6389467 C74.5533649,18.082084 77.1628707,16.1291428 77.1628707,16.1291428 C77.1628707,16.1291428 76.5104943,8.31737811 73.9009885,3.76051537 C72.6524574,1.5802258 68.8614783,0.296935134 63.7498935,0.0475770951 C70.8018807,-0.274814434 76.2652008,1.0537389 77.8152472,3.76051537 C80.424753,8.31737811 81.0771294,16.1291428 81.0771294,16.1291428 C81.0771294,16.1291428 78.4676236,18.082084 77.8152472,22.6389467 C77.1628707,27.1958095 73.1567901,20.0424529 72.2241788,29.4779384 C71.4333942,37.4771855 60.061879,43.3703938 53.0400707,42.2035245 C59.7318678,41.286534 67.6545166,36.1076139 68.3099201,29.4779384 Z" id="Path" fill="#000000" opacity="0.1"></path>
                </g>
            </g>
        </g>
    </g>
</svg>