<?xml version="1.0" encoding="UTF-8"?>
<svg width="1010px" height="714px" viewBox="0 0 1010 714" version="1.1" xmlns="http://www.w3.org/2000/svg" xmlns:xlink="http://www.w3.org/1999/xlink">
    <!-- Generator: Sketch 62 (91390) - https://sketch.com -->
    <title>Group 46</title>
    <desc>Created with Sketch.</desc>
    <defs>
        <path d="M92.9050353,0 C144.21507,0 185.810071,41.7215746 185.810071,93.1877451 C185.810071,94.4038816 185.786845,95.6145771 185.740815,96.8194095 L185.810071,96.8184365 L185.810071,404.216972 L0,404.216972 L0,96.8184365 L0.0692553929,96.8194095 C0.0232253407,95.6145771 0,94.4038816 0,93.1877451 C0,41.7215746 41.5950011,0 92.9050353,0 Z" id="path-1"></path>
        <linearGradient x1="14.4215485%" y1="15.8771693%" x2="97.2401704%" y2="104.648685%" id="linearGradient-3">
            <stop stop-color="#FFFFFF" offset="0%"></stop>
            <stop stop-color="#F8F8F8" offset="100%"></stop>
        </linearGradient>
        <circle id="path-4" cx="98.5" cy="98.5" r="98.5"></circle>
        <filter x="-3.6%" y="-2.5%" width="107.1%" height="107.1%" filterUnits="objectBoundingBox" id="filter-5">
            <feOffset dx="0" dy="2" in="SourceAlpha" result="shadowOffsetOuter1"></feOffset>
            <feGaussianBlur stdDeviation="2" in="shadowOffsetOuter1" result="shadowBlurOuter1"></feGaussianBlur>
            <feColorMatrix values="0 0 0 0 0   0 0 0 0 0   0 0 0 0 0  0 0 0 0.5 0" type="matrix" in="shadowBlurOuter1"></feColorMatrix>
        </filter>
        <path d="M0.233727811,1.28892058 L121.608142,123.121556 L0.233727811,123.121556 L0.233727811,1.28892058 Z M4.18639053,10.866671 L4.18639053,119.153971 L8.13905325,119.153971 L8.13905325,115.186386 L12.091716,115.186386 L12.091716,119.153971 L16.0443787,119.153971 L16.0443787,115.186386 L19.9970414,115.186386 L19.9970414,119.153971 L23.9497041,119.153971 L23.9497041,111.218801 L27.9023669,111.218801 L27.9023669,119.153971 L31.8550296,119.153971 L31.8550296,115.186386 L35.8076923,115.186386 L35.8076923,119.153971 L39.760355,119.153971 L39.760355,115.186386 L43.7130178,115.186386 L43.7130178,119.153971 L47.6656805,119.153971 L47.6656805,111.218801 L51.6183432,111.218801 L51.6183432,119.153971 L55.5710059,119.153971 L55.5710059,115.186386 L59.5236686,115.186386 L59.5236686,119.153971 L63.4763314,119.153971 L63.4763314,115.186386 L67.4289941,115.186386 L67.4289941,119.153971 L71.3816568,119.153971 L71.3816568,111.218801 L75.3343195,111.218801 L75.3343195,119.153971 L79.2869822,119.153971 L79.2869822,115.186386 L83.239645,115.186386 L83.239645,119.153971 L87.1923077,119.153971 L87.1923077,115.186386 L91.1449704,115.186386 L91.1449704,119.153971 L95.0976331,119.153971 L95.0976331,111.218801 L99.0502959,111.218801 L99.0502959,119.153971 L112.066414,119.153971 L4.18639053,10.866671 Z M18.0207101,42.8216013 L78.0102722,105.267423 L18.0207101,105.267423 L18.0207101,42.8216013 Z M21.9733728,52.6532771 L21.9733728,101.299838 L68.7057041,101.299838 L21.9733728,52.6532771 Z M73.2749822,0.126418152 C100.566142,0.126418152 122.766272,22.4103598 122.766272,49.8045511 C122.766272,63.0721556 117.619905,75.5502107 108.269882,84.9315656 L108.269882,84.9315656 L99.0502959,94.1859579 L29.060497,23.9319287 L38.2800828,14.6775365 C47.6261538,5.29221394 60.0572781,0.126418152 73.2749822,0.126418152 Z M73.2749822,4.09400324 C61.1126391,4.09400324 49.6775858,8.84717018 41.0746154,17.4826191 L41.0746154,17.4826191 L34.6495621,23.9319287 L38.7721893,28.0701199 L42.3157515,24.5131799 L45.110284,27.3182626 L41.5667219,30.8752026 L44.7011834,34.0214976 L48.2447456,30.4645575 L51.0392781,33.2696402 L47.495716,36.8265802 L50.6301775,39.9728752 L54.1737396,36.4159352 L56.9682722,39.2210178 L53.4247101,42.7779579 L56.5591716,45.9242528 L60.1027337,42.3673128 L62.8972663,45.1723955 L59.3537041,48.7293355 L62.4881657,51.8756305 L66.0317278,48.3186904 L68.8262604,51.1237731 L65.2826982,54.6807131 L68.4171598,57.8270081 L71.9607219,54.2700681 L74.7552544,57.0751507 L71.2116923,60.6320908 L74.3461538,63.7783857 L77.889716,60.2214457 L80.6842485,63.0265284 L77.1406864,66.5834684 L80.2751479,69.7297634 L83.8187101,66.1728233 L86.6132426,68.977906 L83.0696805,72.534846 L86.204142,75.681141 L89.7477041,72.124201 L92.5422367,74.9292836 L88.9986746,78.4862237 L92.1331361,81.6325186 L95.6766982,78.0755786 L98.4712308,80.8806613 L94.9276686,84.4376013 L99.0502959,88.5757925 L105.475349,82.126483 C114.07832,73.491034 118.813609,62.0128104 118.813609,49.8045511 C118.813609,24.6004668 98.3842722,4.09400324 73.2749822,4.09400324 Z M54.1737396,22.5293874 C59.5888876,17.091812 67.0851124,14.1696856 74.7374675,14.5505737 C93.0541065,15.4254263 107.524805,29.9487715 108.396367,48.3365446 C108.761988,56.0177893 105.864686,63.5403306 100.447562,68.977906 L100.447562,68.977906 L99.0502959,70.3804473 L52.7764734,23.9319287 Z M74.5477396,18.5122075 C68.6622249,18.2463793 62.8952899,20.2123177 58.4248284,23.9914425 L58.4248284,23.9914425 L98.9890296,64.7087844 C102.755917,60.2214457 104.730272,54.4287715 104.447657,48.5250049 C103.672935,32.1924408 90.8188757,19.2898541 74.5477396,18.5122075 Z" id="path-6"></path>
        <linearGradient x1="9.63362412%" y1="38.6385059%" x2="92.4740363%" y2="76.1690111%" id="linearGradient-8">
            <stop stop-color="#3C9DCF" offset="0%"></stop>
            <stop stop-color="#03306C" offset="100%"></stop>
        </linearGradient>
    </defs>
    <g id="Page-2" stroke="none" stroke-width="1" fill="none" fill-rule="evenodd">
        <g id="Artboard" transform="translate(-2179.000000, -1211.000000)">
            <g id="Group-46" transform="translate(2179.000000, 1211.000000)">
                <path d="M311.856675,35.1480385 C346.122503,4.30589323 399.916358,-1.97433969 448.876283,0.480104606 C602.661672,8.1928246 741.481985,83.1014165 861.560988,167.83652 C905.031388,198.512707 947.828708,231.599664 976.071793,273.814359 C1033.5195,359.807256 1016.474,478.939519 936.604901,549.777751 C909.428253,573.88546 876.482358,592.359303 842.662334,608.745557 C782.53105,637.866971 717.66199,661.240967 649.401312,667.896791 C600.729849,672.639721 551.498944,668.770259 503.072237,662.166843 C367.888298,643.666797 235.195624,602.771038 123.971541,532.771335 C75.1689588,502.077679 29.189811,463.915874 9.0848604,414.23303 C-11.0200902,364.550186 1.8470782,301.651775 51.6549079,272.259587 C72.2581116,260.100916 96.8823054,254.615539 120.999505,249.453344 C156.497854,241.871644 192.555646,234.386026 224.592448,218.960586 C257.678203,203.028535 296.847892,172.212594 290.300671,136.941967 C283.27268,99.1295492 277.634552,65.8941024 311.856675,35.1480385 Z" id="Path" fill="#B8E1F5" fill-rule="nonzero" opacity="0.4"></path>
                <rect id="Rectangle" fill="#D8D8D8" style="mix-blend-mode: multiply;" x="751" y="66" width="3" height="180"></rect>
                <rect id="Rectangle" fill="#D8D8D8" style="mix-blend-mode: multiply;" x="751" y="304" width="4" height="180"></rect>
                <path d="M640.999278,551.383824 L640.999278,554.858824 L557.985278,595.250991 L558.231794,591.655815 L640.999278,551.383824 Z M744.746515,500.904824 L744.5,504.5 L707.999278,522.259824 L707.999278,518.783824 L744.746515,500.904824 Z" id="Combined-Shape" fill="#D8D8D8"></path>
                <rect id="Rectangle" fill="#D8D8D8" x="319" y="599" width="72" height="4"></rect>
                <rect id="Rectangle" fill="#D8D8D8" x="468" y="599" width="72" height="4"></rect>
                <g id="Group-34" transform="translate(319.000000, 66.000000)">
                    <g id="Group-5" transform="translate(3.000000, 0.000000)">
                        <path d="M110.993961,84.7473684 L110.996685,94.4959383 C162.088473,96.363493 203.171581,137.578727 205.031756,188.834072 L205.097537,188.833994 L205.097537,227.563901 L214.749186,227.563901 L214.749186,234.825759 L205.097537,234.825759 L205.097537,348.594861 L214.749186,348.594861 L214.749186,355.856718 L205.097537,355.856718 L205.097537,469.62582 L214.749186,469.62582 L214.749186,476.887678 L205.097537,476.887678 L205.097537,496.252632 L200.271712,496.252632 L200.271712,196.095851 L200.202408,196.098265 C200.248471,194.892878 200.271712,193.681623 200.271712,192.464923 C200.271712,140.995387 158.680255,99.2710836 107.374593,99.2710836 C56.0689304,99.2710836 14.4774732,140.995387 14.4774732,192.464923 L14.494852,194.285837 L14.5467777,196.098265 L14.4774732,196.095851 L14.4774732,496.252632 L9.65164879,496.252632 L9.65164879,476.887678 L0,476.887678 L0,469.62582 L9.65164879,469.62582 L9.65164879,355.856718 L0,355.856718 L0,348.594861 L9.65164879,348.594861 L9.65164879,234.825759 L0,234.825759 L0,227.563901 L9.65164879,227.563901 L9.65164879,188.833994 L9.71742939,188.834072 C11.5776335,137.57792 52.6620069,96.362195 103.754915,94.4958501 L103.755225,84.7473684 L110.993961,84.7473684 Z" id="Path" fill="#9BAEBC"></path>
                        <path d="M207.892984,43.6842105 L207.895707,53.4327804 C258.987495,55.3003351 300.070604,96.5155688 301.930779,147.770914 L301.99656,147.770836 L301.99656,186.500743 L311.648208,186.500743 L311.648208,193.762601 L301.99656,193.762601 L301.99656,307.531703 L311.648208,307.531703 L311.648208,314.79356 L301.99656,314.79356 L301.99656,428.562663 L311.648208,428.562663 L311.648208,435.82452 L301.99656,435.82452 L301.99656,455.189474 L297.170735,455.189474 L297.170735,155.032693 L297.101431,155.035107 C297.147493,153.82972 297.170735,152.618465 297.170735,151.401765 C297.170735,99.9322286 255.579278,58.2079257 204.273616,58.2079257 C152.967953,58.2079257 111.376496,99.9322286 111.376496,151.401765 L111.393875,153.222679 L111.445801,155.035107 L111.376496,155.032693 L111.376496,455.189474 L106.550672,455.189474 L106.550672,435.82452 L96.8990228,435.82452 L96.8990228,428.562663 L106.550672,428.562663 L106.550672,314.79356 L96.8990228,314.79356 L96.8990228,307.531703 L106.550672,307.531703 L106.550672,193.762601 L96.8990228,193.762601 L96.8990228,186.500743 L106.550672,186.500743 L106.550672,147.770836 L106.616452,147.770914 C108.476656,96.5147617 149.56103,55.2990372 200.653937,53.4326922 L200.654247,43.6842105 L207.892984,43.6842105 Z" id="Path" fill="#9BAEBC"></path>
                        <path d="M299.554222,0 L299.556945,9.74856985 C350.648733,11.6161246 391.731842,52.8313582 393.592017,104.086704 L393.657797,104.086625 L393.657797,142.816533 L403.309446,142.816533 L403.309446,150.07839 L393.657797,150.07839 L393.657797,263.847492 L403.309446,263.847492 L403.309446,271.10935 L393.657797,271.10935 L393.657797,384.878452 L403.309446,384.878452 L403.309446,392.14031 L393.657797,392.14031 L393.657797,411.505263 L388.831973,411.505263 L388.831973,111.348483 L388.762669,111.350897 C388.808731,110.14551 388.831973,108.934255 388.831973,107.717554 C388.831973,56.2480181 347.240516,14.5237152 295.934853,14.5237152 C244.629191,14.5237152 203.037734,56.2480181 203.037734,107.717554 L203.055113,109.538468 L203.107038,111.350897 L203.037734,111.348483 L203.037734,411.505263 L198.211909,411.505263 L198.211909,392.14031 L188.560261,392.14031 L188.560261,384.878452 L198.211909,384.878452 L198.211909,271.10935 L188.560261,271.10935 L188.560261,263.847492 L198.211909,263.847492 L198.211909,150.07839 L188.560261,150.07839 L188.560261,142.816533 L198.211909,142.816533 L198.211909,104.086625 L198.27769,104.086704 C200.137894,52.8305511 241.222267,11.6148266 292.315175,9.74848166 L292.315485,0 L299.554222,0 Z" id="Path" fill="#9BAEBC"></path>
                        <g id="Group-4" opacity="0.827078683" transform="translate(14.840391, 103.968421)">
                            <mask id="mask-2" fill="white">
                                <use xlink:href="#path-1"></use>
                            </mask>
                            <g id="Combined-Shape"></g>
                            <g id="Group-3" mask="url(#mask-2)" fill="#D8D8D8" opacity="0.617931548">
                                <g transform="translate(4.826236, -12.102305)" id="Rectangle">
                                    <rect x="0" y="0" width="26.5442958" height="399.37605"></rect>
                                    <rect x="28.9574136" y="0" width="28.9574136" height="399.37605"></rect>
                                    <rect x="60.327945" y="0" width="26.5442958" height="399.37605"></rect>
                                    <rect x="89.2853586" y="0" width="26.5442958" height="399.37605"></rect>
                                    <rect x="118.242772" y="0" width="28.9574136" height="399.37605"></rect>
                                    <rect x="149.613304" y="0" width="26.5442958" height="399.37605"></rect>
                                </g>
                            </g>
                        </g>
                        <polygon id="Rectangle" fill="#9BAEBC" points="9.60260586 205.72964 200.781759 118.821053 200.781759 123.649307 9.60260586 210.557895"></polygon>
                        <polygon id="Rectangle" fill="#9BAEBC" points="203.400651 205.72964 394.579805 118.821053 394.579805 123.649307 203.400651 210.557895"></polygon>
                        <polygon id="Rectangle" fill="#9BAEBC" points="9.60260586 495.792798 200.781759 408.884211 200.781759 413.712465 9.60260586 500.621053"></polygon>
                        <polygon id="Rectangle" fill="#9BAEBC" points="203.400651 495.792798 394.579805 408.884211 394.579805 413.712465 203.400651 500.621053"></polygon>
                    </g>
                    <path d="M254.959166,11.2812313 C219.12668,29.2598364 194.042239,66.899029 192.511905,110.818025 L192.511905,110.818025 L192.437768,110.817933 L192.437,409.71 L0,495 L0,222.539313 L1.21030043,220.306663 L1.21030043,190.641817 L1.28443757,190.641909 C2.99959336,141.418703 34.3017985,100.083753 77.1621972,85.4750284 Z M282,-1.42108547e-13 L281.999735,2.00468402 C277.472321,2.89861782 273.04285,4.08206726 268.729619,5.53591525 L282,-1.42108547e-13 Z" id="Combined-Shape" fill="#00A0F3" opacity="0.25" style="mix-blend-mode: multiply;"></path>
                    <path d="M296.884506,0 C356.334246,0 404.780497,49.2326347 406.925878,110.811332 L407,110.81124 L407,418.445391 L221.531283,510 L220.648921,509.959157 L220.650703,190.630304 L220.57658,190.630396 L220.502758,188.875261 L220.403946,187.12703 L220.275765,185.327789 C220.178992,184.098699 220.063735,182.875082 219.930285,181.657244 L219.656043,179.359121 L219.503917,178.223675 L219.409039,177.554224 C219.148645,175.753514 218.848319,173.966489 218.509034,172.194166 L218.123912,170.26859 L217.807604,168.798879 C217.552471,167.648858 217.280841,166.505445 216.992987,165.368926 L216.599673,163.857981 L216.18726,162.355267 C215.597588,160.260892 214.952442,158.19134 214.253599,156.148468 L213.536922,154.114558 L212.996362,152.654485 L212.297893,150.850736 L211.386675,148.621086 L210.919932,147.527289 L210.247924,146.004169 C209.612149,144.590496 208.949656,143.192545 208.261126,141.811025 L206.980336,139.316729 L206.442711,138.311935 C205.604404,136.763446 204.73275,135.237276 203.828767,133.73449 L202.931385,132.26741 L201.768735,130.436389 C201.444997,129.936942 201.117601,129.440295 200.786589,128.946489 L199.964185,127.736257 L198.848964,126.146096 L198.256154,125.323459 C197.559748,124.365975 196.849317,123.42024 196.125179,122.486587 L194.713169,120.702836 L193.431817,119.144996 L192.130852,117.618825 L191.182288,116.539454 C190.300655,115.548892 189.402102,114.574163 188.487482,113.616193 L187.467101,112.561204 C167.618047,92.3031139 140.47172,79.8190631 110.535209,79.8190631 C95.840121,79.8190631 81.8173511,82.8271997 69,88.2863705 L69.8210353,87.0610273 L247.431553,12.2294995 C252.818784,9.39495477 258.459282,7.00907742 264.308113,5.11882321 L267.843057,3.62813923 L269.071375,3.70219173 C277.955666,1.28596941 287.276379,0 296.884506,0 Z" id="Path" fill="#00A0F3" opacity="0.25" style="mix-blend-mode: multiply;"></path>
                    <path d="M407,128 L406.563679,417.778032 L222,510 C284.78173,440.373445 327.395724,382.971462 349.841981,337.79405 C372.288238,292.616638 391.340911,222.685288 407,128 Z" id="Path-4" fill="#BFE8FC" style="mix-blend-mode: multiply;"></path>
                </g>
                <g id="Group-45" transform="translate(99.000000, 511.000000)">
                    <g id="Oval">
                        <use fill="black" fill-opacity="1" filter="url(#filter-5)" xlink:href="#path-4"></use>
                        <use fill="url(#linearGradient-3)" fill-rule="evenodd" xlink:href="#path-4"></use>
                    </g>
                    <g id="Group-44" transform="translate(32.000000, 35.000000)">
                        <g id="Group-39" transform="translate(22.000000, 76.000000)" opacity="0.1">
                            <g id="Group" transform="translate(4.363636, 67.286645)"></g>
                            <g id="Group" transform="translate(10.909091, 67.286645)"></g>
                            <g id="Group" transform="translate(11.393939, 48.967427)"></g>
                            <g id="Group" transform="translate(11.636364, 49.957655)"></g>
                            <g id="Group" transform="translate(5.090909, 49.710098)"></g>
                            <g id="Group" transform="translate(2.424242, 29.162866)"></g>
                            <g id="Group" transform="translate(0.000000, 20.250814)"></g>
                            <g id="Group" transform="translate(3.878788, 20.003257)"></g>
                            <g id="Group" transform="translate(13.818182, 23.469055)"></g>
                            <g id="Group" transform="translate(4.606061, 26.439739)"></g>
                            <g id="Group" transform="translate(13.333333, 11.586319)"></g>
                            <g id="Group" transform="translate(2.666667, 9.605863)"></g>
                            <g id="Group" transform="translate(1.454545, 15.794788)"></g>
                            <g id="Group" transform="translate(10.909091, 35.104235)"></g>
                            <g id="Group" transform="translate(3.878788, 35.351792)"></g>
                            <g id="Group" transform="translate(11.151515, 36.837134)"></g>
                            <g id="Group" transform="translate(4.121212, 37.827362)"></g>
                            <g id="Group" transform="translate(1.939394, 0.198697)"></g>
                            <g id="Group" transform="translate(19.393939, 8.615635)"></g>
                            <g id="Group" transform="translate(1.939394, 0.693811)"></g>
                        </g>
                        <g id="Group-19">
                            <mask id="mask-7" fill="white">
                                <use xlink:href="#path-6"></use>
                            </mask>
                            <use id="Combined-Shape" fill="#000000" fill-rule="nonzero" xlink:href="#path-6"></use>
                            <rect id="Rectangle" stroke="#979797" fill="url(#linearGradient-8)" mask="url(#mask-7)" x="-21.5" y="-14.5" width="166" height="152"></rect>
                        </g>
                        <g id="343930"></g>
                    </g>
                </g>
                <text id="2-mt" font-family="Nunito-Bold, Nunito" font-size="26" font-weight="bold" fill="#3C9DCF">
                    <tspan x="748" y="282">2 mt</tspan>
                </text>
                <text id="1-mt" font-family="Nunito-Bold, Nunito" font-size="26" font-weight="bold" fill="#3C9DCF">
                    <tspan x="403" y="609">1 mt</tspan>
                </text>
                <text id="2-mt" font-family="Nunito-Bold, Nunito" font-size="26" font-weight="bold" fill="#3C9DCF">
                    <tspan x="648" y="550">2 mt</tspan>
                </text>
            </g>
        </g>
    </g>
</svg>