<?xml version="1.0" encoding="UTF-8"?>
<svg width="802px" height="731px" viewBox="0 0 802 731" version="1.1" xmlns="http://www.w3.org/2000/svg" xmlns:xlink="http://www.w3.org/1999/xlink">
    <!-- Generator: Sketch 62 (91390) - https://sketch.com -->
    <title>Group 43</title>
    <desc>Created with Sketch.</desc>
    <defs>
        <linearGradient x1="14.4215485%" y1="15.8771693%" x2="97.2401704%" y2="104.648685%" id="linearGradient-1">
            <stop stop-color="#FFFFFF" offset="0%"></stop>
            <stop stop-color="#F8F8F8" offset="100%"></stop>
        </linearGradient>
        <circle id="path-2" cx="99.3421053" cy="626.465517" r="98.5"></circle>
        <filter x="-3.6%" y="-2.5%" width="107.1%" height="107.1%" filterUnits="objectBoundingBox" id="filter-3">
            <feOffset dx="0" dy="2" in="SourceAlpha" result="shadowOffsetOuter1"></feOffset>
            <feGaussianBlur stdDeviation="2" in="shadowOffsetOuter1" result="shadowBlurOuter1"></feGaussianBlur>
            <feColorMatrix values="0 0 0 0 0   0 0 0 0 0   0 0 0 0 0  0 0 0 0.5 0" type="matrix" in="shadowBlurOuter1"></feColorMatrix>
        </filter>
        <linearGradient x1="9.63362412%" y1="38.5639054%" x2="92.4740363%" y2="76.340839%" id="linearGradient-4">
            <stop stop-color="#3C9DCF" offset="0%"></stop>
            <stop stop-color="#03306C" offset="100%"></stop>
        </linearGradient>
        <path d="M107.256618,572.337008 C112.531924,572.337008 116.823731,576.639235 116.823731,581.92735 L116.823731,581.92735 L116.823731,620.288721 C116.823731,621.182541 116.601774,622.0169 116.238224,622.774538 L116.238224,622.774538 L120.252584,623.839066 C126.119138,625.396537 130.217689,630.734522 130.217689,636.818635 L130.217689,636.818635 L130.217689,647.245256 L133.925902,649.103864 L137.87138,637.242528 L141.816857,649.101946 L152.974024,643.508858 L147.394484,654.695034 L159.230916,658.650091 L147.396397,662.605148 L149.250504,666.322365 L158.919028,666.322365 L158.919028,681.666913 L40.2868265,681.666913 L40.2868265,666.322365 L54.492076,666.322365 C53.9754519,665.144671 53.6807848,663.851893 53.6807848,662.486228 L53.6807848,662.486228 L53.6807848,636.818635 C53.6807848,630.734522 57.779336,625.396537 63.6458898,623.837147 L63.6458898,623.837147 L67.6602504,622.772619 C67.2967001,622.0169 67.0747431,621.182541 67.0747431,620.288721 L67.0747431,620.288721 L67.0747431,581.92735 C67.0747431,576.639235 71.36655,572.337008 76.6418561,572.337008 L76.6418561,572.337008 Z M141.816857,668.196318 L138.611874,677.830776 L155.092183,677.830776 L155.092183,670.158502 L151.163927,670.158502 L152.974024,673.789406 L141.816857,668.196318 Z M133.923989,668.196318 L122.766822,673.789406 L124.578833,670.158502 L91.2183096,670.158502 C89.87126,671.338114 88.1319589,672.076571 86.2089692,672.076571 L86.2089692,672.076571 L63.2478979,672.076571 C61.0857303,672.076571 59.1110782,671.326606 57.50763,670.108632 L57.50763,670.108632 L57.50763,670.158502 L44.1136718,670.158502 L44.1136718,677.830776 L137.130885,677.830776 L133.923989,668.196318 Z M65.1613205,654.813954 L57.50763,654.813954 L57.50763,662.486228 C57.50763,665.658713 60.0830969,668.240434 63.2478979,668.240434 L63.2478979,668.240434 L86.2089692,668.240434 C88.3194743,668.240434 90.0358144,666.519926 90.0358144,664.404297 C90.0358144,662.288667 88.3194743,660.56816 86.2089692,660.56816 L86.2089692,660.56816 L68.9881657,660.56816 C66.8776605,660.56816 65.1613205,658.847652 65.1613205,656.732023 L65.1613205,656.732023 L65.1613205,654.813954 Z M137.87138,649.368558 L136.675491,652.964936 L134.704665,653.782033 L134.348769,653.603653 L139.01752,657.115636 L136.723326,660.184546 L132.416212,656.944928 L132.232523,657.397592 L131.346609,657.73709 L128.616154,658.650091 L132.209562,659.85272 L133.011286,661.828331 L131.323647,665.211803 L134.702752,663.518149 L136.568339,664.289213 L136.958677,665.192623 L137.87138,667.931625 L139.067269,664.337164 L141.038094,663.518149 L144.417198,665.211803 L142.72956,661.828331 L143.510236,659.90259 L144.396151,659.563092 L147.126605,658.650091 L143.533197,657.447462 L142.731473,655.471852 L144.419112,652.088379 L141.040007,653.782033 L139.17442,653.01097 L138.784082,652.107559 L137.87138,649.368558 Z M118.737154,659.394302 L118.737154,666.322365 L126.492255,666.322365 L128.346362,662.605148 L118.737154,659.394302 Z M114.910308,652.003984 L109.72302,655.469933 L111.699585,659.434581 L99.3331348,666.322365 L114.910308,666.322365 L114.910308,652.003984 Z M104.52425,653.62667 L92.6265886,660.253596 C93.4015248,661.452389 93.8626596,662.873678 93.8626596,664.404297 C93.8626596,664.613366 93.8167375,664.810927 93.7995167,665.014242 L93.7995167,665.014242 L106.638582,657.863683 L104.52425,653.62667 Z M123.021307,649.880682 C121.800543,648.961927 120.097597,648.871778 118.737154,649.543102 L118.737154,649.543102 L118.737154,657.905881 L128.346362,654.695034 L127.699625,653.398419 Z M71.2326104,625.791659 L68.9881657,626.388179 L68.9881657,656.732023 L86.2089692,656.732023 C87.4297328,656.732023 88.5663058,657.046586 89.5919003,657.554874 L89.5919003,657.554874 L106.16214,648.327046 L107.999026,652.011656 L114.910308,647.392947 L114.910308,626.388179 L112.665864,625.793577 C112.158807,625.939351 111.636442,626.042926 111.083463,626.042926 L111.083463,626.042926 L111.083463,629.879063 L107.256618,629.879063 L107.256618,626.042926 L101.131752,626.042926 L91.949237,638.934265 L82.7648085,626.042926 L76.6418561,626.042926 L76.6418561,643.305543 L107.256618,643.305543 L107.256618,633.7152 L111.083463,633.7152 L111.083463,647.14168 L72.8150109,647.14168 L72.8150109,626.042926 C72.2620318,626.042926 71.7396674,625.939351 71.2326104,625.791659 L71.2326104,625.791659 Z M65.1613205,627.404755 L64.6255621,627.546692 C60.4332532,628.659172 57.50763,632.472292 57.50763,636.818635 L57.50763,636.818635 L57.50763,650.977817 L65.1613205,650.977817 L65.1613205,627.404755 Z M118.73524,627.404755 L118.73524,645.482551 C120.505156,645.081674 122.397531,645.275399 124.037334,646.057971 L124.037334,646.057971 L122.766822,643.510776 L126.390844,645.327187 L126.390844,636.818635 C126.390844,632.472292 123.465221,628.659172 119.270998,627.546692 L119.270998,627.546692 L118.73524,627.404755 Z M96.4304727,626.042926 L87.4680012,626.042926 L91.949237,632.332273 L96.4304727,626.042926 Z M76.6418561,597.271899 L70.9015883,597.271899 L70.9015883,620.288721 C70.9015883,621.345576 71.7588016,622.206789 72.8150109,622.206789 L72.8150109,622.206789 L111.083463,622.206789 C112.139672,622.206789 112.996886,621.345576 112.996886,620.288721 L112.996886,620.288721 L112.996886,597.271899 L107.256618,597.271899 L107.256618,603.026104 L76.6418561,603.026104 L76.6418561,597.271899 Z M93.8626596,610.698378 L93.8626596,614.534515 L90.0358144,614.534515 L90.0358144,610.698378 L93.8626596,610.698378 Z M105.343195,610.698378 L105.343195,614.534515 L101.51635,614.534515 L101.51635,610.698378 L105.343195,610.698378 Z M82.3821239,610.698378 L82.3821239,614.534515 L78.5552787,614.534515 L78.5552787,610.698378 L82.3821239,610.698378 Z M103.429773,583.845419 L80.4687013,583.845419 L80.4687013,599.189967 L103.429773,599.189967 L103.429773,583.845419 Z M76.6418561,589.599624 L70.9015883,589.599624 L70.9015883,593.435761 L76.6418561,593.435761 L76.6418561,589.599624 Z M112.996886,589.599624 L107.256618,589.599624 L107.256618,593.435761 L112.996886,593.435761 L112.996886,589.599624 Z M107.256618,576.173145 L76.6418561,576.173145 C73.4770551,576.173145 70.9015883,578.754865 70.9015883,581.92735 L70.9015883,581.92735 L70.9015883,585.763487 L76.6418561,585.763487 L76.6418561,580.009282 L107.256618,580.009282 L107.256618,585.763487 L112.996886,585.763487 L112.996886,581.92735 C112.996886,578.754865 110.421419,576.173145 107.256618,576.173145 L107.256618,576.173145 Z" id="path-5"></path>
        <linearGradient x1="9.63362412%" y1="38.6689829%" x2="92.4740363%" y2="76.0988132%" id="linearGradient-7">
            <stop stop-color="#3C9DCF" offset="0%"></stop>
            <stop stop-color="#03306C" offset="100%"></stop>
        </linearGradient>
    </defs>
    <g id="Page-2" stroke="none" stroke-width="1" fill="none" fill-rule="evenodd">
        <g id="Artboard" transform="translate(-2312.000000, -101.000000)">
            <g id="Group-43" transform="translate(2315.000000, 101.000000)">
                <g id="Group-30">
                    <path d="M132.033306,614.093454 C42.0769022,595.511028 -21.7631264,587.961918 8.41579621,437.560407 C38.5947188,287.158897 96.0507445,251.736147 256.811544,241.283532 C417.572343,230.830918 395.73693,31.4649448 478.510552,6.68040399 C561.284173,-18.1041368 591.681511,41.5224527 671.771729,112.367952 C751.861947,183.213451 807.576881,259.865958 797.710694,344.648277 C787.844508,429.430596 768.112136,508.986607 646.816081,557.184774 C525.520027,605.382942 221.98971,632.67588 132.033306,614.093454 Z" id="Path-5" fill="#B8E1F5" fill-rule="nonzero" opacity="0.4"></path>
                    <path d="M274.988173,190.965517 L274.991292,202.123519 C333.51808,204.261082 380.5797,251.435144 382.710572,310.100901 L382.785925,310.100811 L382.785925,354.430223 L393.842105,354.430223 L393.842105,362.741988 L382.785925,362.741988 L382.785925,492.959635 L393.842105,492.959635 L393.842105,501.2714 L382.785925,501.2714 L382.785925,631.489047 L393.842105,631.489047 L393.842105,639.800811 L382.785925,639.800811 L382.785925,661.965517 L377.257836,661.965517 L377.257836,318.412576 L377.178446,318.415339 C377.231212,317.035679 377.257836,315.649303 377.257836,314.256694 C377.257836,255.345779 329.61389,207.589047 270.842105,207.589047 C212.07032,207.589047 164.426375,255.345779 164.426375,314.256694 L164.446283,316.340872 L164.505765,318.415339 L164.426375,318.412576 L164.426375,661.965517 L158.898285,661.965517 L158.898285,639.800811 L147.842105,639.800811 L147.842105,631.489047 L158.898285,631.489047 L158.898285,501.2714 L147.842105,501.2714 L147.842105,492.959635 L158.898285,492.959635 L158.898285,362.741988 L147.842105,362.741988 L147.842105,354.430223 L158.898285,354.430223 L158.898285,310.100811 L158.973638,310.100901 C161.104544,251.43422 208.167613,204.259596 266.695683,202.123418 L266.696038,190.965517 L274.988173,190.965517 Z" id="Path" fill="#9BAEBC"></path>
                    <path d="M385.988173,143.965517 L385.991292,155.123519 C444.51808,157.261082 491.5797,204.435144 493.710572,263.100901 L493.785925,263.100811 L493.785925,307.430223 L504.842105,307.430223 L504.842105,315.741988 L493.785925,315.741988 L493.785925,445.959635 L504.842105,445.959635 L504.842105,454.2714 L493.785925,454.2714 L493.785925,584.489047 L504.842105,584.489047 L504.842105,592.800811 L493.785925,592.800811 L493.785925,614.965517 L488.257836,614.965517 L488.257836,271.412576 L488.178446,271.415339 C488.231212,270.035679 488.257836,268.649303 488.257836,267.256694 C488.257836,208.345779 440.61389,160.589047 381.842105,160.589047 C323.07032,160.589047 275.426375,208.345779 275.426375,267.256694 L275.446283,269.340872 L275.505765,271.415339 L275.426375,271.412576 L275.426375,614.965517 L269.898285,614.965517 L269.898285,592.800811 L258.842105,592.800811 L258.842105,584.489047 L269.898285,584.489047 L269.898285,454.2714 L258.842105,454.2714 L258.842105,445.959635 L269.898285,445.959635 L269.898285,315.741988 L258.842105,315.741988 L258.842105,307.430223 L269.898285,307.430223 L269.898285,263.100811 L269.973638,263.100901 C272.104544,204.43422 319.167613,157.259596 377.695683,155.123418 L377.696038,143.965517 L385.988173,143.965517 Z" id="Path" fill="#9BAEBC"></path>
                    <path d="M490.988173,93.9655172 L490.991292,105.123519 C549.51808,107.261082 596.5797,154.435144 598.710572,213.100901 L598.785925,213.100811 L598.785925,257.430223 L609.842105,257.430223 L609.842105,265.741988 L598.785925,265.741988 L598.785925,395.959635 L609.842105,395.959635 L609.842105,404.2714 L598.785925,404.2714 L598.785925,534.489047 L609.842105,534.489047 L609.842105,542.800811 L598.785925,542.800811 L598.785925,564.965517 L593.257836,564.965517 L593.257836,221.412576 L593.178446,221.415339 C593.231212,220.035679 593.257836,218.649303 593.257836,217.256694 C593.257836,158.345779 545.61389,110.589047 486.842105,110.589047 C428.07032,110.589047 380.426375,158.345779 380.426375,217.256694 L380.446283,219.340872 L380.505765,221.415339 L380.426375,221.412576 L380.426375,564.965517 L374.898285,564.965517 L374.898285,542.800811 L363.842105,542.800811 L363.842105,534.489047 L374.898285,534.489047 L374.898285,404.2714 L363.842105,404.2714 L363.842105,395.959635 L374.898285,395.959635 L374.898285,265.741988 L363.842105,265.741988 L363.842105,257.430223 L374.898285,257.430223 L374.898285,213.100811 L374.973638,213.100901 C377.104544,154.43422 424.167613,107.259596 482.695683,105.123418 L482.696038,93.9655172 L490.988173,93.9655172 Z" id="Path" fill="#9BAEBC"></path>
                    <polygon id="Rectangle" fill="#9BAEBC" points="158.842105 329.439201 377.842105 229.965517 377.842105 235.491833 158.842105 334.965517"></polygon>
                    <polygon id="Rectangle" fill="#9BAEBC" points="380.842105 329.439201 599.842105 229.965517 599.842105 235.491833 380.842105 334.965517"></polygon>
                    <polygon id="Rectangle" fill="#9BAEBC" points="158.842105 661.439201 377.842105 561.965517 377.842105 567.491833 158.842105 666.965517"></polygon>
                    <polygon id="Rectangle" fill="#9BAEBC" points="380.842105 661.439201 599.842105 561.965517 599.842105 567.491833 380.842105 666.965517"></polygon>
                    <g id="Oval">
                        <use fill="black" fill-opacity="1" filter="url(#filter-3)" xlink:href="#path-2"></use>
                        <use fill="url(#linearGradient-1)" fill-rule="evenodd" xlink:href="#path-2"></use>
                    </g>
                    <mask id="mask-6" fill="white">
                        <use xlink:href="#path-5"></use>
                    </mask>
                    <path stroke="#979797" d="M93.3626596,611.198378 L93.3626596,614.034515 L90.5358144,614.034515 L90.5358144,611.198378 L93.3626596,611.198378 Z M104.843195,611.198378 L104.843195,614.034515 L102.01635,614.034515 L102.01635,611.198378 L104.843195,611.198378 Z M81.8821239,611.198378 L81.8821239,614.034515 L79.0552787,614.034515 L79.0552787,611.198378 L81.8821239,611.198378 Z M158.419028,666.822365 L158.419028,681.166913 L40.7868265,681.166913 L40.7868265,666.822365 L55.2922865,666.822365 C54.5928001,665.526423 54.1807848,664.057292 54.1807848,662.486228 L54.1807848,636.818635 C54.1807848,633.889827 55.1673082,631.140634 56.8597416,628.935911 C58.5520911,626.731296 60.9503695,625.071007 63.7740501,624.320443 L68.4026123,623.093041 C67.9027085,622.268933 67.5747431,621.322814 67.5747431,620.288721 L67.5747431,581.92735 C67.5747431,579.421004 68.5919276,577.148362 70.2340416,575.50226 C71.8757169,573.856599 74.142191,572.837008 76.6418561,572.837008 L107.256618,572.837008 C109.756283,572.837008 112.022757,573.856599 113.664432,575.50226 C115.306546,577.148362 116.323731,579.421004 116.323731,581.92735 L116.323731,620.288721 C116.323731,621.322216 115.99613,622.267833 115.496876,623.095228 L120.124287,624.322325 C122.948108,625.072002 125.346275,626.731721 127.038583,628.935956 C128.731111,631.140477 129.717689,633.889744 129.717689,636.818635 L129.717689,647.553937 L134.218087,649.8096 L137.871418,638.826546 L141.524711,649.807707 L151.856996,644.628132 L146.690174,654.986868 L157.653339,658.650129 L146.6921,662.313339 L148.941152,666.822365 L158.419028,666.822365 Z M113.496886,586.263487 L113.496886,581.92735 C113.496886,580.203413 112.797259,578.639909 111.667534,577.507441 C110.53737,576.374533 108.97699,575.673145 107.256618,575.673145 L76.6418561,575.673145 C74.9214843,575.673145 73.361104,576.374533 72.23094,577.507441 C71.1012149,578.639909 70.4015883,580.203413 70.4015883,581.92735 L70.4015883,586.263487 L77.1418561,586.263487 L77.1418561,580.509282 L106.756618,580.509282 L106.756618,586.263487 L113.496886,586.263487 Z M126.801607,666.822365 L129.050672,662.313314 L118.237154,658.700056 L118.237154,666.822365 L126.801607,666.822365 Z M134.216056,667.490597 L123.884321,672.669895 L125.387164,669.658502 L91.0269188,669.658502 C89.7502564,670.832284 88.0724952,671.576571 86.2089692,671.576571 L63.2478979,671.576571 C61.137495,671.576571 59.2164634,670.821214 57.6726193,669.658502 L43.6136718,669.658502 L43.6136718,678.330776 L137.824285,678.330776 L134.216056,667.490597 Z M144.56497,660.033854 L148.702668,658.650303 L143.910009,657.046313 L143.279664,655.493015 L145.536063,650.969258 L141.020035,653.232755 L139.552929,652.626387 L139.251623,651.929036 L137.870882,647.78546 L136.285375,652.553531 L133.234405,653.391063 L138.318571,657.215535 L136.59739,659.517933 L132.285324,656.841901 L131.17779,657.266328 L127.040091,658.649879 L131.83275,660.253869 L132.463096,661.807167 L130.206696,666.330924 L134.722725,664.067427 L136.18983,664.673795 L136.491136,665.371146 L137.871751,669.514342 L139.469714,664.711376 L141.018643,664.067688 L145.53415,666.330924 L143.277702,661.80707 L143.891998,660.291749 L144.56497,660.033854 Z M103.929773,583.345419 L79.9687013,583.345419 L79.9687013,599.689967 L103.929773,599.689967 L103.929773,583.345419 Z M111.083463,622.706789 C111.74942,622.706789 112.352826,622.435671 112.789764,621.997673 C113.226643,621.559732 113.496886,620.955046 113.496886,620.288721 L113.496886,596.771899 L106.756618,596.771899 L106.756618,602.526104 L77.1418561,602.526104 L77.1418561,596.771899 L70.4015883,596.771899 L70.4015883,620.288721 C70.4015883,620.955046 70.6718308,621.559732 71.1087103,621.997673 C71.5456476,622.435671 72.1490539,622.706789 72.8150109,622.706789 L111.083463,622.706789 Z M126.890844,636.818635 C126.890844,634.531925 126.121131,632.385488 124.799635,630.664547 C123.478337,628.943863 121.605504,627.648609 119.399186,627.063403 L118.23524,626.755042 L118.23524,646.135383 C120.613236,645.384128 123.330303,645.823217 125.286904,647.442972 L123.883773,644.629897 L126.890844,646.137083 L126.890844,636.818635 Z M105.948167,649.01851 L107.804836,652.742805 L115.410308,647.660179 L115.410308,626.003391 L112.658576,625.274399 C112.005671,625.472048 111.327887,625.608382 110.583463,625.510396 L110.583463,629.379063 L107.756618,629.379063 L107.756618,625.542926 L100.874027,625.542926 L91.9491946,638.072504 L83.0225023,625.542926 L76.1418561,625.542926 L76.1418561,643.805543 L107.756618,643.805543 L107.756618,634.2152 L110.583463,634.2152 L110.583463,646.64168 L73.3150109,646.64168 L73.3150109,625.510436 C72.5708406,625.608186 71.893336,625.472781 71.2407031,625.272151 L68.4881657,626.003709 L68.4881657,657.232023 L86.2089692,657.232023 C87.4425505,657.232023 88.5834291,657.577939 89.6011844,658.122008 L105.948167,649.01851 Z M115.410308,651.068562 L109.079045,655.298873 L111.038993,659.230189 L97.4078651,666.822365 L115.410308,666.822365 L115.410308,651.068562 Z M65.6613205,626.755042 L64.4975158,627.063366 C62.291859,627.648663 60.4194114,628.944034 59.0983383,630.664887 C57.7772448,632.385767 57.00763,634.532073 57.00763,636.818635 L57.00763,651.477817 L65.6613205,651.477817 L65.6613205,626.755042 Z M129.050672,654.986868 L128.094402,653.069684 L123.321799,649.481051 C122.643505,648.970563 121.833437,648.68501 121.001736,648.619475 C120.050889,648.54455 119.072835,648.757752 118.237154,649.244394 L118.237154,658.600126 L129.050672,654.986868 Z M97.4006656,625.542926 L86.4978084,625.542926 L91.949237,633.193924 L97.4006656,625.542926 Z M155.592183,678.330776 L155.592183,669.658502 L150.355976,669.658502 L151.857468,672.670368 L141.524697,667.49055 L137.918605,678.330776 L155.592183,678.330776 Z M86.2089692,668.740434 C87.4022348,668.740434 88.4842362,668.25433 89.267813,667.468851 C90.0509512,666.683811 90.5358144,665.599848 90.5358144,664.404297 C90.5358144,663.208745 90.0509512,662.124782 89.267813,661.339743 C88.4842362,660.554263 87.4022348,660.06816 86.2089692,660.06816 L68.9881657,660.06816 C68.0709261,660.06816 67.2395049,659.694009 66.6372855,659.090328 C66.0346273,658.486206 65.6613205,657.652101 65.6613205,656.732023 L65.6613205,654.313954 L57.00763,654.313954 L57.00763,662.486228 C57.00763,664.210166 57.7072566,665.773669 58.8369817,666.906137 C59.9671457,668.039045 61.5275261,668.740434 63.2478979,668.740434 L86.2089692,668.740434 Z M113.496886,589.099624 L106.756618,589.099624 L106.756618,593.935761 L113.496886,593.935761 L113.496886,589.099624 Z M107.299336,658.068 L104.738028,652.935268 L91.900433,660.085732 C92.9280423,661.460734 93.4995955,663.079704 93.2449264,665.89543 L107.299336,658.068 Z M77.1418561,589.099624 L70.4015883,589.099624 L70.4015883,593.935761 L77.1418561,593.935761 L77.1418561,589.099624 Z"></path>
                    <rect id="Rectangle" stroke="#979797" fill="url(#linearGradient-7)" mask="url(#mask-6)" x="19.5" y="553.5" width="160.684211" height="146.931034"></rect>
                </g>
                <g id="Group-29" transform="translate(30.842105, 482.965517)">
                    <g id="Group-28" transform="translate(39.000000, 44.000000)">
                        <g id="Group-27">
                            <g id="656221"></g>
                        </g>
                    </g>
                </g>
            </g>
        </g>
    </g>
</svg>