<?xml version="1.0" encoding="UTF-8"?>
<svg width="99px" height="30px" viewBox="0 0 99 30" version="1.1" xmlns="http://www.w3.org/2000/svg" xmlns:xlink="http://www.w3.org/1999/xlink">
    <!-- Generator: Sketch 62 (91390) - https://sketch.com -->
    <title>Group 7</title>
    <desc>Created with Sketch.</desc>
    <defs>
        <linearGradient x1="14.9571854%" y1="79.2402909%" x2="90.8316207%" y2="79.2402909%" id="linearGradient-1">
            <stop stop-color="#FFFFFF" offset="0%"></stop>
            <stop stop-color="#FFFFFF" stop-opacity="0.4" offset="100%"></stop>
        </linearGradient>
        <linearGradient x1="50%" y1="79.2402909%" x2="50%" y2="18.7895124%" id="linearGradient-2">
            <stop stop-color="#FFFFFF" offset="0%"></stop>
            <stop stop-color="#FFFFFF" stop-opacity="0.4" offset="100%"></stop>
        </linearGradient>
        <linearGradient x1="0.0226924728%" y1="49.9168507%" x2="99.9708725%" y2="49.9168507%" id="linearGradient-3">
            <stop stop-color="#FFFFFF" offset="0%"></stop>
            <stop stop-color="#FFFFFF" stop-opacity="0.4" offset="100%"></stop>
        </linearGradient>
        <linearGradient x1="50%" y1="79.2402909%" x2="50%" y2="18.7895124%" id="linearGradient-4">
            <stop stop-color="#FFFFFF" stop-opacity="0.4" offset="0%"></stop>
            <stop stop-color="#FFFFFF" offset="100%"></stop>
        </linearGradient>
    </defs>
    <g id="Page-1" stroke="none" stroke-width="1" fill="none" fill-rule="evenodd">
        <g id="Group-7">
            <g id="Group-6" opacity="0.499651228" transform="translate(34.000000, 10.000000)" fill="#FFFFFF" font-family="MyriadPro-Regular, Myriad Pro" font-size="13.83" font-weight="normal">
                <text id="k" fill-opacity="0.8">
                    <tspan x="0" y="10">k</tspan>
                </text>
                <text id="r">
                    <tspan x="6.72" y="10">r</tspan>
                </text>
                <text id="om">
                    <tspan x="11.1" y="10">om</tspan>
                </text>
            </g>
            <text id="Clean" fill="#FFFFFF" font-family="MyriadPro-Regular, Myriad Pro" font-size="13.83" font-weight="normal">
                <tspan x="67.16" y="20">Clean</tspan>
            </text>
            <g id="Group-4" fill-rule="nonzero">
                <path d="M12.1489624,18.5139653 C11.5534638,19.0918678 10.775929,19.4452926 9.94896236,19.5139653 C9.60896236,19.5139653 7.86396236,19.5489653 7.52896236,19.5139653 C6.70557013,19.4317957 5.93227956,19.0803 5.32896236,18.5139653 C4.66981179,17.868027 3.80007751,17.481084 2.87896236,17.4239653 C2.09204269,17.4159693 1.33684015,17.7337118 0.792338109,18.3018879 C0.247836065,18.8700639 -0.0374972291,19.6380979 0.00396235694,20.4239653 C-0.0374972291,21.2098327 0.247836065,21.9778667 0.792338109,22.5460427 C1.33684015,23.1142187 2.09204269,23.4319613 2.87896236,23.4239653 C3.79042461,23.3675885 4.65196063,22.988229 5.30896236,22.3539653 C5.91057222,21.7850868 6.68477622,21.4331759 7.50896236,21.3539653 C7.84396236,21.3539653 9.46396236,21.3539653 9.92896236,21.3539653 C10.7563547,21.4209998 11.5344181,21.774665 12.1289624,22.3539653 C12.7868346,22.9988116 13.6546016,23.3856689 14.5739624,23.4439653 C15.361338,23.4534413 16.1174266,23.1361592 16.6622555,22.5676421 C17.2070844,21.9991249 17.4919199,21.2302254 17.4489624,20.4439653 C17.4974209,19.6578471 17.2178252,18.8868151 16.6767552,18.3144749 C16.1356853,17.7421347 15.3815611,17.4197047 14.5939624,17.4239653 C13.6746016,17.4822617 12.8068346,17.869119 12.1489624,18.5139653 Z" id="Path" fill="url(#linearGradient-1)"></path>
                <path d="M6.80896236,5.3289653 C7.38756549,5.92599726 7.74101123,6.70534512 7.80896236,7.5339653 C7.80896236,7.8689653 7.80896236,9.6139653 7.80896236,9.9489653 C7.72212546,10.7725696 7.37134969,11.5460301 6.80896236,12.1539653 C6.16377555,12.8121057 5.77536613,13.679376 5.71396236,14.5989653 C5.70596633,15.385885 6.02370891,16.1410875 6.59188495,16.6855895 C7.160061,17.2300916 7.92809494,17.5154249 8.71396236,17.4739653 C9.49982977,17.5154249 10.2678637,17.2300916 10.8360398,16.6855895 C11.4042158,16.1410875 11.7219584,15.385885 11.7139624,14.5989653 C11.6547522,13.6788316 11.266016,12.8108316 10.6189624,12.1539653 C10.0487522,11.5512559 9.69671403,10.7750118 9.61896236,9.9489653 C9.61896236,9.6139653 9.61896236,7.9939653 9.61896236,7.5339653 C9.68444517,6.70470686 10.0382529,5.92456085 10.6189624,5.3289653 C11.2652662,4.67158684 11.6538709,3.80388057 11.7139624,2.8839653 C11.7233503,2.09618166 11.4062179,1.33965463 10.8378804,0.794050653 C10.2695429,0.248446672 9.50070703,-0.0375558812 8.71396236,0.00396529518 C7.92929978,-0.0332177958 7.16398429,0.254547322 6.59821176,0.799505478 C6.03243923,1.34446363 5.71620319,2.09846053 5.72396236,2.8839653 C5.78351633,3.80202261 6.16817635,4.66883713 6.80896236,5.3289653 Z" id="Path" fill="url(#linearGradient-2)"></path>
                <path d="M26.3389624,12.2289653 C25.4182732,12.16796 24.5503341,11.7774761 23.8939624,11.1289653 C23.2966939,10.5507096 22.5174769,10.1973233 21.6889624,10.1289653 C21.3539624,10.1039653 19.6139624,10.0989653 19.2739624,10.1289653 C18.4520235,10.2164968 17.6803636,10.5672512 17.0739624,11.1289653 C16.4170779,11.7767281 15.5494318,12.1670801 14.6289624,12.2289653 C13.8416328,12.2368781 13.085988,11.9192861 12.5407097,11.3512878 C11.9954314,10.7832896 11.7089336,10.0153164 11.7489624,9.2289653 C11.7074412,8.44222062 11.9934437,7.67338472 12.5390477,7.10504724 C13.0846517,6.53670976 13.8411787,6.21957735 14.6289624,6.2289653 C15.5457087,6.28579626 16.4123566,6.66683776 17.0739624,7.3039653 C17.6755722,7.87284375 18.4497762,8.22475466 19.2739624,8.3039653 C19.6139624,8.3289653 21.2339624,8.3289653 21.6889624,8.3039653 C22.5181138,8.23806782 23.2981253,7.88432112 23.8939624,7.3039653 C24.5521028,6.65877848 25.4193731,6.27036907 26.3389624,6.2089653 C27.125882,6.20096926 27.8810846,6.51871185 28.4255866,7.08688789 C28.9700886,7.65506394 29.2554219,8.42309788 29.2139624,9.2089653 C29.2611674,9.99819546 28.978397,10.771569 28.433246,11.3442146 C27.888095,11.9168602 27.1295589,12.2373112 26.3389624,12.2289653 Z" id="Path" fill="url(#linearGradient-3)"></path>
                <path d="M18.5639624,24.3039653 C19.1411817,23.7059922 19.4943915,22.9271645 19.5639624,22.0989653 C19.5889624,21.7689653 19.5939624,20.0139653 19.5639624,19.6839653 C19.4807013,18.8608674 19.1293576,18.0879113 18.5639624,17.4839653 C17.9195389,16.8232869 17.5313655,15.9547711 17.4689624,15.0339653 C17.4610495,14.2466358 17.7786416,13.4909909 18.3466398,12.9457126 C18.914638,12.4004343 19.6826112,12.1139365 20.4689624,12.1539653 C21.255707,12.1124441 22.0245429,12.3984467 22.5928804,12.9440507 C23.1612179,13.4896546 23.4783503,14.2461817 23.4689624,15.0339653 C23.40835,15.954221 23.0219231,16.8227952 22.3789624,17.4839653 C21.8074823,18.0838221 21.4551416,18.8589718 21.3789624,19.6839653 C21.3489624,20.0139653 21.3539624,21.6389653 21.3789624,22.0989653 C21.4436119,22.9284383 21.7975425,23.7088553 22.3789624,24.3039653 C23.0216042,24.9613171 23.4081818,25.8266836 23.4689624,26.7439653 C23.4783503,27.5317489 23.1612179,28.288276 22.5928804,28.8338799 C22.0245429,29.3794839 21.255707,29.6654865 20.4689624,29.6239653 C19.6848447,29.6653093 18.9184081,29.3813154 18.3505533,28.839014 C17.7826985,28.2967127 17.4637405,27.5441548 17.4689624,26.7589653 C17.5280217,25.8358656 17.9166016,24.9646658 18.5639624,24.3039653 Z" id="Path" fill="url(#linearGradient-4)"></path>
            </g>
        </g>
    </g>
</svg>