<?xml version="1.0" encoding="UTF-8"?>
<svg width="705px" height="554px" viewBox="0 0 705 554" version="1.1" xmlns="http://www.w3.org/2000/svg" xmlns:xlink="http://www.w3.org/1999/xlink">
    <!-- Generator: Sketch 62 (91390) - https://sketch.com -->
    <title>Group 42</title>
    <desc>Created with Sketch.</desc>
    <defs>
        <path d="M106.424798,0.852035337 C165.201591,0.852035337 212.849596,48.6056448 212.849596,107.512707 C212.849596,108.904597 212.822994,110.29026 212.770271,111.669213 L212.849596,111.668318 L212.849596,463.510016 L0,463.510016 L0,111.668318 L0.0793252221,111.669213 C0.0266023285,110.29026 0,108.904597 0,107.512707 C0,48.6056448 47.648005,0.852035337 106.424798,0.852035337 Z" id="path-1"></path>
        <linearGradient x1="14.4215485%" y1="15.8771693%" x2="97.2401704%" y2="104.648685%" id="linearGradient-3">
            <stop stop-color="#FFFFFF" offset="0%"></stop>
            <stop stop-color="#F8F8F8" offset="100%"></stop>
        </linearGradient>
        <circle id="path-4" cx="98.5" cy="449.5" r="98.5"></circle>
        <filter x="-3.6%" y="-2.5%" width="107.1%" height="107.1%" filterUnits="objectBoundingBox" id="filter-5">
            <feOffset dx="0" dy="2" in="SourceAlpha" result="shadowOffsetOuter1"></feOffset>
            <feGaussianBlur stdDeviation="2" in="shadowOffsetOuter1" result="shadowBlurOuter1"></feGaussianBlur>
            <feColorMatrix values="0 0 0 0 0   0 0 0 0 0   0 0 0 0 0  0 0 0 0.5 0" type="matrix" in="shadowBlurOuter1"></feColorMatrix>
        </filter>
        <path d="M110.274194,0 C113.715581,0 116.516129,2.80904348 116.516129,6.26086957 L116.516129,6.26086957 L116.516129,8.34782609 L118.596774,8.34782609 C124.333113,8.34782609 129,13.0288696 129,18.7826087 L129,18.7826087 L129,85.5652174 C129,91.3189565 124.333113,96 118.596774,96 L118.596774,96 L10.4032258,96 C4.6668871,96 0,91.3189565 0,85.5652174 L0,85.5652174 L0,18.7826087 C0,13.0288696 4.6668871,8.34782609 10.4032258,8.34782609 L10.4032258,8.34782609 L79.0645161,8.34782609 L79.0645161,6.26086957 C79.0645161,2.80904348 81.8650645,0 85.3064516,0 L85.3064516,0 Z M79.0645161,12.5217391 L10.4032258,12.5217391 C6.96183871,12.5217391 4.16129032,15.3307826 4.16129032,18.7826087 L4.16129032,18.7826087 L4.16129032,85.5652174 C4.16129032,89.0170435 6.96183871,91.826087 10.4032258,91.826087 L10.4032258,91.826087 L99.8709677,91.826087 L99.8709677,66.7826087 L124.83871,66.7826087 L124.83871,18.7826087 C124.83871,15.3307826 122.038161,12.5217391 118.596774,12.5217391 L118.596774,12.5217391 L116.516129,12.5217391 L116.516129,14.6086957 C116.516129,18.0605217 113.715581,20.8695652 110.274194,20.8695652 L110.274194,20.8695652 L85.3064516,20.8695652 C81.8650645,20.8695652 79.0645161,18.0605217 79.0645161,14.6086957 L79.0645161,14.6086957 L79.0645161,12.5217391 Z M124.83871,70.9565217 L104.032258,70.9565217 L104.032258,91.826087 L118.596774,91.826087 C122.038161,91.826087 124.83871,89.0170435 124.83871,85.5652174 L124.83871,85.5652174 L124.83871,70.9565217 Z M29.1290323,25.0434783 L29.1290323,33.3913043 L33.2903226,33.3913043 L33.2903226,25.0434783 L37.4516129,25.0434783 L37.4516129,33.3913043 L41.6129032,33.3913043 L41.6129032,25.0434783 L45.7741935,25.0434783 L45.7741935,33.3913043 L49.9354839,33.3913043 L49.9354839,25.0434783 L54.0967742,25.0434783 L54.0967742,33.3913043 L58.2580645,33.3913043 L58.2580645,25.0434783 L62.4193548,25.0434783 L62.4193548,33.3913043 C64.7143065,33.3913043 66.5806452,35.2633043 66.5806452,37.5652174 L66.5806452,37.5652174 L74.9032258,37.5652174 L74.9032258,41.7391304 L66.5806452,41.7391304 L66.5806452,45.9130435 L74.9032258,45.9130435 L74.9032258,50.0869565 L66.5806452,50.0869565 L66.5806452,54.2608696 L74.9032258,54.2608696 L74.9032258,58.4347826 L66.5806452,58.4347826 L66.5806452,62.6086957 L74.9032258,62.6086957 L74.9032258,66.7826087 L66.5806452,66.7826087 L66.5806452,70.9565217 L74.9032258,70.9565217 L74.9032258,75.1304348 L66.5806452,75.1304348 C66.5806452,77.4323478 64.7143065,79.3043478 62.4193548,79.3043478 L62.4193548,79.3043478 L62.4193548,87.6521739 L58.2580645,87.6521739 L58.2580645,79.3043478 L54.0967742,79.3043478 L54.0967742,87.6521739 L49.9354839,87.6521739 L49.9354839,79.3043478 L45.7741935,79.3043478 L45.7741935,87.6521739 L41.6129032,87.6521739 L41.6129032,79.3043478 L37.4516129,79.3043478 L37.4516129,87.6521739 L33.2903226,87.6521739 L33.2903226,79.3043478 L29.1290323,79.3043478 L29.1290323,87.6521739 L24.9677419,87.6521739 L24.9677419,79.3043478 C22.6727903,79.3043478 20.8064516,77.4323478 20.8064516,75.1304348 L20.8064516,75.1304348 L12.483871,75.1304348 L12.483871,70.9565217 L20.8064516,70.9565217 L20.8064516,66.7826087 L12.483871,66.7826087 L12.483871,62.6086957 L20.8064516,62.6086957 L20.8064516,58.4347826 L12.483871,58.4347826 L12.483871,54.2608696 L20.8064516,54.2608696 L20.8064516,50.0869565 L12.483871,50.0869565 L12.483871,45.9130435 L20.8064516,45.9130435 L20.8064516,41.7391304 L12.483871,41.7391304 L12.483871,37.5652174 L20.8064516,37.5652174 C20.8064516,35.2633043 22.6727903,33.3913043 24.9677419,33.3913043 L24.9677419,33.3913043 L24.9677419,25.0434783 L29.1290323,25.0434783 Z M87.3870968,70.9565217 C91.977,70.9565217 95.7096774,74.7005217 95.7096774,79.3043478 C95.7096774,83.9081739 91.977,87.6521739 87.3870968,87.6521739 C82.7971935,87.6521739 79.0645161,83.9081739 79.0645161,79.3043478 C79.0645161,74.7005217 82.7971935,70.9565217 87.3870968,70.9565217 Z M114.435484,75.1304348 C117.876871,75.1304348 120.677419,77.9394783 120.677419,81.3913043 C120.677419,84.8431304 117.876871,87.6521739 114.435484,87.6521739 C110.994097,87.6521739 108.193548,84.8431304 108.193548,81.3913043 C108.193548,77.9394783 110.994097,75.1304348 114.435484,75.1304348 Z M87.3870968,75.1304348 C85.0921452,75.1304348 83.2258065,77.0024348 83.2258065,79.3043478 C83.2258065,81.6062609 85.0921452,83.4782609 87.3870968,83.4782609 C89.6820484,83.4782609 91.5483871,81.6062609 91.5483871,79.3043478 C91.5483871,77.0024348 89.6820484,75.1304348 87.3870968,75.1304348 Z M114.435484,79.3043478 C113.289048,79.3043478 112.354839,80.2393043 112.354839,81.3913043 C112.354839,82.5433043 113.289048,83.4782609 114.435484,83.4782609 C115.581919,83.4782609 116.516129,82.5433043 116.516129,81.3913043 C116.516129,80.2393043 115.581919,79.3043478 114.435484,79.3043478 Z M62.4193548,37.5652174 L24.9677419,37.5652174 L24.9677419,75.1304348 L62.4214355,75.1304348 L62.4193548,37.5652174 Z M58.2580645,41.7391304 L58.2580645,70.9565217 L29.1290323,70.9565217 L29.1290323,41.7391304 L58.2580645,41.7391304 Z M54.0967742,45.9130435 L33.2903226,45.9130435 L33.2903226,66.7826087 L54.0967742,66.7826087 L54.0967742,45.9130435 Z M120.677419,45.9130435 L120.677419,62.6086957 L83.2258065,62.6086957 L83.2258065,45.9130435 L120.677419,45.9130435 Z M116.516129,50.0869565 L87.3870968,50.0869565 L87.3870968,58.4347826 L116.516129,58.4347826 L116.516129,50.0869565 Z M91.5483871,25.0434783 C96.1382903,25.0434783 99.8709677,28.7874783 99.8709677,33.3913043 C99.8709677,37.9951304 96.1382903,41.7391304 91.5483871,41.7391304 C86.9584839,41.7391304 83.2258065,37.9951304 83.2258065,33.3913043 C83.2258065,28.7874783 86.9584839,25.0434783 91.5483871,25.0434783 Z M112.354839,25.0434783 C116.944742,25.0434783 120.677419,28.7874783 120.677419,33.3913043 C120.677419,37.9951304 116.944742,41.7391304 112.354839,41.7391304 C107.764935,41.7391304 104.032258,37.9951304 104.032258,33.3913043 C104.032258,28.7874783 107.764935,25.0434783 112.354839,25.0434783 Z M91.5483871,29.2173913 C89.2534355,29.2173913 87.3870968,31.0893913 87.3870968,33.3913043 C87.3870968,35.6932174 89.2534355,37.5652174 91.5483871,37.5652174 C93.8433387,37.5652174 95.7096774,35.6932174 95.7096774,33.3913043 C95.7096774,31.0893913 93.8433387,29.2173913 91.5483871,29.2173913 Z M112.354839,29.2173913 C110.059887,29.2173913 108.193548,31.0893913 108.193548,33.3913043 C108.193548,35.6932174 110.059887,37.5652174 112.354839,37.5652174 C114.64979,37.5652174 116.516129,35.6932174 116.516129,33.3913043 C116.516129,31.0893913 114.64979,29.2173913 112.354839,29.2173913 Z M14.5645161,16.6956522 C18.0059032,16.6956522 20.8064516,19.5046957 20.8064516,22.9565217 C20.8064516,26.4083478 18.0059032,29.2173913 14.5645161,29.2173913 C11.123129,29.2173913 8.32258065,26.4083478 8.32258065,22.9565217 C8.32258065,19.5046957 11.123129,16.6956522 14.5645161,16.6956522 Z M14.5645161,20.8695652 C13.4180806,20.8695652 12.483871,21.8045217 12.483871,22.9565217 C12.483871,24.1085217 13.4180806,25.0434783 14.5645161,25.0434783 C15.7109516,25.0434783 16.6451613,24.1085217 16.6451613,22.9565217 C16.6451613,21.8045217 15.7109516,20.8695652 14.5645161,20.8695652 Z M110.274194,4.17391304 L85.3064516,4.17391304 C84.1600161,4.17391304 83.2258065,5.10886957 83.2258065,6.26086957 L83.2258065,6.26086957 L83.2258065,14.6086957 C83.2258065,15.7606957 84.1600161,16.6956522 85.3064516,16.6956522 L85.3064516,16.6956522 L110.274194,16.6956522 C111.420629,16.6956522 112.354839,15.7606957 112.354839,14.6086957 L112.354839,14.6086957 L112.354839,6.26086957 C112.354839,5.10886957 111.420629,4.17391304 110.274194,4.17391304 L110.274194,4.17391304 Z M99.8709677,8.34782609 L99.8709677,12.5217391 L95.7096774,12.5217391 L95.7096774,8.34782609 L99.8709677,8.34782609 Z M108.193548,8.34782609 L108.193548,12.5217391 L104.032258,12.5217391 L104.032258,8.34782609 L108.193548,8.34782609 Z M91.5483871,8.34782609 L91.5483871,12.5217391 L87.3870968,12.5217391 L87.3870968,8.34782609 L91.5483871,8.34782609 Z" id="path-6"></path>
        <linearGradient x1="9.63362412%" y1="38.6552945%" x2="92.4740363%" y2="76.1303417%" id="linearGradient-8">
            <stop stop-color="#3C9DCF" offset="0%"></stop>
            <stop stop-color="#03306C" offset="100%"></stop>
        </linearGradient>
        <linearGradient x1="50.0261987%" y1="100.001228%" x2="50.0261987%" y2="-0.00357498676%" id="linearGradient-9">
            <stop stop-color="#808080" stop-opacity="0.25" offset="0%"></stop>
            <stop stop-color="#808080" stop-opacity="0.12" offset="54%"></stop>
            <stop stop-color="#808080" stop-opacity="0.1" offset="100%"></stop>
        </linearGradient>
    </defs>
    <g id="Page-2" stroke="none" stroke-width="1" fill="none" fill-rule="evenodd">
        <g id="Artboard" transform="translate(-110.000000, -1739.000000)">
            <g id="Group-42" transform="translate(114.000000, 1739.000000)">
                <g id="Group">
                    <path d="M126.02495,543 C48.5249501,527 -6.47504988,520.5 19.5249501,391 C45.5249501,261.5 95.0249501,231 233.52495,222 C372.02495,213 353.213121,41.3401981 424.52495,20 C495.836779,-1.34019812 522.02495,50 591.02495,111 C660.02495,172 708.02495,238 699.52495,311 C691.02495,384 674.02495,452.5 569.52495,494 C465.02495,535.5 203.52495,559 126.02495,543 Z" id="Path-5" fill="#B8E1F5" fill-rule="nonzero" opacity="0.4" transform="translate(356.749846, 281.567667) scale(-1, 1) translate(-356.749846, -281.567667) "></path>
                    <g id="Group-8" transform="translate(177.524950, 0.000000)">
                        <path d="M127.146067,50 L127.149187,61.1580016 C185.675974,63.2955643 232.737595,110.469627 234.868467,169.135384 L234.94382,169.135294 L234.94382,213.464706 L246,213.464706 L246,221.776471 L234.94382,221.776471 L234.94382,351.994118 L246,351.994118 L246,360.305882 L234.94382,360.305882 L234.94382,490.523529 L246,490.523529 L246,498.835294 L234.94382,498.835294 L234.94382,521 L229.41573,521 L229.41573,177.447059 L229.33634,177.449821 C229.389106,176.070162 229.41573,174.683786 229.41573,173.291176 C229.41573,114.380262 181.771785,66.6235294 123,66.6235294 C64.228215,66.6235294 16.5842697,114.380262 16.5842697,173.291176 L16.6041774,175.375355 L16.6636596,177.449821 L16.5842697,177.447059 L16.5842697,521 L11.0561798,521 L11.0561798,498.835294 L0,498.835294 L0,490.523529 L11.0561798,490.523529 L11.0561798,360.305882 L0,360.305882 L0,351.994118 L11.0561798,351.994118 L11.0561798,221.776471 L0,221.776471 L0,213.464706 L11.0561798,213.464706 L11.0561798,169.135294 L11.1315329,169.135384 C13.2624384,110.468703 60.3255079,63.2940787 118.853578,61.1579007 L118.853933,50 L127.146067,50 Z" id="Path" fill="#9BAEBC"></path>
                        <path d="M126.640449,20 L126.643189,29.7972697 C178.032563,31.674154 219.354962,73.0952821 221.225971,124.606678 L221.292135,124.6066 L221.292135,163.529986 L231,163.529986 L231,170.828121 L221.292135,170.828121 L221.292135,285.165567 L231,285.165567 L231,292.463702 L221.292135,292.463702 L221.292135,406.801148 L231,406.801148 L231,414.099283 L221.292135,414.099283 L221.292135,433.560976 L216.438202,433.560976 L216.438202,131.904735 L216.368494,131.90716 C216.414825,130.695752 216.438202,129.478446 216.438202,128.255667 C216.438202,76.5290103 174.604494,34.5962697 123,34.5962697 C71.3955059,34.5962697 29.5617978,76.5290103 29.5617978,128.255667 L29.5792777,130.085678 L29.631506,131.90716 L29.5617978,131.904735 L29.5617978,433.560976 L24.7078652,433.560976 L24.7078652,414.099283 L15,414.099283 L15,406.801148 L24.7078652,406.801148 L24.7078652,292.463702 L15,292.463702 L15,285.165567 L24.7078652,285.165567 L24.7078652,170.828121 L15,170.828121 L15,163.529986 L24.7078652,163.529986 L24.7078652,124.6066 L24.7740289,124.606678 C26.6450679,73.094471 67.9687386,31.6728496 119.359239,29.7971811 L119.359551,20 L126.640449,20 Z" id="Path" fill="#9BAEBC"></path>
                        <path d="M126.134831,-5.68434189e-14 L126.13719,8.43653782 C170.389151,10.0527438 205.972328,45.7209374 207.583475,90.0779731 L207.640449,90.0779053 L207.640449,123.595265 L216,123.595265 L216,129.87977 L207.640449,129.87977 L207.640449,228.337016 L216,228.337016 L216,234.621521 L207.640449,234.621521 L207.640449,333.078766 L216,333.078766 L216,339.363271 L207.640449,339.363271 L207.640449,356.121951 L203.460674,356.121951 L203.460674,96.3624103 L203.400648,96.3644992 C203.440544,95.3213419 203.460674,94.2731063 203.460674,93.2201578 C203.460674,48.6777588 167.437203,12.56901 123,12.56901 C78.5627967,12.56901 42.5393258,48.6777588 42.5393258,93.2201578 L42.5543781,94.7960002 L42.5993523,96.3644992 L42.5393258,96.3624103 L42.5393258,356.121951 L38.3595506,356.121951 L38.3595506,339.363271 L30,339.363271 L30,333.078766 L38.3595506,333.078766 L38.3595506,234.621521 L30,234.621521 L30,228.337016 L38.3595506,228.337016 L38.3595506,129.87977 L30,129.87977 L30,123.595265 L38.3595506,123.595265 L38.3595506,90.0779053 L38.4165249,90.0779731 C40.0276973,45.7202389 75.6119694,10.0516205 119.8649,8.4364615 L119.865169,-5.68434189e-14 L126.134831,-5.68434189e-14 Z" id="Path" fill="#9BAEBC"></path>
                        <path d="M123,0 C162.754636,0 196.683257,28.5650543 209.988414,68.7496947 L210.5,68.75 L234.047627,118.647248 C236.068572,122.309891 237.85492,126.088165 239.389837,129.96749 L242,135.5 L241.384835,135.500144 C244.391387,144.719805 246,154.447247 246,164.5 C246,166.007998 245.963802,167.508676 245.892118,169.001418 L246,169 L246,521 L229.849,521 L229.849596,184.816283 L229.770271,184.817177 C229.822994,183.438224 229.849596,182.052562 229.849596,180.660672 C229.849596,121.753609 182.201591,74 123.424798,74 C64.648005,74 17,121.753609 17,180.660672 C17,182.052562 17.0266023,183.438224 17.0793252,184.817177 L17.0793252,184.817177 L17,184.816283 L17,521 L0,521 L0,169 L0.107882392,169.001418 C0.0361978948,167.508676 0,166.007998 0,164.5 C0,154.447247 1.60861348,144.719805 4.61512285,135.500126 L4.5,135.5 L4.88527633,134.684226 C7.29151084,127.525723 10.5422372,120.678611 14.5378483,114.229136 L36,68.75 L36.0111197,68.7494907 C49.3167426,28.5650543 83.2453642,0 123,0 Z" id="Combined-Shape" fill="#00A0F3" opacity="0.25" style="mix-blend-mode: multiply;"></path>
                        <g id="Group-5" style="mix-blend-mode: multiply;" transform="translate(18.000000, 79.000000)">
                            <mask id="mask-2" fill="white">
                                <use xlink:href="#path-1"></use>
                            </mask>
                            <use id="Combined-Shape" fill="#FFFFFF" xlink:href="#path-1"></use>
                            <g id="Group-3" mask="url(#mask-2)" fill="#D8D8D8" opacity="0.617931548">
                                <g transform="translate(5.528561, -13.000000)" id="Rectangle">
                                    <rect x="0" y="0" width="30.4070851" height="457.117166"></rect>
                                    <rect x="33.1713656" y="0" width="33.1713656" height="457.117166"></rect>
                                    <rect x="69.1070116" y="0" width="30.4070851" height="457.117166"></rect>
                                    <rect x="102.278377" y="0" width="30.4070851" height="457.117166"></rect>
                                    <rect x="135.449743" y="0" width="33.1713656" height="457.117166"></rect>
                                    <rect x="171.385389" y="0" width="30.4070851" height="457.117166"></rect>
                                </g>
                            </g>
                        </g>
                    </g>
                    <g id="Oval">
                        <use fill="black" fill-opacity="1" filter="url(#filter-5)" xlink:href="#path-4"></use>
                        <use fill="url(#linearGradient-3)" fill-rule="evenodd" xlink:href="#path-4"></use>
                    </g>
                </g>
                <g id="Group-31" transform="translate(33.000000, 402.000000)">
                    <g id="2752877">
                        <mask id="mask-7" fill="white">
                            <use xlink:href="#path-6"></use>
                        </mask>
                        <use id="Combined-Shape" fill="#000000" fill-rule="nonzero" xlink:href="#path-6"></use>
                        <rect id="Rectangle" stroke="#979797" fill="url(#linearGradient-8)" mask="url(#mask-7)" x="-22.9072581" y="-32.1086957" width="174.814516" height="159.956522"></rect>
                    </g>
                </g>
                <path d="M524.552271,356.659596 C522.280125,354.546437 520.304445,352.135888 518.678959,349.4935 C515.265411,344.154759 509.492497,341.288321 505.569785,339.812105 L505.569785,338.070743 L505.81361,338.027747 L505.70604,336.408209 L505.81361,336.408209 L505.533928,332.108552 L505.533928,332.108552 L505.533928,332.108552 L504.135521,310.724921 C504.135521,310.724921 499.07974,296.507387 508.065405,283.379099 C517.051069,270.250812 508.624768,257.674313 500.176952,252.751205 C500.176952,252.751205 496.247068,231.969527 499.617589,227.053585 C495.047215,224.410017 490.335817,222.017758 485.50443,219.887489 C485.425546,219.636676 485.361004,219.37153 485.296462,219.106385 C485.203235,217.164373 485.081322,215.229527 484.973752,213.294681 C485.086108,212.289046 485.270647,211.292781 485.525944,210.313585 C485.633514,209.912284 485.755426,209.49665 485.88451,209.07385 C494.104061,205.935497 499.555994,198.080761 499.617589,189.28826 C499.619436,186.781868 499.167538,184.295814 498.283723,181.950177 C498.714124,181.222195 499.042298,180.438528 499.259023,179.621196 C499.796872,177.406873 499.18731,175.049227 497.925157,172.799073 C495.687705,167.911795 490.079733,163.361324 486.006423,161.713122 C480.168968,159.341145 471.3841,159.9001 465.30282,160.631042 C461.889271,161.039509 457.995244,162.178919 456.761777,165.303336 C456.309984,166.449912 456.302813,167.718311 455.987275,168.886384 C454.71078,173.659004 449.196034,175.88766 445.789657,179.535203 C442.777702,182.759946 441.486864,187.124099 440.48288,191.373594 C437.680872,203.554205 437.00881,216.127401 438.496424,228.536967 C438.840647,231.403405 439.299612,234.234013 439.787261,237.078953 C437.736264,239.945392 435.886063,245.004656 436.732279,253.804621 L429.991237,285.521762 L427.187251,304.117781 C427.187251,304.117781 425.501991,311.771171 432.243032,318.335315 C436.545825,322.520315 441.745032,329.593252 444.950612,334.172387 C443.554828,338.226861 442.863578,342.490095 442.906786,346.77755 C442.978499,348.726728 443.086069,350.611411 443.222324,352.402935 C443.505632,356.209118 444.227539,359.969918 445.37372,363.610709 C446.162565,371.249768 447.718742,381.017156 450.766553,387.258826 L451.885279,420.617003 C451.885279,420.617003 450.200019,451.244897 446.865355,457.257251 C443.530691,463.269606 454.158588,514.134555 454.158588,514.134555 L454.158588,521.243322 L452.365758,526.503236 L451.913965,526.16643 C443.494834,536.557269 451.913965,540.39113 451.913965,540.39113 L457.873332,540.634777 C457.230679,543.633632 458.707604,546.685689 461.458992,548.044521 C461.458992,548.044521 509.169788,550.194349 517.59609,548.044521 C526.022391,545.894692 523.770597,538.198305 519.274179,538.728596 C517.560233,538.936413 515.028757,538.484949 512.554651,537.847166 C515.172183,534.801575 513.078158,530.68107 509.736322,531.068039 C505.239904,531.612663 495.142685,527.642645 495.142685,527.642645 L495.092486,527.70714 C494.770839,527.583383 494.439934,527.485143 494.102843,527.41333 C490.338193,526.567158 486.618711,525.531532 482.958611,524.310411 C480.807215,519.702611 475.787291,507.319597 479.372951,497.717029 C480.993669,493.374375 481.524347,487.598501 481.524347,482.00178 C481.609258,465.093723 484.098698,448.28355 488.917979,432.07559 L495.651849,409.144083 C495.651849,409.144083 505.189705,381.253638 505.756239,373.593081 L505.677355,362.428304 C513.565808,367.444571 519.840713,365.946857 523.84231,363.603543 C525.042311,362.913909 525.836986,361.689465 525.977684,360.313335 C526.118382,358.937205 525.587917,357.577474 524.552271,356.659596 Z M449.633485,298.614219 C449.82711,297.818783 449.984879,296.937353 450.121134,296.012926 C451.440657,296.012926 452.767352,296.012926 454.086875,295.96993 C455.728154,299.301545 456.417994,303.020993 456.080502,306.719074 C453.068547,305.780315 448.536273,303.479998 449.66217,298.65005 L449.633485,298.614219 Z" id="Shape" fill="url(#linearGradient-9)" fill-rule="nonzero" transform="translate(476.500000, 354.500000) scale(-1, 1) translate(-476.500000, -354.500000) "></path>
                <path d="M455.197467,518.287172 L453,524.685935 L460.171067,531.646368 L483.896383,537 L501,535.393199 L499.879292,529.534776 L499.879292,529.534776 C499.211132,526.953763 497.113882,524.951037 494.444224,524.344668 C487.41233,522.737867 474.007783,519.083462 471.1877,514 L455.197467,518.287172 Z" id="Path" fill="#DB8B8B" fill-rule="nonzero" transform="translate(477.000000, 525.500000) scale(-1, 1) translate(-477.000000, -525.500000) "></path>
                <path d="M455.197467,518.287172 L453,524.685935 L460.171067,531.646368 L483.896383,537 L501,535.393199 L499.879292,529.534776 L499.879292,529.534776 C499.211132,526.953763 497.113882,524.951037 494.444224,524.344668 C487.41233,522.737867 474.007783,519.083462 471.1877,514 L455.197467,518.287172 Z" id="Path" fill="#000000" fill-rule="nonzero" opacity="0.1" transform="translate(477.000000, 525.500000) scale(-1, 1) translate(-477.000000, -525.500000) "></path>
                <path d="M485.855868,533.799426 L482.567051,529.496866 L485.855868,524.477212 C485.855868,524.477212 495.715041,528.399713 500.102555,527.861893 C504.490069,527.324073 506.651083,534.882237 498.458147,537.040688 C490.26521,539.199139 443.654241,537.040688 443.654241,537.040688 C443.654241,537.040688 435.432199,533.261606 443.654241,523 L450.777584,528.399713 C450.777584,528.399713 462.834152,534.853554 468.866075,533.799426 L485.855868,533.799426 Z" id="Path" fill="#2E3037" fill-rule="nonzero" transform="translate(472.000000, 530.500000) scale(-1, 1) translate(-472.000000, -530.500000) "></path>
                <path d="M491,543.429719 L473.905816,545 L450.173256,539.64257 L443,532.686438 L443.58617,530.988261 L444.406808,528.600865 L445.212792,526.263207 L461.215234,522 C462.027708,523.281532 463.139618,524.359787 464.461151,525.147668 C469.656083,528.600865 478.998168,531.087736 484.478858,532.331171 C484.705999,532.388014 484.940467,532.451962 485.160281,532.53012 C486.209841,532.869725 487.16494,533.438566 487.951916,534.192771 C488.908157,535.105898 489.587417,536.256166 489.915585,537.518072 L491,543.429719 Z" id="Path" fill="#DB8B8B" fill-rule="nonzero" transform="translate(467.000000, 533.500000) scale(-1, 1) translate(-467.000000, -533.500000) "></path>
                <path d="M491,544.318966 L473.905816,546 L450.173256,540.264706 L443,532.817951 L443.58617,531 L450.180583,536.256085 C450.180583,536.256085 462.328957,543.101927 468.395817,541.983773 L485.482674,541.983773 L482.170814,537.419878 L485.145627,532.650609 C486.195187,533.014166 487.150286,533.623128 487.937261,534.430527 C488.893503,535.408058 489.572763,536.639455 489.900931,537.990365 L491,544.318966 Z" id="Path" fill="#000000" fill-rule="nonzero" opacity="0.1" transform="translate(467.000000, 538.500000) scale(-1, 1) translate(-467.000000, -538.500000) "></path>
                <path d="M475.857782,541.791974 L472.568828,537.492383 L475.857782,532.476193 C475.857782,532.476193 485.724643,536.403153 490.105064,535.858538 C494.485485,535.313923 496.653866,542.874038 488.460587,545.038166 C480.267308,547.202293 433.654393,545.038166 433.654393,545.038166 C433.654393,545.038166 425.432009,541.254525 433.654393,531 L440.778034,536.403153 C440.778034,536.403153 452.842382,542.85254 458.86728,541.79914 L475.857782,541.791974 Z" id="Path" fill="#2E3037" fill-rule="nonzero" transform="translate(462.000000, 538.500000) scale(-1, 1) translate(-462.000000, -538.500000) "></path>
                <path d="M488,228.698593 C488,228.698593 462,231.408856 465.790318,220.574993 C466.852718,217.504852 467.127217,214.217283 466.588658,211.013588 C465.915328,207.041829 464.346115,203.275442 462,200 L486.37455,203.788617 C484.912463,206.23067 483.801169,208.866086 483.073306,211.617467 C480.146058,223.076775 488,228.698593 488,228.698593 Z" id="Path" fill="#DB8B8B" fill-rule="nonzero" transform="translate(475.000000, 214.500000) scale(-1, 1) translate(-475.000000, -214.500000) "></path>
                <path d="M476,351 C476,351 476.549576,374.218394 482.067323,385.558776 L483.173804,418.53334 C483.173804,418.53334 481.517747,448.769581 478.205633,454.705002 C474.89352,460.640424 485.372109,510.826275 485.372109,510.826275 L485.372109,519.428336 C485.372109,519.428336 503.03183,525.879881 508,518.34591 L503.03183,454.09569 L505.230135,365.007021 L476,351 Z" id="Path" fill="#35323E" fill-rule="nonzero" transform="translate(492.000000, 436.500000) scale(-1, 1) translate(-492.000000, -436.500000) "></path>
                <path d="M476,351 C476,351 476.549451,374.218394 482.065934,385.558776 L483.172161,418.53334 C483.172161,418.53334 481.516484,448.769581 478.205128,454.705002 C474.893773,460.640424 485.377289,510.826275 485.377289,510.826275 L485.377289,519.428336 C485.377289,519.428336 503.032967,525.879881 508,518.34591 L503.032967,454.09569 L505.230769,365.007021 L476,351 Z" id="Path" fill="#000000" fill-rule="nonzero" opacity="0.1" transform="translate(492.000000, 436.500000) scale(-1, 1) translate(-492.000000, -436.500000) "></path>
                <path d="M499.225166,277 L495.917952,285.63647 L493.166819,303.991658 C492.40987,309.179699 494.25753,314.406435 498.127639,318.025026 C504.712799,324.475502 513.558863,338 513.558863,338 L524,307.23123 C524,307.23123 513.529596,305.611444 515.183203,298.59476 C516.83681,291.578075 516.280729,278.619786 516.280729,278.619786 L499.225166,277 Z" id="Path" fill="#3C9DCF" fill-rule="nonzero" transform="translate(508.500000, 307.500000) scale(-1, 1) translate(-508.500000, -307.500000) "></path>
                <path d="M490,524.323794 C482.933869,535.787494 471.951041,529.290644 470,528.001825 L470.8038,525.522169 L486.762879,521 C487.574952,522.353886 488.683711,523.492332 490,524.323794 Z" id="Path" fill="#000000" fill-rule="nonzero" opacity="0.1" transform="translate(480.000000, 526.000000) scale(-1, 1) translate(-480.000000, -526.000000) "></path>
                <path d="M509,372.943781 C508.450862,380.500382 499.202213,408.074091 499.202213,408.074091 L492.699257,430.736726 C488.019394,446.760345 485.604691,463.351167 485.524329,480.033871 C485.524329,485.568688 485.011318,491.268401 483.443383,495.555733 C479.108079,507.435513 487.778687,523.638473 487.778687,523.638473 C480.163003,537.138549 467.099287,527.940144 467.099287,527.940144 L467.099287,519.286616 C467.099287,519.286616 456.752362,472.305203 459.469153,463.128306 C462.185943,453.951408 463.255318,429.102091 463.255318,429.102091 L463.255318,384.285852 C454.530736,375.662388 449.228729,364.209106 448.320196,352.023322 C448.190137,350.252468 448.081754,348.39558 448.016725,346.466998 C447.575969,334.278931 455.964782,320.004554 459.245162,314.921413 C460.039968,313.695437 460.531302,313 460.531302,313 L508.588146,331.913012 L508.696529,331.956029 L508.696529,333.805747 L508.696529,337.885165 L509,372.943781 Z" id="Path" fill="#35323E" fill-rule="nonzero" transform="translate(478.500000, 422.000000) scale(-1, 1) translate(-478.500000, -422.000000) "></path>
                <path d="M488,203.789243 C486.56038,206.2317 485.466163,208.867551 484.749484,211.619387 C479.480545,213.650815 473.626493,213.432982 468.518147,211.015409 C467.855163,207.042993 466.310064,203.275984 464,200 L488,203.789243 Z" id="Path" fill="#000000" fill-rule="nonzero" opacity="0.1" transform="translate(476.000000, 206.500000) scale(-1, 1) translate(-476.000000, -206.500000) "></path>
                <circle id="Oval" fill="#DB8B8B" fill-rule="nonzero" transform="translate(475.500000, 191.500000) scale(-1, 1) translate(-475.500000, -191.500000) " cx="475.5" cy="191.5" r="21.5"></circle>
                <path d="M499,337.380228 L498.779005,337.380228 C476.266005,342.125768 448,318.061714 448,318.061714 C448.759701,316.751625 449.41301,315.379637 449.953313,313.959637 C450.73749,312.709272 451.222253,312 451.222253,312 L498.636427,331.289266 L498.757618,333.219655 L499,337.380228 Z" id="Path" fill="#000000" fill-rule="nonzero" opacity="0.1" transform="translate(473.500000, 325.000000) scale(-1, 1) translate(-473.500000, -325.000000) "></path>
                <path d="M509.119202,228.599059 C509.119202,228.599059 478.802665,210.281249 469.0519,217.82009 L455.511569,235.06501 C455.511569,235.06501 446.846619,237.754388 448.471746,254.992155 L442,286.241867 L461.501529,291.09133 C461.501529,291.09133 472.877422,301.863146 463.658778,317.491578 C463.658778,317.491578 492.364569,341.195296 515.116354,336.345833 L513.491226,311.025627 C513.491226,311.025627 508.615844,297.020836 517.280793,284.088934 C525.945743,271.157032 517.820106,258.768728 509.701659,253.919265 C509.680087,253.919265 505.883329,233.448522 509.119202,228.599059 Z" id="Path" fill="#3C9DCF" fill-rule="nonzero" transform="translate(481.500000, 276.500000) scale(-1, 1) translate(-481.500000, -276.500000) "></path>
                <path d="M433.478903,338 C433.478903,338 444.696402,340.162171 450.035705,348.861305 C451.57709,351.473273 453.459009,353.861301 455.630273,355.960433 C456.610915,356.879948 457.110388,358.213794 456.979426,359.563355 C456.848463,360.912916 456.102233,362.121872 454.963747,362.828929 C450.709322,365.416327 443.817155,367.009127 435.109766,359.715403 C420.127101,347.23247 433.478903,338 433.478903,338 Z" id="Path" fill="#DB8B8B" fill-rule="nonzero" transform="translate(442.500000, 351.500000) scale(-1, 1) translate(-442.500000, -351.500000) "></path>
                <path d="M472.843377,238.40297 C472.843377,238.40297 462.166346,237.326575 459.493544,265.220191 C456.820741,293.113808 452.552765,299.586439 452.552765,299.586439 C452.552765,299.586439 449.879963,314.078573 456.289017,322.668353 C462.698071,331.258133 474.977365,349.514088 474.977365,349.514088 C474.977365,349.514088 488.334287,353.277909 491,339.855041 L474.44564,308.710852 C474.44564,308.710852 471.779927,297.97541 478.181892,290.454897 C484.583856,282.934385 489.397736,233.035249 472.843377,238.40297 Z" id="Path" fill="#000000" fill-rule="nonzero" opacity="0.1" transform="translate(471.500000, 294.000000) scale(-1, 1) translate(-471.500000, -294.000000) "></path>
                <path d="M470.843377,237.402732 C470.843377,237.402732 460.159256,236.326403 457.493544,264.24681 C454.827831,292.167216 450.552765,298.618063 450.552765,298.618063 C450.552765,298.618063 447.879963,313.109303 454.289017,321.698553 C460.698071,330.287802 472.977365,348.514118 472.977365,348.514118 C472.977365,348.514118 486.327198,352.277706 489,338.855667 L472.44564,307.734785 C472.44564,307.734785 469.772838,297 476.181892,289.479957 C482.590946,281.959909 487.397736,232.035342 470.843377,237.402732 Z" id="Path" fill="#3C9DCF" fill-rule="nonzero" transform="translate(469.500000, 293.000000) scale(-1, 1) translate(-469.500000, -293.000000) "></path>
                <path d="M465.90596,256 C465.90596,256 466.905376,272.908945 462.388018,282.185329 C457.870661,291.461714 457.870661,303.453668 462.388018,310" id="Path" fill="#000000" fill-rule="nonzero" opacity="0.1" transform="translate(462.500000, 283.000000) scale(-1, 1) translate(-462.500000, -283.000000) "></path>
                <path d="M490,237 C490,237 485.767635,232.305164 473.529046,231.694836 C461.290456,231.084507 456,227 456,227" id="Path" fill="#000000" fill-rule="nonzero" opacity="0.1" transform="translate(473.000000, 232.000000) scale(-1, 1) translate(-473.000000, -232.000000) "></path>
                <path d="M487.703008,164.615478 C484.424338,165.023201 480.680355,166.139072 479.499174,169.222023 C479.062496,170.352201 479.055337,171.596826 478.783308,172.798534 C477.559175,177.505221 472.261761,179.694045 468.99025,183.292014 C466.126783,186.467955 464.831064,190.76692 463.893279,194.951437 C461.207278,206.961364 460.565949,219.337703 461.996232,231.560595 C463.048556,240.494717 465.196156,249.292932 465.797484,258.262819 C466.398812,267.232706 465.303536,276.681846 460.39269,284.221129 C458.24509,287.468601 455.496162,290.315503 454,293.88486 C457.092544,296.388417 461.35911,296.746068 465.33933,296.881975 C469.978146,297.039342 474.616963,297.039342 479.25578,296.881975 C481.689727,296.796139 484.231054,296.638772 486.328543,295.408453 C487.882081,294.416143 489.159963,293.048239 490.043892,291.431374 C492.692599,286.932124 493.365514,281.524441 493.250975,276.302736 C493.136436,271.081031 492.31319,265.895092 492.212968,260.673387 C492.162858,257.812179 492.384776,254.80791 494.024111,252.483179 C495.205291,250.795066 497.002117,249.664889 498.541231,248.305815 C504.318275,243.191405 506.294068,234.994044 506.487352,227.290242 C506.680636,219.586439 505.413552,211.86833 506.06499,204.193139 C506.315544,201.188871 507.439455,197.576596 510.403143,196.990048 C511.33377,196.811222 512.328825,196.990048 513.216499,196.632397 C515.593177,195.723963 515.3641,192.340585 516.037014,189.930017 C516.802992,187.176104 519.151035,185.05881 519.809632,182.276285 C521.363063,175.759884 513.059009,167.970245 507.639897,165.709891 C501.977391,163.349394 493.537322,163.900176 487.703008,164.615478 Z" id="Path" fill="#000000" fill-rule="nonzero" opacity="0.1" transform="translate(487.000000, 230.500000) scale(-1, 1) translate(-487.000000, -230.500000) "></path>
                <path d="M488.767436,162.623627 C485.488766,163.024279 481.744783,164.147538 480.563602,167.231133 C480.258203,168.409227 480.019205,169.603524 479.847736,170.808389 C478.623603,175.508904 473.319031,177.70534 470.04752,181.30406 C467.184052,184.480663 465.888334,188.773371 464.950548,192.965915 C462.252297,204.963941 461.59165,217.329977 462.996232,229.54694 C464.048556,238.482926 466.196156,247.282977 466.797484,256.26189 C467.398812,265.240804 466.303536,274.684761 461.39269,282.225617 C459.24509,285.466612 456.496162,288.314108 455,291.88421 C458.092544,294.395444 462.35911,294.746015 466.33933,294.889105 C470.978146,295.036965 475.616963,295.036965 480.25578,294.889105 C482.689727,294.810405 485.231054,294.653006 487.328543,293.415275 C488.883084,292.426177 490.159402,291.057024 491.036733,289.437366 C493.692599,284.937178 494.358355,279.528366 494.250975,274.305572 C494.143595,269.082777 493.306031,263.895756 493.212968,258.672961 C493.162858,255.811156 493.384776,252.806261 495.016953,250.481044 C496.205291,248.799733 498.002117,247.66932 499.541231,246.302809 C505.311117,241.194486 507.294068,232.98826 507.487352,225.28285 C507.680636,217.57744 506.406393,209.864875 507.057832,202.180928 C507.315544,199.176033 508.439455,195.563004 511.395984,194.983488 C512.33377,194.797471 513.328825,194.983488 514.216499,194.625762 C516.593177,193.709985 516.3641,190.333055 517.037014,187.914829 C517.795833,185.167497 520.143876,183.042606 520.809632,180.266655 C522.363063,173.748894 514.059009,165.95763 508.639897,163.689649 C503.027502,161.350123 494.594591,161.901021 488.767436,162.623627 Z" id="Path" fill="#35323E" fill-rule="nonzero" transform="translate(488.000000, 228.500000) scale(-1, 1) translate(-488.000000, -228.500000) "></path>
            </g>
        </g>
    </g>
</svg>