<?xml version="1.0" encoding="UTF-8"?>
<svg width="796px" height="568px" viewBox="0 0 796 568" version="1.1" xmlns="http://www.w3.org/2000/svg" xmlns:xlink="http://www.w3.org/1999/xlink">
    <!-- Generator: Sketch 62 (91390) - https://sketch.com -->
    <title>Group 38</title>
    <desc>Created with Sketch.</desc>
    <defs>
        <circle id="path-1" cx="629.5" cy="456.5" r="105.5"></circle>
        <filter x="-3.3%" y="-2.4%" width="106.6%" height="106.6%" filterUnits="objectBoundingBox" id="filter-2">
            <feOffset dx="0" dy="2" in="SourceAlpha" result="shadowOffsetOuter1"></feOffset>
            <feGaussianBlur stdDeviation="2" in="shadowOffsetOuter1" result="shadowBlurOuter1"></feGaussianBlur>
            <feColorMatrix values="0 0 0 0 0   0 0 0 0 0   0 0 0 0 0  0 0 0 0.5 0" type="matrix" in="shadowBlurOuter1"></feColorMatrix>
        </filter>
        <path d="M562.421552,400.243318 L702.038631,517.253391 C703.17575,518.206386 703.325012,519.900758 702.372017,521.037877 C702.371327,521.0387 702.370637,521.039523 702.369946,521.040345 C701.414108,522.178083 699.717331,522.326531 698.578448,521.372058 L558.961369,404.361986 C557.82425,403.40899 557.674988,401.714618 558.627983,400.577499 L558.630054,400.575031 C559.585892,399.437293 561.282669,399.288845 562.421552,400.243318 Z M600.595243,442.507785 L602.925147,444.452512 C596.769928,458.807561 593.692318,469.301102 593.692318,475.933136 C593.692318,495.546271 609.760056,511.445858 629.580615,511.445858 C643.156465,511.445858 654.971717,503.98673 661.0692,492.984232 L664.444748,495.801373 C657.740551,507.875222 644.813496,516.052335 629.966511,516.052335 C608.227833,516.052335 590.605152,498.522021 590.605152,476.897282 C590.605152,469.634395 593.935183,458.171229 600.595243,442.507785 Z M629.966511,384 C656.207417,431.515029 669.32787,462.48079 669.32787,476.897282 C669.32787,479.718085 669.028011,482.46922 668.458274,485.120865 L664.918227,482.164657 C665.280123,480.141463 665.468913,478.059116 665.468913,475.933136 C665.468913,462.857713 653.506147,434.772488 629.580615,391.677461 C620.502692,408.028752 613.146961,422.219193 607.51342,434.248782 L605.144326,432.273067 C611.399816,418.728137 619.673878,402.637115 629.966511,384 Z" id="path-3"></path>
        <linearGradient x1="9.63362412%" y1="38.7769383%" x2="92.4740363%" y2="75.8501587%" id="linearGradient-5">
            <stop stop-color="#3C9DCF" offset="0%"></stop>
            <stop stop-color="#03306C" offset="100%"></stop>
        </linearGradient>
    </defs>
    <g id="Page-2" stroke="none" stroke-width="1" fill="none" fill-rule="evenodd">
        <g id="Artboard" transform="translate(-979.000000, -1801.000000)">
            <g id="Group-38" transform="translate(979.000000, 1801.000000)">
                <g id="Group-37">
                    <path d="M483.432796,82.2709562 C435.608103,80.616662 390.059368,65.1815057 346.564908,48.298842 C303.070448,31.4161783 259.989798,12.6872041 213.310473,3.7732167 C183.287029,-1.98727223 148.948131,-2.79964887 124.762374,13.2927939 C101.492911,28.7722616 93.9556449,55.5216089 89.9136012,80.2917113 C86.8691367,98.9468331 85.0808834,118.584192 93.4162131,136.05029 C99.2095629,148.176858 109.480936,158.368492 116.589612,169.978093 C141.322191,210.397523 123.838689,260.233138 97.0444462,299.692487 C84.4823357,318.199904 69.8881191,335.880174 60.1857362,355.561844 C50.4833532,375.243515 45.9979408,397.842356 54.4884496,417.944985 C62.8976741,437.885139 82.9453246,452.83287 104.662997,463.35684 C148.770783,484.737116 200.726195,490.852097 251.425395,494.32316 C363.61982,501.989042 476.405404,498.673068 588.895408,495.342324 C630.52772,494.116374 672.33738,492.868268 713.28986,486.435722 C736.03467,482.861264 759.511037,477.189398 776.026518,463.497159 C796.983074,446.119684 802.177876,416.696879 788.130481,394.90303 C764.572829,358.353466 699.45676,349.277003 682.970837,310.053982 C673.911338,288.459534 683.21469,264.413185 696.390127,244.391793 C724.647486,201.431839 772.006642,163.744948 774.496896,114.647858 C776.211255,80.9268421 753.444277,47.1541295 718.240809,31.194621 C681.345152,14.4670474 630.173026,16.5718415 602.964972,44.2517293 C574.921908,72.7661495 525.648877,83.7406194 483.432796,82.2709562 Z" id="Path" fill="#B8E1F5" fill-rule="nonzero" opacity="0.4"></path>
                    <path d="M171.876404,485 L171.876404,462.835294 L169,462.835294 L169,454.523529 L171.876404,454.523529 L171.876404,324.305882 L169,324.305882 L169,315.994118 L171.876404,315.994118 L171.876404,185.776471 L169,185.776471 L169,177.464706 L171.876404,177.464706 L171.876404,133.135294 L171.896009,133.135384 C172.45039,74.4687031 184.694441,27.2940787 199.921256,25.1579007 L199.921348,14 L205.078652,14 L205.079463,25.1580016 C220.305945,27.2955643 232.549618,74.4696269 233.103991,133.135384 L233.123596,133.135294 L233.123596,177.464706 L236,177.464706 L236,185.776471 L233.123596,185.776471 L233.123596,315.994118 L236,315.994118 L236,324.305882 L233.123596,324.305882 L233.123596,454.523529 L236,454.523529 L236,462.835294 L233.123596,462.835294 L233.123596,485 L228.685393,485 L228.685393,141.447059 L228.664739,141.449821 C228.678467,140.070162 228.685393,138.683786 228.685393,137.291176 C228.685393,80.3196299 217.092894,33.7799548 202.500327,30.7774926 C187.907636,33.7778254 176.314607,80.3183265 176.314607,137.291176 L176.319786,139.375355 L176.335261,141.449821 L176.314607,141.447059 L176.314607,485 L171.876404,485 Z" id="Path" fill="#9BAEBC"></path>
                    <path d="M415,14 L415.000314,30.8976803 C414.834053,30.8519447 414.667387,30.8118656 414.500327,30.7774926 C399.907636,33.7778254 388.314607,80.3183265 388.314607,137.291176 L388.319786,139.375355 L388.335261,141.449821 L388.314607,141.447059 L388.314607,485 L383.876404,485 L383.876404,462.835294 L381,462.835294 L381,454.523529 L383.876404,454.523529 L383.876404,324.305882 L381,324.305882 L381,315.994118 L383.876404,315.994118 L383.876404,185.776471 L381,185.776471 L381,177.464706 L383.876404,177.464706 L383.876404,133.135294 L383.896009,133.135384 C384.45039,74.4687031 396.694441,27.2940787 411.921256,25.1579007 L411.921348,14 L415,14 Z" id="Combined-Shape" fill="#9BAEBC"></path>
                    <path d="M617.876404,485 L617.876404,462.835294 L615,462.835294 L615,454.523529 L617.876404,454.523529 L617.876404,324.305882 L615,324.305882 L615,315.994118 L617.876404,315.994118 L617.876404,185.776471 L615,185.776471 L615,177.464706 L617.876404,177.464706 L617.876404,133.135294 L617.896009,133.135384 C618.45039,74.4687031 630.694441,27.2940787 645.921256,25.1579007 L645.921348,14 L651.078652,14 L651.079463,25.1580016 C666.305945,27.2955643 678.549618,74.4696269 679.103991,133.135384 L679.123596,133.135294 L679.123596,177.464706 L682,177.464706 L682,185.776471 L679.123596,185.776471 L679.123596,315.994118 L682,315.994118 L682,324.305882 L679.123596,324.305882 L679.123596,454.523529 L682,454.523529 L682,462.835294 L679.123596,462.835294 L679.123596,485 L674.685393,485 L674.685393,141.447059 L674.664739,141.449821 C674.678467,140.070162 674.685393,138.683786 674.685393,137.291176 C674.685393,80.3196299 663.092894,33.7799548 648.500327,30.7774926 C633.907636,33.7778254 622.314607,80.3183265 622.314607,137.291176 L622.319786,139.375355 L622.335261,141.449821 L622.314607,141.447059 L622.314607,485 L617.876404,485 Z" id="Path" fill="#9BAEBC"></path>
                    <path d="M417.078652,14 L417.079463,25.1580016 C432.305945,27.2955643 444.549618,74.4696269 445.103991,133.135384 L445.123596,133.135294 L445.123596,177.464706 L448,177.464706 L448,185.776471 L445.123596,185.776471 L445.123596,315.994118 L448,315.994118 L448,324.305882 L445.123596,324.305882 L445.123596,454.523529 L448,454.523529 L448,462.835294 L445.123596,462.835294 L445.123596,485 L440.685393,485 L440.685393,141.447059 L440.664739,141.449821 C440.678467,140.070162 440.685393,138.683786 440.685393,137.291176 C440.685393,80.9707333 429.356351,34.8450813 414.999455,30.8974442 L414.999455,14 L417.078652,14 Z" id="Combined-Shape" fill="#9BAEBC"></path>
                    <rect id="Rectangle" fill="#9BAEBC" x="229" y="480" width="450" height="5"></rect>
                    <rect id="Rectangle" fill="#9BAEBC" x="172" y="480" width="450" height="5"></rect>
                    <rect id="Rectangle" fill="#9BAEBC" x="172" y="143" width="450" height="5"></rect>
                    <rect id="Rectangle" fill="#9BAEBC" x="172" y="143" width="504" height="5"></rect>
                    <path d="M682,486 L164,486 L164,112.5 L164.383676,111.403365 C166.77355,57.5770561 180.046476,16.0253284 196.259153,14 L649.741674,14 C667.25624,16.1895333 681.339771,64.5082572 681.97745,124.597517 L682,124.597425 L682,486 Z" id="Combined-Shape" fill="#00A0F3" opacity="0.25" style="mix-blend-mode: multiply;"></path>
                    <path d="M225.109388,168.444954 C225.109388,168.444954 223.708631,179.645173 218.805981,180.345186 C213.903331,181.0452 194.993115,181.745214 192.891979,187.345323 C191.619619,190.746291 190.68136,194.262925 190.090465,197.845522 L220.206738,204.845659 L251.723775,210.445769 L272.034748,209.045741 C272.034748,209.045741 272.735127,190.145378 262.229453,187.345323 C251.72378,184.545268 244.01961,183.145241 243.319232,178.245145 C242.618853,173.34505 241.918474,169.844981 241.918474,169.844981 L225.109388,168.444954 Z" id="Path" fill="#FFB9B9" fill-rule="nonzero"></path>
                    <ellipse id="Oval" fill="#2F2E41" fill-rule="nonzero" cx="231.404103" cy="149.571033" rx="24.1717506" ry="24.1591565"></ellipse>
                    <path d="M280.439291,257.346684 L290.94497,297.247458 C290.94497,297.247458 315.116977,313.29544 305.311677,313.29544 C295.506377,313.29544 283.941173,299.347499 283.941173,299.347499 L266.431714,260.146734 L280.439291,257.346684 Z" id="Path" fill="#FFB9B9" fill-rule="nonzero"></path>
                    <path d="M190.790843,325.247999 C190.790843,325.247999 190.090437,370.748888 186.588572,374.248956 C183.086707,377.749025 180.985543,426.049962 181.685922,435.850154 C182.3863,445.650345 180.285165,453.350495 180.285165,454.750523 C180.285165,456.15055 191.491222,456.850558 191.491222,456.850558 L207.599924,346.248409 L190.790843,325.247999 Z" id="Path" fill="#FFB9B9" fill-rule="nonzero"></path>
                    <path d="M183.787057,449.850377 L178.884407,451.250454 C178.884407,451.250454 177.48365,462.450667 176.783272,464.550686 C176.082893,466.650705 171.180243,482.051028 180.285165,483.451055 C189.390086,484.851083 194.993143,477.850946 194.993143,477.150932 C194.993143,476.450919 192.191628,463.850672 192.892007,462.450617 C193.592386,461.050562 194.993143,449.850377 194.993143,449.850377 L183.787057,449.850377 Z" id="Path" fill="#2F2E41" fill-rule="nonzero"></path>
                    <path d="M183.787057,449.850377 L178.884407,451.250454 C178.884407,451.250454 177.48365,462.450667 176.783272,464.550686 C176.082893,466.650705 171.180243,482.051028 180.285165,483.451055 C189.390086,484.851083 194.993143,477.850946 194.993143,477.150932 C194.993143,476.450919 192.191628,463.850672 192.892007,462.450617 C193.592386,461.050562 194.993143,449.850377 194.993143,449.850377 L183.787057,449.850377 Z" id="Path" fill="#000000" fill-rule="nonzero" opacity="0.1"></path>
                    <path d="M254.525289,451.950418 L259.427939,453.350495 C259.427939,453.350495 260.828696,464.550708 261.529075,466.650727 C262.229453,468.750746 267.132103,484.151069 258.027182,485.551096 C248.92226,486.951124 243.319204,479.950987 243.319204,479.250973 C243.319204,478.55096 246.120718,465.950713 245.420339,464.550658 C244.719961,463.150603 243.319204,451.950418 243.319204,451.950418 L254.525289,451.950418 Z" id="Path" fill="#2F2E41" fill-rule="nonzero"></path>
                    <path d="M254.525289,451.950418 L259.427939,453.350495 C259.427939,453.350495 260.828696,464.550708 261.529075,466.650727 C262.229453,468.750746 267.132103,484.151069 258.027182,485.551096 C248.92226,486.951124 243.319204,479.950987 243.319204,479.250973 C243.319204,478.55096 246.120718,465.950713 245.420339,464.550658 C244.719961,463.150603 243.319204,451.950418 243.319204,451.950418 L254.525289,451.950418 Z" id="Path" fill="#000000" fill-rule="nonzero" opacity="0.1"></path>
                    <ellipse id="Oval" fill="#FFB9B9" fill-rule="nonzero" cx="234.914689" cy="157.944749" rx="16.809086" ry="16.8003281"></ellipse>
                    <path d="M205.498788,242.646397 L202.697279,256.646671 C202.697279,256.646671 183.787057,283.247185 187.28895,316.147827 C190.790843,349.04847 190.090465,383.349134 190.790843,392.449306 C191.491222,401.549478 194.993115,441.450263 188.689708,455.450531 C182.3863,469.450799 190.790843,470.150846 191.491222,470.150846 C192.191601,470.150846 194.292736,466.650777 199.195386,472.250887 C204.098036,477.850996 218.105603,473.650914 218.105603,473.650914 C218.105603,473.650914 244.01961,479.251023 253.82491,474.350928 C263.630211,469.450832 283.941184,461.750682 282.540427,456.850586 C281.13967,451.95049 267.132103,428.150031 271.334369,414.149758 C275.536635,400.149484 265.731346,263.64683 254.525289,258.046726 L251.723775,244.746494 L205.498788,242.646397 Z" id="Path" fill="#03306C" fill-rule="nonzero"></path>
                    <ellipse id="Oval" fill="#2F2E41" fill-rule="nonzero" cx="231.404103" cy="142.906436" rx="16.670173" ry="9.99689581"></ellipse>
                    <ellipse id="Oval" fill="#2F2E41" fill-rule="nonzero" cx="233.071121" cy="125.411877" rx="10.0021072" ry="9.99689581"></ellipse>
                    <path d="M219.734978,119.99689 C219.735283,114.878956 223.602505,110.587636 228.695202,110.054048 C228.349067,110.018129 228.001307,110 227.653312,110 C222.129302,110 217.651208,114.475761 217.651208,119.996893 C217.651208,125.518025 222.129302,129.993786 227.653312,129.993786 C228.001308,129.993786 228.349067,129.975656 228.695202,129.939733 C223.602505,129.406144 219.735283,125.114825 219.734978,119.99689 L219.734978,119.99689 Z" id="Path" fill="#2F2E41" fill-rule="nonzero"></path>
                    <path d="M188.689708,195.045468 L190.090465,197.845522 C190.090465,197.845522 189.390086,199.945564 188.689708,200.645577 C187.989329,201.345591 164.176457,225.146056 171.180243,230.046151 C178.184029,234.946247 180.285165,234.946247 180.285165,234.946247 C180.285165,234.946247 173.281379,239.846343 174.682136,240.546356 C176.082893,241.24637 190.090465,252.446589 191.491222,250.346548 C192.891979,248.246507 193.592358,243.346411 193.592358,243.346411 C193.592358,243.346411 196.393872,247.546493 199.195386,246.146466 C201.996901,244.746438 201.996901,242.646397 201.996901,242.646397 L204.098031,245.446452 L251.723775,247.546493 C251.723775,247.546493 255.225668,249.646534 255.225668,246.846479 C255.225668,244.046425 257.326803,257.346684 263.630211,257.346684 C263.630211,257.346684 264.330589,264.346816 266.431725,264.346816 C268.532861,264.346816 284.641562,258.746712 283.240805,257.346684 C281.840048,255.946657 281.13967,251.046561 281.13967,251.046561 C281.13967,251.046561 293.046105,244.746438 281.13967,231.446179 C281.13967,231.446179 279.038534,218.845933 272.034748,216.045878 C272.034748,216.045878 271.334341,213.945837 272.034748,213.245823 C272.365422,212.997947 272.560032,212.60893 272.560032,212.195803 C272.560032,211.782676 272.365422,211.393658 272.034748,211.145782 C271.334341,210.445769 273.435505,210.445769 273.435505,208.345728 C273.435505,206.245687 269.933612,205.545673 269.933612,205.545673 C269.933612,205.545673 232.113191,188.74535 203.397641,192.245419 L188.689708,195.045468 Z" id="Path" fill="#3C9DCF" fill-rule="nonzero"></path>
                    <path d="M649.741674,14 C667.25624,16.1895333 681.339771,64.5082572 681.97745,124.597517 L682,124.597425 L682,486 L164,486 L164,112.5 L164.383676,111.403365 C166.77355,57.5770561 180.046476,16.0253284 196.259153,14 L649.741674,14 Z M203.40809,36 L201.592515,36 C188.911169,38.0649533 178.689116,83.2313092 178.033426,139.716499 L178.016492,141.431604 L178,141.431516 L178,182.5 L178,467.5 L178,475.5 L178,485 L227,485 L227,141.431516 L226.983508,141.431604 C226.52181,84.7218859 216.422265,39.0096201 203.791605,36.0757775 L203.40809,36 Z" id="Shape" fill="#00A0F3" opacity="0.25" style="mix-blend-mode: multiply;"></path>
                    <path d="M176.783272,239.146329 L151.569643,280.447108 C151.569643,280.447108 129.857912,298.647463 139.663207,301.447518 C149.468501,304.247572 159.273807,283.247162 159.273807,283.247162 L190.090465,248.246484 L176.783272,239.146329 Z" id="Path" fill="#FFB9B9" fill-rule="nonzero"></path>
                    <path d="M4.25872624,262.964968 L5.19508537,279.434662 C5.19508537,279.434662 24.929959,261.121104 48.2566995,267.47718 C48.2566995,267.47718 79.997469,231.646286 109.963029,232.177222 C109.963029,232.177222 118.111424,204.965236 166.316409,188.383966 C166.316409,188.383966 170.090163,161.241811 193.319126,150.94659 L177.358007,142.117993 L148.776055,143.919915 L109.977261,159.341776 L62.4151521,195.088806 L8.14429996,232.288614 L4.25872624,262.964968 Z" id="Path" fill="#3C9DCF" fill-rule="nonzero"></path>
                    <path d="M4.25872624,262.964968 L5.19508537,279.434662 C5.19508537,279.434662 24.929959,261.121104 48.2566995,267.47718 C48.2566995,267.47718 79.997469,231.646286 109.963029,232.177222 C109.963029,232.177222 118.111424,204.965236 166.316409,188.383966 C166.316409,188.383966 170.090163,161.241811 193.319126,150.94659 L177.358007,142.117993 L148.776055,143.919915 L109.977261,159.341776 L62.4151521,195.088806 L8.14429996,232.288614 L4.25872624,262.964968 Z" id="Path" fill="#000000" fill-rule="nonzero" opacity="0.1"></path>
                    <path d="M82.4993514,198.637061 L145.169565,297.385623 C145.169565,297.385623 155.693802,313.534068 167.47602,303.08514 C174.55992,296.802873 172.867977,289.56618 170.392199,284.793684 C167.747781,279.69613 159.97688,282.766301 161.607167,288.272271 C161.633626,288.361662 161.661172,288.451963 161.689807,288.543175 C161.689807,288.543175 162.146586,300.336379 154.206363,294.610765 C152.388261,293.273375 150.852227,291.59038 149.686371,289.65832 L91.360461,194.963195 L82.4993514,198.637061 Z" id="Path" fill="#3F3D56" fill-rule="nonzero"></path>
                    <path d="M136.588511,160.599108 C136.588511,160.599108 161.802029,179.709081 166.316381,188.383999" id="Path" fill="#000000" fill-rule="nonzero" opacity="0.1"></path>
                    <path d="M55.3781738,144.401514 C55.3781738,144.401514 46.7686235,153.285897 39.5846996,156.596568 C39.5846996,156.596568 -17.6492187,208.477992 5.52353858,278.924794 C5.52353858,278.924794 11.0164307,243.512873 33.9099198,243.820283 C33.9099198,243.820283 47.0199873,211.146352 91.6469514,202.359891 C91.6469514,202.359891 105.483787,173.038596 153.283419,162.687567 C153.283419,162.687567 164.199141,140.141305 193.647568,150.436722 C193.647568,150.436722 156.274591,107.634932 74.889398,133.156365 C74.889398,133.156371 60.4097143,143.31193 55.3781738,144.401514 Z" id="Path" fill="#3C9DCF" fill-rule="nonzero"></path>
                    <path d="M152.954955,163.197441 C152.954955,163.197441 122.677935,128.829343 74.6846814,134.237116" id="Path" fill="#000000" fill-rule="nonzero" opacity="0.1"></path>
                    <polygon id="Path-2" fill="#3C9DCF" points="179.5 211.5 170 224.5 170 228 172.5 230.5 179.5 234.5"></polygon>
                    <g id="Oval">
                        <use fill="black" fill-opacity="1" filter="url(#filter-2)" xlink:href="#path-1"></use>
                        <use fill="#FFFFFF" fill-rule="evenodd" xlink:href="#path-1"></use>
                    </g>
                    <mask id="mask-4" fill="white">
                        <use xlink:href="#path-3"></use>
                    </mask>
                    <use id="Combined-Shape" fill="#D8D8D8" xlink:href="#path-3"></use>
                    <rect id="Rectangle" stroke="#979797" fill="url(#linearGradient-5)" mask="url(#mask-4)" x="503.5" y="342.5" width="245" height="223"></rect>
                </g>
                <g id="Group-11" transform="translate(169.000000, 14.000000)"></g>
                <path d="M60.9198596,143.640212 C60.9198596,143.640212 56.5871772,135.803467 51.2621199,139.589133 C45.9370626,143.374799 53.0790293,147.970637 53.0790293,147.970637 L61.1015628,144.478362" id="Path" fill="#3F3D56" fill-rule="nonzero"></path>
                <g id="Group-33" transform="translate(27.000000, 157.037399)" fill="#000000" fill-rule="nonzero" opacity="0.1">
                    <g id="Group-24">
                        <path d="M10.3831312,72.4295333 C10.3831312,72.4295333 13.5696568,103.329431 21.2566995,110.439787" id="Path"></path>
                        <path d="M12.2562464,0.069048453 C12.2562464,0.069048453 -10.3019587,41.8089593 6.58144421,87.2927575" id="Path"></path>
                    </g>
                </g>
                <g id="Group-9" transform="translate(524.000000, 351.000000)"></g>
                <g id="Group-36" transform="translate(558.000000, 384.000000)">
                    <g id="Group-35" transform="translate(0.000000, 1.000000)"></g>
                </g>
            </g>
        </g>
    </g>
</svg>