<?xml version="1.0" encoding="UTF-8"?>
<svg width="653px" height="547px" viewBox="0 0 653 547" version="1.1" xmlns="http://www.w3.org/2000/svg" xmlns:xlink="http://www.w3.org/1999/xlink">
    <!-- Generator: Sketch 62 (91390) - https://sketch.com -->
    <title>Group 23</title>
    <desc>Created with Sketch.</desc>
    <defs>
        <linearGradient x1="14.4215485%" y1="15.8771693%" x2="97.2401704%" y2="104.648685%" id="linearGradient-1">
            <stop stop-color="#FFFFFF" offset="0%"></stop>
            <stop stop-color="#F8F8F8" offset="100%"></stop>
        </linearGradient>
        <circle id="path-2" cx="148.5" cy="391.5" r="89.5"></circle>
        <filter x="-3.9%" y="-2.8%" width="107.8%" height="107.8%" filterUnits="objectBoundingBox" id="filter-3">
            <feOffset dx="0" dy="2" in="SourceAlpha" result="shadowOffsetOuter1"></feOffset>
            <feGaussianBlur stdDeviation="2" in="shadowOffsetOuter1" result="shadowBlurOuter1"></feGaussianBlur>
            <feColorMatrix values="0 0 0 0 0   0 0 0 0 0   0 0 0 0 0  0 0 0 0.5 0" type="matrix" in="shadowBlurOuter1"></feColorMatrix>
        </filter>
        <path d="M172.037051,350.961538 C175.231179,350.961538 177.830513,353.550996 177.830513,356.732988 C177.830513,359.914981 175.231179,362.504438 172.037051,362.504438 L172.037051,362.504438 L172.033188,385.143911 L200.683789,443.335515 C201.295965,445.097731 201.014017,447.054252 199.930639,448.574067 C198.847262,450.093882 197.082187,451 195.210899,451 L195.210899,451 L125.689355,451 C123.816135,451 122.05106,450.093882 120.967683,448.574067 C119.882375,447.054252 119.600426,445.095807 120.214533,443.333591 L120.214533,443.333591 L120.305297,443.118124 L148.85934,385.143911 L148.863203,362.504438 C145.669074,362.504438 143.069741,359.914981 143.069741,356.732988 C143.069741,353.550996 145.669074,350.961538 148.863203,350.961538 L148.863203,350.961538 Z M172.037051,354.809172 L148.863203,354.809172 C147.799137,354.809172 146.932049,355.672965 146.932049,356.732988 C146.932049,357.793011 147.799137,358.656805 148.863203,358.656805 L148.863203,358.656805 L152.725511,358.656805 L152.719717,386.036562 L145.360089,400.980769 L148.865134,400.980769 L148.865134,404.828402 L143.465627,404.828402 L123.833516,444.691805 C123.667436,445.259331 123.767856,445.857638 124.115464,446.344364 C124.482383,446.858023 125.055936,447.152367 125.689355,447.152367 L125.689355,447.152367 L195.210899,447.152367 C195.842386,447.152367 196.415939,446.858023 196.782858,446.344364 C197.130466,445.857638 197.230886,445.259331 197.062875,444.689882 L197.062875,444.689882 L177.426902,404.828402 L152.727442,404.828402 L152.727442,400.980769 L175.532439,400.980769 L168.17088,386.036562 L168.17088,381.742604 L160.446264,381.742604 L160.446264,377.89497 L168.172812,377.89497 L168.172812,374.047337 L160.446264,374.047337 L160.446264,370.199704 L168.172812,370.199704 L168.172812,366.352071 L160.446264,366.352071 L160.446264,362.504438 L168.174743,362.504438 L168.174743,358.656805 L172.037051,358.656805 C173.101117,358.656805 173.968205,357.793011 173.968205,356.732988 C173.968205,355.672965 173.101117,354.809172 172.037051,354.809172 L172.037051,354.809172 Z M189.228377,439.230769 L189.228377,443.153846 L185.303849,443.153846 L185.303849,439.230769 L189.228377,439.230769 Z M156.523975,439.230769 L156.523975,443.153846 L152.599447,443.153846 L152.599447,439.230769 L156.523975,439.230769 Z M112.692226,420.923077 L118.977358,429.029249 C119.989887,430.338474 120.549132,431.959328 120.549132,433.593484 C120.549132,437.783383 117.02883,441.192308 112.700075,441.192308 C108.371321,441.192308 104.851019,437.783383 104.851019,433.591584 C104.851019,431.957428 105.408302,430.338474 106.418868,429.033049 L106.418868,429.033049 L112.692226,420.923077 Z M145.404478,428.115385 C148.650063,428.115385 151.29127,430.755615 151.29127,434 C151.29127,437.244385 148.650063,439.884615 145.404478,439.884615 C142.158893,439.884615 139.517686,437.244385 139.517686,434 C139.517686,430.755615 142.158893,428.115385 145.404478,428.115385 Z M112.694189,427.25828 L109.558491,431.311366 C109.054189,431.965029 108.775547,432.772606 108.775547,433.589683 C108.775547,435.687483 110.535698,437.391946 112.700075,437.391946 C114.864453,437.391946 116.624604,435.687483 116.624604,433.593484 C116.624604,432.776406 116.345962,431.966929 115.837736,431.311366 L115.837736,431.311366 L112.694189,427.25828 Z M145.404478,432.038462 C144.32327,432.038462 143.442214,432.919192 143.442214,434 C143.442214,435.080808 144.32327,435.961538 145.404478,435.961538 C146.485686,435.961538 147.366742,435.080808 147.366742,434 C147.366742,432.919192 146.485686,432.038462 145.404478,432.038462 Z M176.146616,432.038462 L176.146616,435.961538 L172.222088,435.961538 L172.222088,432.038462 L176.146616,432.038462 Z M167.970516,407.192308 C173.198249,407.192308 177.454792,411.445381 177.454792,416.673077 C177.454792,421.900773 173.200146,426.153846 167.970516,426.153846 C162.740886,426.153846 158.486239,421.900773 158.486239,416.673077 C158.486239,411.445381 162.740886,407.192308 167.970516,407.192308 Z M167.970516,410.984615 C164.833117,410.984615 162.27995,413.536838 162.27995,416.673077 C162.27995,419.809315 164.833117,422.361538 167.970516,422.361538 C171.107914,422.361538 173.661082,419.809315 173.661082,416.673077 C173.661082,413.536838 171.107914,410.984615 167.970516,410.984615 Z M147.366742,418.307692 L147.366742,422.230769 L143.442214,422.230769 L143.442214,418.307692 L147.366742,418.307692 Z M112.373031,332 C117.672208,332 121.985714,336.303473 121.985714,341.590323 L121.985714,341.590323 L121.985714,355.002974 C125.161761,355.006808 127.744101,357.585058 127.744101,360.753717 C127.744101,363.924294 125.157918,366.504461 121.97995,366.504461 L121.97995,366.504461 L121.97995,401.175693 L114.294415,411.239494 L114.300179,416.34232 L110.457412,416.346154 L110.451648,411.241411 L102.766113,401.175693 L102.766113,366.504461 C99.5881447,366.504461 97.0019623,363.924294 97.0019623,360.753717 C97.0019623,357.583141 99.5843019,355.006808 102.760349,355.002974 L102.760349,355.002974 L102.760349,341.590323 C102.760349,336.303473 107.073855,332 112.373031,332 Z M118.137182,366.504461 L106.608881,366.504461 L106.608881,370.33829 L112.373031,370.33829 L112.373031,374.172118 L106.608881,374.172118 L106.608881,378.005947 L112.373031,378.005947 L112.373031,381.839776 L106.608881,381.839776 L106.608881,385.673605 L112.373031,385.673605 L112.373031,389.507434 L106.608881,389.507434 L106.608881,393.341263 L112.373031,393.341263 L112.373031,397.175092 L106.608881,397.175092 L106.608881,399.883692 L112.373031,407.432502 L118.137182,399.883692 L118.137182,366.504461 Z M121.97995,358.836803 L102.766113,358.836803 C101.707431,358.836803 100.84473,359.697497 100.84473,360.753717 C100.84473,361.809937 101.705509,362.670632 102.766113,362.670632 L102.766113,362.670632 L121.97995,362.670632 C123.038632,362.670632 123.901333,361.809937 123.901333,360.753717 C123.901333,359.697497 123.038632,358.836803 121.97995,358.836803 L121.97995,358.836803 Z M112.373031,335.833829 C109.19122,335.833829 106.603116,338.415913 106.603116,341.590323 L106.603116,341.590323 L106.603116,355.002974 L118.142947,355.002974 L118.142947,341.590323 C118.142947,338.415913 115.554843,335.833829 112.373031,335.833829 Z" id="path-4"></path>
        <linearGradient x1="9.63362412%" y1="38.7529418%" x2="92.4740363%" y2="75.90543%" id="linearGradient-6">
            <stop stop-color="#3C9DCF" offset="0%"></stop>
            <stop stop-color="#03306C" offset="100%"></stop>
        </linearGradient>
        <linearGradient x1="49.9749693%" y1="99.99111%" x2="49.9749693%" y2="-0.00011368275%" id="linearGradient-7">
            <stop stop-color="#808080" stop-opacity="0.25" offset="0%"></stop>
            <stop stop-color="#808080" stop-opacity="0.12" offset="54%"></stop>
            <stop stop-color="#808080" stop-opacity="0.1" offset="100%"></stop>
        </linearGradient>
    </defs>
    <g id="Page-2" stroke="none" stroke-width="1" fill="none" fill-rule="evenodd">
        <g id="Artboard" transform="translate(-1050.000000, -873.000000)">
            <g id="Group-23" transform="translate(1050.000000, 873.000000)">
                <g id="Group-20">
                    <path d="M201.6289,22.4818801 C223.783917,2.77653623 258.56752,-1.26305927 290.218627,0.305789261 C389.646942,5.23970422 479.397133,53.2070587 557.0345,107.464965 C585.143535,127.102098 612.812655,148.270185 631.053947,175.319559 C668.219157,230.373258 657.175781,306.648097 605.538892,352.008283 C587.965057,367.439083 566.667116,379.292605 544.800319,389.759175 C505.920958,408.41104 463.969779,423.379523 419.849364,427.654067 C388.380291,430.685658 356.524396,428.22249 325.244942,423.978262 C237.838434,412.12474 152.047476,385.93179 80.1441701,341.140028 C48.6068343,321.434684 18.8746658,297.030374 5.87442685,265.236559 C-7.12581212,233.442745 1.19464421,193.152895 33.3994369,174.334292 C46.7182348,166.550681 62.6461822,163.034035 78.2328164,159.737179 C101.18423,154.879054 124.499711,150.08914 145.213628,140.206152 C166.602586,130.004847 191.928022,110.276766 187.688154,87.6989895 C183.152481,63.4689955 179.504223,42.187224 201.6289,22.4818801 Z" id="Path" fill="#B8E1F5" fill-rule="nonzero" opacity="0.4"></path>
                    <rect id="Rectangle" fill="#9BAEBC" x="140" y="121" width="185" height="8"></rect>
                    <rect id="Rectangle" fill="#9BAEBC" x="139" y="404" width="185" height="8"></rect>
                    <path d="M329.993961,-5.68434189e-14 L329.996685,9.74856985 C381.088473,11.6161246 422.171581,52.8313582 424.031756,104.086704 L424.097537,104.086625 L424.097537,142.816533 L433.749186,142.816533 L433.749186,150.07839 L424.097537,150.07839 L424.097537,263.847492 L433.749186,263.847492 L433.749186,271.10935 L424.097537,271.10935 L424.097537,384.878452 L433.749186,384.878452 L433.749186,392.14031 L424.097537,392.14031 L424.097537,411.505263 L419.271712,411.505263 L419.271712,111.348483 L419.202408,111.350897 C419.248471,110.14551 419.271712,108.934255 419.271712,107.717554 C419.271712,56.2480181 377.680255,14.5237152 326.374593,14.5237152 C275.06893,14.5237152 233.477473,56.2480181 233.477473,107.717554 L233.494852,109.538468 L233.546778,111.350897 L233.477473,111.348483 L233.477473,411.505263 L228.651649,411.505263 L228.651649,392.14031 L219,392.14031 L219,384.878452 L228.651649,384.878452 L228.651649,271.10935 L219,271.10935 L219,263.847492 L228.651649,263.847492 L228.651649,150.07839 L219,150.07839 L219,142.816533 L228.651649,142.816533 L228.651649,104.086625 L228.717429,104.086704 C230.577634,52.8305511 271.662007,11.6148266 322.754915,9.74848166 L322.755225,-5.68434189e-14 L329.993961,-5.68434189e-14 Z" id="Path" fill="#9BAEBC"></path>
                    <path d="M421.993961,-5.68434189e-14 L421.996685,9.74856985 C473.088473,11.6161246 514.171581,52.8313582 516.031756,104.086704 L516.097537,104.086625 L516.097537,142.816533 L525.749186,142.816533 L525.749186,150.07839 L516.097537,150.07839 L516.097537,263.847492 L525.749186,263.847492 L525.749186,271.10935 L516.097537,271.10935 L516.097537,384.878452 L525.749186,384.878452 L525.749186,392.14031 L516.097537,392.14031 L516.097537,411.505263 L511.271712,411.505263 L511.271712,111.348483 L511.202408,111.350897 C511.248471,110.14551 511.271712,108.934255 511.271712,107.717554 C511.271712,56.2480181 469.680255,14.5237152 418.374593,14.5237152 C367.06893,14.5237152 325.477473,56.2480181 325.477473,107.717554 L325.494852,109.538468 L325.546778,111.350897 L325.477473,111.348483 L325.477473,411.505263 L320.651649,411.505263 L320.651649,392.14031 L311,392.14031 L311,384.878452 L320.651649,384.878452 L320.651649,271.10935 L311,271.10935 L311,263.847492 L320.651649,263.847492 L320.651649,150.07839 L311,150.07839 L311,142.816533 L320.651649,142.816533 L320.651649,104.086625 L320.717429,104.086704 C322.577634,52.8305511 363.662007,11.6148266 414.754915,9.74848166 L414.755225,-5.68434189e-14 L421.993961,-5.68434189e-14 Z" id="Path" fill="#9BAEBC"></path>
                    <rect id="Rectangle" fill="#9BAEBC" x="331" y="121" width="185" height="8"></rect>
                    <rect id="Rectangle" fill="#9BAEBC" x="330" y="404" width="185" height="8"></rect>
                    <path d="M128,412 L128,96.7433955 L128.072362,96.7434759 C130.118677,44.1804929 175.31349,1.91392943 231.518178,0 L422.484477,0 C478.687934,1.91526051 523.881355,44.1813206 525.927638,96.7434759 L526,96.7433955 L526,412 L128,412 Z" id="Combined-Shape" fill="#00A0F3" opacity="0.25" style="mix-blend-mode: multiply;"></path>
                    <polygon id="Path" fill="#2F2E41" fill-rule="nonzero" points="295 162.916491 325.931183 170 339 145.333631 312.551793 135"></polygon>
                    <path d="M311,297.690911 C311,297.690911 301.142856,320.690917 301.142856,327.381817 C301.142856,327.381817 305.044645,345.572725 303.812499,350.590907 L299.5,360 L290.464286,356.236366 L288,331.145456 L288.410725,291 L311,297.690911 Z" id="Path" fill="#FFB9B9" fill-rule="nonzero"></path>
                    <path d="M317.06499,160.777775 C317.06499,160.777775 317.899196,174.629631 316.230783,178.827158 C314.562369,183.024686 322.487169,191 322.487169,191 L335,174.629631 C335,174.629631 326.65815,166.234571 328.743614,157 L317.06499,160.777775 Z" id="Path" fill="#FFB9B9" fill-rule="nonzero"></path>
                    <path d="M290.727322,255.609156 C290.727322,255.609156 278.135393,277.538401 290.293106,275.914016 C302.450819,274.28963 298.3259,255 298.3259,255" id="Path" fill="#E6E6E6" fill-rule="nonzero"></path>
                    <polyline id="Path" fill="#FFB9B9" fill-rule="nonzero" points="298.129715 255.374869 302 215.973829 301.796575 192 292.83314 193.667213 292.83314 215.765057 291 256"></polyline>
                    <path d="M288.084422,353.097411 L306.127443,346 L308.22547,381.487021 C308.22547,381.487021 312.001936,392.341897 310.743088,396.516831 C310.743088,396.516831 311.58232,403.61423 309.48427,404.03173 C307.38622,404.449229 301.511775,405.28421 301.092171,404.86674 C300.672567,404.449271 300.672555,403.196761 300.672555,403.196761 C300.672555,403.196761 296.476503,406.11922 296.056899,409.459179 C296.056899,409.459179 278.433487,414.886605 278.013883,409.876685 C277.594279,404.866764 286.825586,400.691806 286.825586,400.691806 L293.958873,389.836954 L288.084422,353.097411 Z" id="Path" fill="#2F2E41" fill-rule="nonzero"></path>
                    <path d="M348,297.690911 C348,297.690911 338.142859,320.690917 338.142859,327.381817 C338.142859,327.381817 342.04464,345.572725 340.812501,350.590907 L336.5,360 L327.464285,356.236366 L325,331.145456 L325.410725,291 L348,297.690911 Z" id="Path" fill="#FFB9B9" fill-rule="nonzero"></path>
                    <path d="M326.08444,353.097413 L344.127446,346 L346.225471,381.487028 C346.225471,381.487028 350.001911,392.341882 348.7431,396.516828 C348.7431,396.516828 349.582332,403.614229 347.484253,404.031728 C345.386174,404.449228 339.511762,405.284209 339.092159,404.866739 C338.672555,404.449269 338.672543,403.196759 338.672543,403.196759 C338.672543,403.196759 334.476493,406.119219 334.056889,409.459179 C334.056889,409.459179 316.433487,414.886606 316.013883,409.876684 C315.594279,404.866763 324.825581,400.691804 324.825581,400.691804 L331.958864,389.83695 L326.08444,353.097413 Z" id="Path" fill="#2F2E41" fill-rule="nonzero"></path>
                    <path d="M334,150.498533 C333.997003,157.380411 328.823061,163.159629 321.986818,163.917081 C315.150576,164.674533 308.838252,160.167987 307.330469,153.453503 C307.108484,152.484272 306.997626,151.492884 307,150.498533 C307.005007,143.042044 313.047699,137 320.500019,137 C327.95234,137 333.995032,143.042044 334,150.498533 Z" id="Path" fill="#FFB9B9" fill-rule="nonzero"></path>
                    <path d="M322.878417,177.337192 L333.29445,172 L337.978721,175.681682 C337.978721,175.681682 349.303952,175.267794 353.498483,180.23433 C357.693015,185.200866 360,197.824091 360,197.824091 C360,197.824091 346.158057,194.926953 347.835865,206.515512 L345.319147,199.893489 L343.012156,205.480828 L314.908812,215 L302.325225,193.892275 C302.325225,193.892275 293.936169,191.409013 291,197.203289 C291,197.203289 291.629178,176.302502 299.808508,175.681712 C305.309302,175.264203 309.455926,175.267824 309.455926,175.267824 L314.069909,174.440048 L317.024617,173.405358 L322.878417,177.337192 Z" id="Path" fill="#3C9DCF" fill-rule="nonzero"></path>
                    <path d="M340.280879,222.229506 C340.280879,222.229506 362.118084,288.55138 355.878899,297.815394 C355.878899,297.815394 332.585917,309.605951 286,293.604477 L304.925496,219.281849 C316.550663,216.874996 328.33579,217.857548 340.280879,222.229506 Z" id="Path" fill="#2F2E41" fill-rule="nonzero"></path>
                    <path d="M339.882593,223 L346,201.57567 C338.661779,193.442514 344.9954,175.407593 344.9954,175.407593 L336.141033,173.473919 C336.141033,173.473919 327.255093,197.894485 318.146703,194.9409 C309.038312,191.987314 314.006521,173 314.006521,173 L305.726164,173.843904 L302,188.611837 L304.691081,220.046445 C315.914405,219.065313 327.685265,220.206984 339.882593,223 Z" id="Path" fill="#3C9DCF" fill-rule="nonzero"></path>
                    <polyline id="Path" fill="#FFB9B9" fill-rule="nonzero" points="351.264051 255.374869 354.169789 215.765057 355 192 345.86827 193.667213 345.86827 215.765057 344 256"></polyline>
                    <path d="M343.727322,255.609156 C343.727322,255.609156 331.135393,277.538401 343.293106,275.914016 C355.450819,274.28963 351.3259,255 351.3259,255" id="Path" fill="#FFFFFF" fill-rule="nonzero"></path>
                    <path d="M360,198.542988 C360,198.542988 358.504514,176.925327 346,177 L346,202 C346,202 355.372227,196.4383 360,198.542988 Z" id="Path" fill="#3C9DCF" fill-rule="nonzero"></path>
                    <path d="M325.318322,154 C325.183163,154.000089 325.062707,153.910689 325.017958,153.777075 C324.97321,153.643461 325.01394,153.494811 325.119521,153.406406 L331.481311,148.074445 C331.570014,147.99909 331.690456,147.979305 331.796916,148.0226 C331.903377,148.065896 331.979532,148.165635 331.996473,148.283953 C332.013413,148.402272 331.968542,148.521029 331.878892,148.595144 L325.517101,153.927105 C325.46065,153.974317 325.390555,154 325.318322,154 Z" id="Path" fill="#FFFFFF" fill-rule="nonzero"></path>
                    <path d="M326,162.21267 C325.8502,162.402634 325.700399,162.59264 325.543784,162.768558 C321.884597,164.482887 317.672903,164.403785 314.076425,162.553183 C310.479947,160.702582 307.880941,157.277173 307,153.226679 L313.452893,152 L326,153.226679 C323.12619,156.843596 323.473509,158.096096 326,162.21267 Z" id="Path" fill="#FFFFFF" fill-rule="nonzero"></path>
                    <path d="M313.108747,131.839453 C313.108747,131.839453 306.113415,133.120046 304.495708,141.611008 C304.242649,143.04292 304.196537,144.502235 304.358712,145.946575 C304.520243,147.580992 304.285912,151.033066 300.639455,155.097847 C298.260118,157.734233 296.043094,160.505283 294,163.396479 L294,163.396479 L301.309502,165.290282 L304.575366,153.503897 C306.158734,147.789585 308.597964,142.333298 311.814583,137.310568 L311.881727,137.205719 C311.881727,137.205719 314.309456,143.518922 320.816427,144.384397 L318.810107,141.813584 C318.810107,141.813584 326.416782,146.093132 330.726409,147.40045 C331.728728,147.704696 332.475783,148.523737 332.667351,149.528421 C332.858919,150.533105 332.463547,151.558474 331.640125,152.192457 C331.609561,152.215856 331.57843,152.239278 331.546731,152.262723 C328.376914,154.605869 321.910235,160.196846 324.465002,165.605365 C327.019769,171.013884 324.040507,172 324.040507,172 L329.53425,169.965953 L332.048724,168.918021 L331.794647,170.727393 L344.069582,170.977674 C344.069582,170.977674 347.386587,170.958064 341.494665,162.340929 C341.494665,162.340929 340.072994,159.10984 341.240125,156.641398 C342.176833,154.772033 342.643195,152.712623 342.600698,150.633225 C342.229636,141.945537 338.469226,124.271245 313.108747,131.839453 Z" id="Path" fill="#2F2E41" fill-rule="nonzero"></path>
                    <path d="M422.484477,0 C478.687934,1.91526051 523.881355,44.1813206 525.927638,96.7434759 L526,96.7433955 L526,412 L328,412 L328,108.221185 L327.937735,108.221262 C326.17698,57.5727773 287.289617,16.8455302 238.928504,15 L238.928504,15 L232.073781,15 C183.711607,16.8442475 144.823048,57.5719798 143.062265,108.221262 L143.062265,108.221262 L143,108.221185 L143,412 L128,412 L128,96.7433955 L128.072362,96.7434759 C130.118677,44.1804929 175.31349,1.91392943 231.518178,0 L422.484477,0 Z" id="Combined-Shape" fill="#00A0F3" opacity="0.25" style="mix-blend-mode: multiply;"></path>
                    <path d="M238.993961,-5.68434189e-14 L238.996685,9.74856985 C290.088473,11.6161246 331.171581,52.8313582 333.031756,104.086704 L333.097537,104.086625 L333.097537,142.816533 L342.749186,142.816533 L342.749186,150.07839 L333.097537,150.07839 L333.097537,263.847492 L342.749186,263.847492 L342.749186,271.10935 L333.097537,271.10935 L333.097537,384.878452 L342.749186,384.878452 L342.749186,392.14031 L333.097537,392.14031 L333.097537,411.505263 L328.271712,411.505263 L328.271712,111.348483 L328.202408,111.350897 C328.248471,110.14551 328.271712,108.934255 328.271712,107.717554 C328.271712,56.2480181 286.680255,14.5237152 235.374593,14.5237152 C184.06893,14.5237152 142.477473,56.2480181 142.477473,107.717554 L142.494852,109.538468 L142.546778,111.350897 L142.477473,111.348483 L142.477473,411.505263 L137.651649,411.505263 L137.651649,392.14031 L128,392.14031 L128,384.878452 L137.651649,384.878452 L137.651649,271.10935 L128,271.10935 L128,263.847492 L137.651649,263.847492 L137.651649,150.07839 L128,150.07839 L128,142.816533 L137.651649,142.816533 L137.651649,104.086625 L137.717429,104.086704 C139.577634,52.8305511 180.662007,11.6148266 231.754915,9.74848166 L231.755225,-5.68434189e-14 L238.993961,-5.68434189e-14 Z" id="Path" fill="#749EB9"></path>
                    <g id="Oval">
                        <use fill="black" fill-opacity="1" filter="url(#filter-3)" xlink:href="#path-2"></use>
                        <use fill="url(#linearGradient-1)" fill-rule="evenodd" xlink:href="#path-2"></use>
                    </g>
                    <mask id="mask-5" fill="white">
                        <use xlink:href="#path-4"></use>
                    </mask>
                    <use id="Combined-Shape" fill="#000000" fill-rule="nonzero" xlink:href="#path-4"></use>
                    <rect id="Rectangle" stroke="#979797" fill="url(#linearGradient-6)" mask="url(#mask-5)" x="17.4365079" y="87.0625" width="441.412698" height="402.277778"></rect>
                    <g id="Group-18" mask="url(#mask-5)">
                        <g transform="translate(59.000000, 302.000000)" id="Group-13">
                            <g></g>
                        </g>
                    </g>
                    <g id="Group-22" mask="url(#mask-5)">
                        <g transform="translate(97.000000, 332.000000)" id="504376">
                            <g transform="translate(0.000000, -204.944444)"></g>
                        </g>
                    </g>
                </g>
                <path d="M624.510536,338.854874 C624.510536,338.854874 612.844172,280.986762 617.305511,273.785465 C617.305511,273.785465 617.465116,267.092048 617.199108,258.564196 C617.199108,258.238242 617.199108,257.912289 617.199108,257.578755 C617.980346,258.110446 618.798124,258.586654 619.646384,259.003854 C623.758368,261.118902 628.484079,261.727852 633,260.724585 L629.450689,256.797983 C628.607063,255.858024 627.717836,254.849842 627.53543,253.606671 C627.486864,252.410905 627.748653,251.222887 628.295454,250.157628 C631.647158,241.705579 631.852364,231.070399 625.361762,224.619553 C619.904792,219.192048 618.567151,212.187839 612.669367,207.237894 C608.337232,203.606924 605.958358,198.285544 603.708688,193.153672 C601.808629,188.802572 599.90857,184.421151 598.806535,179.812321 C597.955309,176.211672 597.620898,172.489738 596.450462,168.972473 C595.280025,165.455207 593.106358,162.036486 589.693852,160.467361 C588.428302,160.026385 587.200649,159.483882 586.022937,158.845174 C584.563692,157.867314 583.689665,156.275448 582.640832,154.888251 C577.320666,147.830979 559.384108,151.984991 550.902244,154.850349 C548.599027,155.570814 546.466051,156.749257 544.632048,158.314552 L544.708051,158.185687 L544.920857,157.874894 C543.995156,158.623206 543.194726,159.513654 542.549584,160.512843 C541.310745,162.468564 540.793929,164.765399 539.767897,166.827244 C538.521458,169.328747 531.605243,176.310216 534.576935,179.122512 C534.781035,179.31076 535.014667,179.4644 535.268557,179.577331 C536.378049,180.029165 537.595134,180.150291 538.772266,179.926025 C538.726665,180.024569 538.681063,180.123114 538.643062,180.221658 C537.633273,182.703866 537.117012,185.358218 537.123015,188.036961 C537.227494,199.714484 546.801836,209.097448 558.510081,208.996527 C560.732398,208.999926 562.942023,208.662448 565.061485,207.995926 C565.114686,208.261237 565.160288,208.526547 565.205889,208.791858 C565.205889,208.905563 565.205889,209.011688 565.259091,209.117812 L565.259091,209.117812 L564.886679,209.640854 L564.825877,209.542309 L553.737132,225.006149 C552.042279,226.188677 542.275975,233.238369 541.751559,238.521847 C541.173941,244.305626 540.596323,251.082426 540.596323,251.082426 L540.52032,252.530266 C539.540617,253.34614 538.252707,253.694957 536.993811,253.485386 C533.535703,252.916862 533.535703,266.189991 533.535703,266.189991 C533.535703,266.189991 531.255632,268.304898 529.651982,266.470462 C528.048332,264.636027 523.891003,270.844303 523.891003,270.844303 L497.677786,271.97377 L497.677786,271.97377 L497.077368,271.97377 L495.663724,267.607509 C495.342128,266.670148 494.334763,266.15439 493.383653,266.440141 C493.272568,266.470513 493.165434,266.513763 493.064443,266.569006 L492.97324,266.629649 C492.908244,266.666371 492.847132,266.709545 492.790834,266.758514 C492.754574,266.782133 492.721387,266.810141 492.692031,266.841898 C492.640162,266.886031 492.591876,266.93419 492.547627,266.985924 C492.520474,267.017335 492.4951,267.050235 492.471624,267.084468 L492.426023,267.12995 L492.426023,267.12995 C492.095169,267.585367 491.999375,268.169869 492.167615,268.706655 L493.383653,272.45133 C488.329495,273.467092 483.153734,276.32487 487.371865,284.208396 L466,280.274213 L472.916215,286.057992 L508.637328,293.410896 C508.166113,294.259891 508.477723,295.480321 509.952169,297.201053 C516.298366,304.64492 527.896327,306.661284 532.555272,307.191905 C533.779323,309.929488 535.309039,312.520644 537.115414,314.916245 L536.705002,322.329791 C536.705002,322.329791 524.909434,378.871348 522.743367,381.744287 C523.813907,380.503376 524.791887,379.185931 525.669458,377.802524 C522.241751,389.423144 517.453602,405.326642 516.199563,407.70686 C514.1779,411.497017 512.308242,426.900213 514.611114,427.893234 C515.333136,428.196447 517.331998,428.052421 520.212488,427.832592 L520.212488,429.106084 L520.083284,477.430582 C520.083284,477.430582 520.660902,507.077187 519.072453,509.897064 C517.484003,512.71694 517.05839,518.644745 517.05839,518.644745 C517.05839,518.644745 510.689392,530.341169 505.658035,535.040963 L505.544031,535.139507 L505.384426,534.032781 C505.384426,534.032781 499.304237,541.658576 485.943021,541.234079 C485.943021,541.234079 477.87917,546.456915 489.834342,546.737386 C501.789514,547.017858 517.05079,546.312889 517.05079,546.312889 C517.05079,546.312889 527.691121,530.083438 536.636599,532.198345 L536.636599,544.478453 L539.372685,544.478453 L539.372685,532.092221 C541.935681,530.406029 543.693709,527.745763 544.236836,524.731737 C544.716957,521.611672 543.505468,518.471211 541.052337,516.476776 C539.956216,515.486476 539.322872,514.085787 539.304283,512.610816 L539.205479,512.694199 C539.205479,512.451629 539.144678,512.201479 539.106676,511.936168 C538.346653,505.583865 537.351022,492.515405 540.81673,482.827765 C545.566878,469.554636 547.010922,451.073832 543.552815,440.059637 C542.439195,436.543572 541.52571,432.967542 540.81673,429.348654 C540.733127,428.886255 540.649524,428.454177 540.581122,428.04484 C542.948686,428.366964 545.292184,428.845577 547.596141,429.47752 C555.621991,431.675811 573.155737,432.085147 588.128203,431.971443 C588.166204,432.38078 588.211805,432.805277 588.257407,433.237355 C588.531716,436.21617 589.096811,439.16118 589.944659,442.030519 C591.814318,447.685432 592.680745,472.518539 592.680745,472.518539 C592.680745,472.518539 595.10522,492.947483 593.782779,501.270667 C593.022755,505.894658 592.384335,510.53381 591.966322,515.195703 L591.966322,515.286666 C591.966322,515.286666 587.998999,526.573753 585.126109,532.721387 C585.050107,532.880574 584.981705,533.03218 584.905702,533.183786 C584.128386,533.254732 583.362681,533.420199 582.625631,533.676506 C582.625631,533.676506 578.741911,541.438747 574.850589,542.71224 C570.959268,543.985733 572.258909,548.215547 581.044782,546.661583 C589.830656,545.107619 603.085469,543.841707 603.085469,543.841707 L603.663087,535.93544 L606.361171,532.569781 L605.677149,540.453307 L608.557639,539.892363 L608.177627,530.295687 L612.593365,524.784799 C612.593365,524.784799 617.91353,520.054683 610.001684,510.746059 L610.001684,510.943147 C609.918081,510.806701 609.834479,510.670256 609.743276,510.54139 L609.743276,510.495908 C608.436035,508.464384 607.387202,504.681808 609.302462,497.96565 C612.76057,485.837149 614.774633,474.822954 614.774633,474.822954 C614.774633,474.822954 622.504073,445.327955 613.208984,431.365018 L613.626997,431.365018 C612.67346,429.400782 611.998183,427.313931 611.620534,425.164321 C611.574933,424.906591 611.536932,424.64128 611.49133,424.40629 C618.331543,424.012114 625.118555,422.768942 630.613526,420.100672 C630.552724,420.017289 627.246621,350.005515 624.510536,338.854874 Z M537.237018,290.037656 L537.237018,290.174102 L535.815774,290.242325 L537.237018,290.037656 Z M532.395667,290.704724 C532.161922,290.754335 531.943197,290.858217 531.757248,291.007937 C531.1513,291.865903 530.769872,292.861269 530.647613,293.903616 L528.443544,293.403316 C528.443544,293.403316 526.923497,293.077362 524.643426,292.713507 L523.586993,291.659844 C526.520684,291.386952 529.530378,291.060999 532.395667,290.704724 L532.395667,290.704724 Z" id="Shape" fill="url(#linearGradient-7)" fill-rule="nonzero"></path>
                <polygon id="Path" fill="#1D2366" fill-rule="nonzero" points="604.897574 530.353959 604 540 607 539.451098 606.54717 529"></polygon>
                <path d="M540.44922,482.93162 C537.049148,492.603647 538.022771,505.664303 538.783413,512.008484 C539.064851,514.356211 539.323469,515.807395 539.323469,515.807395 C539.323469,515.807395 534.242378,527.37128 533.816419,527.796758 C533.390459,528.222236 518.846978,537.081297 518.846978,537.081297 L508.684797,543 C508.684797,543 498.378094,538.486894 503.360301,536.921742 C504.368886,536.516148 505.27724,535.896573 506.022549,535.105863 C510.951511,530.410409 517.196384,518.732557 517.196384,518.732557 C517.196384,518.732557 517.614738,512.813853 519.166448,509.995061 C520.718158,507.176269 520.155283,477.567557 520.155283,477.567557 L520.284592,429.290997 L520.284592,423 L539.620119,423.144359 C539.744884,425.281555 540.024518,427.406912 540.456826,429.503736 C541.153314,433.117157 542.052285,436.688684 543.1495,440.201469 C546.511539,451.225909 545.10435,469.67342 540.44922,482.93162 Z" id="Path" fill="#FFB0B1" fill-rule="nonzero"></path>
                <path d="M540,515.799951 C540,515.799951 534.961919,527.367002 534.539564,527.792596 C534.11721,528.218191 519.704376,537.079676 519.704376,537.079676 L509.628213,543 C509.628213,543 499.408752,538.485658 504.348786,536.920078 C505.348834,536.514373 506.2495,535.894628 506.9885,535.103702 L507.425938,538.189262 L510.789687,538.044864 L539.472057,512 C539.743571,514.34077 540,515.799951 540,515.799951 Z" id="Path" fill="#000000" fill-rule="nonzero" opacity="0.1"></path>
                <path d="M539.060398,513 L509.832888,539.083521 L506.431148,539.21953 L505.729443,534.315647 C505.729443,534.315647 499.780211,541.871707 486.615628,541.46368 C486.615628,541.46368 478.690945,546.654694 490.429238,546.934268 C502.167531,547.213842 517.185529,546.511129 517.185529,546.511129 C517.185529,546.511129 527.657703,530.386495 536.429007,532.494636 L536.429007,544.690118 L539.121416,544.690118 L539.121416,532.351071 C541.652019,530.66231 543.37671,528.022987 543.896056,525.044361 C544.373069,521.955604 543.187385,518.844289 540.768896,516.838479 C539.689664,515.846986 539.071473,514.458097 539.060398,513 L539.060398,513 Z" id="Path" fill="#1D2366" fill-rule="nonzero"></path>
                <path d="M607.83879,498.434098 C605.988305,505.137128 606.999704,508.909955 608.258334,510.936806 L608.258334,510.982353 C609.895183,513.490737 611.032763,516.298912 611.607188,519.249171 L611.727057,519.886832 L598.661283,539.183664 L591.573999,542 C591.573999,542 580.171414,538.060167 582.254146,536.929078 C582.778575,536.648203 583.595186,535.190693 584.501699,533.133477 C587.296156,527.060517 591.13198,515.779992 591.13198,515.779992 L591.13198,515.681307 C591.529048,511.0279 592.173346,506.397268 592.885071,501.781818 C594.158685,493.484635 591.82123,473.094669 591.82123,473.094669 C591.82123,473.094669 590.989635,448.309399 589.176609,442.669136 C588.361475,439.802805 587.817116,436.864443 587.550879,433.893708 C587.176287,430.348617 587.093877,427.45637 587.093877,427.45637 C587.093877,427.45637 594.58572,416.889418 608.363219,428.298993 C609.459309,429.214895 610.42494,430.280191 611.232595,431.464524 C620.739744,445.128685 613.090573,475.349256 613.090573,475.349256 C613.090573,475.349256 611.172661,486.326133 607.83879,498.434098 Z" id="Path" fill="#FFB0B1" fill-rule="nonzero"></path>
                <path d="M612,520.044493 L598.81426,539.203744 L591.661904,542 C591.661904,542 580.154624,538.088257 582.256479,536.965232 C582.785724,536.68636 583.609832,535.239241 584.524669,533.196693 C589.393715,533.196693 591.918965,537.779237 591.918965,537.779237 L598.08844,536.806954 C598.08844,536.806954 606.231239,520.858497 608.053351,519.886214 C609.875463,518.913931 608.333094,512.605398 608.333094,512.605398 L608.333094,511 L608.476746,511.173353 L608.476746,511.218575 C610.139339,513.714141 611.295216,516.510331 611.87903,519.449064 L612,520.044493 Z" id="Path" fill="#000000" fill-rule="nonzero" opacity="0.1"></path>
                <path d="M592.064455,537.835447 C592.064455,537.835447 588.512826,531.392825 581.700436,533.771988 C581.700436,533.771988 577.87325,541.483497 574.046065,542.744831 C570.218879,544.006165 571.489505,548.205577 580.169562,546.664785 C588.849619,545.123994 601.900322,543.86266 601.900322,543.86266 L602.466745,536.015199 L611.269272,524.94265 C611.269272,524.94265 616.527826,520.244747 608.712712,511 L608.712712,512.608767 C608.712712,512.608767 610.243587,518.915437 608.429501,519.897314 C606.615415,520.879191 598.348694,536.853571 598.348694,536.853571 L592.064455,537.835447 Z" id="Path" fill="#1D2366" fill-rule="nonzero"></path>
                <path d="M540.171063,424.133178 C540.294669,426.104841 540.571706,428.065582 541,430 C533.110023,428.920561 525.792766,429.46028 521,429.803738 L521,424 L540.171063,424.133178 Z" id="Path" fill="#000000" fill-rule="nonzero" opacity="0.1"></path>
                <path d="M612,433.333122 C612,433.333122 600.798555,433.885021 587.459199,434 C587.082806,430.420319 587,427.499851 587,427.499851 C587,427.499851 594.527853,416.829796 608.371575,428.350696 C609.472933,429.275535 610.443205,430.351225 611.254743,431.547114 C611.472668,432.15517 611.721422,432.751307 612,433.333122 L612,433.333122 Z" id="Path" fill="#000000" fill-rule="nonzero" opacity="0.1"></path>
                <path d="M612,431.326634 C612,431.326634 562.467047,433.713013 547.355428,429.500864 C532.243808,425.288715 517.299504,428.932679 515.040747,427.947824 C512.781989,426.962969 514.622458,411.644685 516.561795,407.849206 C518.501133,404.053726 529.407052,365.674684 529.407052,365.674684 L539.849052,311.409173 L550.861445,308.37885 L551.621969,308.166727 L570.794789,302.863662 L584.856885,299 C584.856885,299 612.798551,407.667386 610.395294,415.667439 C609.524476,418.737083 609.38644,421.967061 609.992216,425.09932 C610.368439,427.257769 611.044172,429.353614 612,431.326634 L612,431.326634 Z" id="Path" fill="#03306C" fill-rule="nonzero"></path>
                <path d="M504.128197,275 C504.128197,275 494.383821,285.421639 501.759564,291.253863 C509.135308,297.086087 514,291.815374 514,291.815374 L504.128197,275 Z" id="Path" fill="#C7DAF5" fill-rule="nonzero"></path>
                <path d="M504.128197,275 C504.128197,275 494.383821,285.421639 501.759564,291.253863 C509.135308,297.086087 514,291.815374 514,291.815374 L504.128197,275 Z" id="Path" fill="#000000" fill-rule="nonzero" opacity="0.1"></path>
                <path d="M583,205.375252 C583,205.375252 581.853448,206.47322 580.118534,208.112548 C577.65194,210.438106 574.001078,213.846384 570.757543,216.705676 C566.231681,220.655313 562.573276,223.567979 563.893319,221.074676 C565.213362,218.581373 564.96444,214.296246 564.30819,210.262737 L564.172414,209.462135 C563.624985,206.499952 562.899503,203.57424 562,200.701261 C562,200.701261 569.248922,191.231283 573.261853,187.49514 C574.770474,186.099805 575.803879,185.505073 575.856681,186.481045 C575.932112,187.807756 576.920259,190.705173 578.119612,193.846583 C578.164871,193.93808 578.202586,194.037203 578.240302,194.1287 C579.054957,196.240764 579.967672,198.444326 580.774784,200.327647 C582.00431,203.217439 583,205.375252 583,205.375252 Z" id="Path" fill="#FFB0B1" fill-rule="nonzero"></path>
                <path d="M578,194.041132 C576.63257,201.504178 571.372315,207.619688 564.272981,210 C563.726417,206.798971 562.96702,203.63919 562,200.542335 C562,200.542335 575.437326,182.909144 575.645311,186.476509 C575.771588,187.834068 576.766945,190.835783 578,194.041132 Z" id="Path" fill="#000000" fill-rule="nonzero" opacity="0.1"></path>
                <path d="M563.238095,214.487955 L565.002381,212 C565.002381,212 566.171032,219.153816 570.47619,216.00039 C574.781349,212.846963 575,239.745615 575,239.745615 L570.370635,309 L537,306.996024 L537.94246,273.533406 L541.712302,256.692446 L551.053968,232.168317 L556.648413,224.069229 L563.238095,214.487955 Z" id="Path" fill="#000000" fill-rule="nonzero" opacity="0.1"></path>
                <path d="M575,240.753177 L570.823844,303.367974 L570.38663,310 L551.782384,308.88836 L551.028566,308.842987 L537,308.003586 L537.942273,274.533406 L541.711367,257.700008 L551.05118,233.175879 L556.66713,225.069229 L563.278119,215.495517 L565.042055,213 C565.042055,213 566.210474,220.161378 570.514779,217.00039 L570.597699,216.939892 L570.597699,216.939892 C574.796469,214.232634 575,240.753177 575,240.753177 Z" id="Path" fill="#1D2366" fill-rule="nonzero"></path>
                <path d="M542.229873,252 C542.229873,252 540.555583,255.488722 537.191918,254.932331 C533.828254,254.37594 533.835796,267.488722 533.835796,267.488722 C533.835796,267.488722 531.573242,269.578947 530.064872,267.766917 C528.556502,265.954887 524.468821,272.090226 524.468821,272.090226 L499,273.210526 C499,273.210526 510.312772,278.368421 508.095469,294 C508.095469,294 546.558894,291.62406 547.841008,287.984962 C549.123122,284.345865 542.229873,252 542.229873,252 Z" id="Path" fill="#FFFFFF" fill-rule="nonzero"></path>
                <path d="M542.229873,252 C542.229873,252 540.555583,255.488722 537.191918,254.932331 C533.828254,254.37594 533.835796,267.488722 533.835796,267.488722 C533.835796,267.488722 531.573242,269.578947 530.064872,267.766917 C528.556502,265.954887 524.468821,272.090226 524.468821,272.090226 L499,273.210526 C499,273.210526 510.312772,278.368421 508.095469,294 C508.095469,294 546.558894,291.62406 547.841008,287.984962 C549.123122,284.345865 542.229873,252 542.229873,252 Z" id="Path" fill="#000000" fill-rule="nonzero" opacity="0.03"></path>
                <polygon id="Path" fill="#FFFFFF" fill-rule="nonzero" points="468 282 474.71962 287.622338 530 299 523.137088 292.151239"></polygon>
                <path d="M563.159292,216.645403 C562.243485,218.024494 559.609592,225.268514 557.399545,231.565355 C555.56793,236.808934 554.031492,241.41601 554.031492,241.41601 C554.031492,241.41601 550.451518,264.76206 548.627472,268.975109 C546.803425,273.188158 547.787351,289.661483 547.787351,289.661483 L540.97556,330.29922 C540.97556,330.29922 537.887548,351.250804 533.119294,363.761135 C528.441864,376.044143 523.143804,381.825719 523,382 C525.111655,379.14331 536.623582,322.812723 536.623582,322.812723 L540.40791,251.797084 C540.40791,251.797084 540.967991,245.053174 541.53564,239.286753 C542.103289,233.520331 553.471412,225.647385 553.471412,225.647385 L564.461101,210 C565.588831,211.538218 564.847103,214.114542 563.159292,216.645403 Z" id="Path" fill="#FFFFFF" fill-rule="nonzero"></path>
                <path d="M534.170658,309 C534.170658,309 518.226376,308.284293 510.463438,298.60669 C502.7005,288.929087 528.350323,294.716978 528.350323,294.716978 L535,296.272863 L534.170658,309 Z" id="Path" fill="#FFB0B1" fill-rule="nonzero"></path>
                <path d="M610.85345,416.052551 C609.978181,419.128964 609.839441,422.366065 610.448312,425.505231 C592.622227,426.765589 573.550151,421.96712 573.550151,421.96712 C570.003279,425.209123 560.639234,430 560.639234,430 L555.532962,367.156757 C552.276568,358.698696 551,314.320449 551,314.320449 C551,314.320449 551.290477,311.99714 551.764412,308.519768 C551.764412,308.43625 551.764412,308.34514 551.802632,308.261622 C553.0792,298.543204 555.624692,280.298391 556.832463,277.830824 C558.537101,274.452155 551.588597,265.439841 551.588597,265.439841 L554.745618,238.653449 L555.127824,235.426631 C561.80114,232.46555 566.907411,223.028055 566.907411,223.028055 L570.8212,216.194792 L570.8212,216.194792 C575.094263,213.476671 575.300654,240.10362 575.300654,240.10362 L571.065812,302.96964 L585.199788,299.097457 C585.199788,299.097457 613.261348,408.019671 610.85345,416.052551 Z" id="Path" fill="#000000" fill-rule="nonzero" opacity="0.1"></path>
                <path d="M629,421.25842 C609.645308,430.843019 574.461189,421.964734 574.461189,421.964734 C570.92831,425.2077 561.601206,430 561.601206,430 L556.51508,367.138093 C553.271532,358.685114 552,314.293686 552,314.293686 C552,314.293686 556.096312,281.172897 557.786611,277.793224 C558.281519,276.805904 558.045486,275.340114 557.459211,273.760402 C554.570344,266.231252 553.508456,258.127121 554.360328,250.110289 L555.715614,238.604213 L556.096312,235.376436 C562.735687,232.414476 567.821814,222.966583 567.821814,222.966583 L571.362306,216.784441 L577.879858,205.392286 L580.963512,200 L581.481262,200.470876 L585.486206,204.085986 C585.486206,204.085986 587.184119,205.483424 589.727183,207.632743 C595.270147,212.288337 604.848512,220.490688 609.782359,225.503236 C614.129932,229.930987 615.500445,247.11795 615.873529,260.059437 C616.140018,268.573174 615.980125,275.248976 615.980125,275.248976 C611.594482,282.433628 623.038268,340.22223 623.038268,340.22223 C625.748838,351.356162 629,421.25842 629,421.25842 Z" id="Path" fill="#FFFFFF" fill-rule="nonzero"></path>
                <path d="M591.015278,222.99367 C591.015278,222.99367 577.845054,248.184487 579.392272,257.746685 C580.939491,267.308882 585.271702,278.152612 583.165976,280.685343 C581.70585,282.629492 579.423839,283.77448 576.999745,283.779218 C574.901566,283.923295 569.293843,287.858887 569.293843,288.283536 C569.293843,288.708186 564.116322,288.708186 559.482214,290.679773 C554.848107,292.65136 547.995062,293.773648 547.995062,293.773648 C547.995062,293.773648 534.688984,293.348999 533.428567,294.615364 C532.168151,295.88173 530.907734,303.479923 533.571968,309.531179 C536.236203,315.582435 539.172144,320.086753 541.413723,320.90572 C543.655303,321.724687 557.799143,316.970129 569.278748,315.840258 C580.758353,314.710387 593.2795,305.595588 593.2795,305.595588 C593.2795,305.595588 607.000685,300.66662 609.385665,292.363205 C611.770646,284.05979 606.442177,238.470629 606.442177,238.470629 C606.442177,238.470629 602.336388,217.222987 591.015278,222.99367 Z" id="Path" fill="#000000" fill-rule="nonzero" opacity="0.03"></path>
                <path d="M590.030578,219.994265 C590.030578,219.994265 576.862805,245.177379 578.403072,254.747114 C579.943339,264.316849 584.284778,275.152944 582.178237,277.685663 C580.717546,279.629804 578.434651,280.774786 576.009618,280.779524 C573.910627,280.923601 568.308283,284.859173 568.308283,285.283821 C568.308283,285.708468 563.121207,285.700885 558.492855,287.672463 C553.864504,289.644041 547.001255,290.766323 547.001255,290.766323 C547.001255,290.766323 533.690026,290.349259 532.429121,291.615618 C531.168216,292.881978 529.907311,300.480135 532.572577,306.531363 C535.237843,312.58259 538.174921,317.086887 540.417368,317.90585 C542.659816,318.724813 556.809132,313.962694 568.300732,312.840411 C579.792333,311.718129 592.273026,302.573041 592.273026,302.573041 C592.273026,302.573041 605.999524,297.65168 608.385428,289.348304 C610.771331,281.044928 605.440799,235.455984 605.440799,235.455984 C605.440799,235.455984 601.378722,214.223608 590.030578,219.994265 Z" id="Path" fill="#000000" fill-rule="nonzero" opacity="0.03"></path>
                <path d="M591.064664,220.996054 C591.064664,220.996054 577.901893,246.194057 579.412251,255.728641 C580.922609,265.263226 585.295096,276.140389 583.188146,278.673843 C581.729497,280.621352 579.444672,281.767412 577.018333,281.7686 C574.918936,281.912719 569.315507,285.849433 569.315507,286.274204 C569.315507,286.698974 564.127427,286.698974 559.498179,288.671124 C554.868931,290.643273 548.004353,291.765881 548.004353,291.765881 C548.004353,291.765881 534.690546,291.341111 533.429397,292.607838 C532.168248,293.874564 530.907099,301.474925 533.572881,307.527907 C536.238664,313.580889 539.17631,318.086493 541.419192,318.905693 C543.662074,319.724894 557.81413,314.968979 569.307955,313.838786 C580.801781,312.708593 593.269787,303.568438 593.269787,303.568438 C593.269787,303.568438 606.998943,298.638064 609.385308,290.33228 C611.771674,282.026497 606.44011,236.424331 606.44011,236.424331 C606.44011,236.424331 602.415006,215.223724 591.064664,220.996054 Z" id="Path" fill="#FFFFFF" fill-rule="nonzero"></path>
                <path d="M590.916538,288.662446 C590.916538,288.662446 580.014816,286.432978 583.797526,290.154104 C587.580235,293.875231 587.572404,297.147255 592.224432,296.994882 C596.87646,296.842508 590.916538,288.662446 590.916538,288.662446 Z" id="Path" fill="#000000" fill-rule="nonzero" opacity="0.1"></path>
                <path d="M608.281229,365 C608.281229,365 603.381204,368.111158 612.746386,375.27338 C622.111568,382.435602 608.281229,365 608.281229,365 Z" id="Path" fill="#000000" fill-rule="nonzero" opacity="0.1"></path>
                <path d="M599.208278,391 C599.208278,391.431149 597.479983,406.713846 603.98055,410.57109 C610.481117,414.428335 599.208278,391 599.208278,391 Z" id="Path" fill="#000000" fill-rule="nonzero" opacity="0.1"></path>
                <path d="M499.069483,273 C493.950071,273.171562 482.865631,274.708159 488.609733,285.195806 C493.691054,294.475061 502.223406,288.276459 507,283.562239 C505.834541,279.177442 502.99618,275.397178 499.069483,273 L499.069483,273 Z" id="Path" fill="#FFB0B1" fill-rule="nonzero"></path>
                <path d="M507.36,283.64 C507.46,283.55 507.55,283.45 507.64,283.36 C507.55,283.45 507.46,283.55 507.36,283.64 Z" id="Path" fill="#FFB0B1" fill-rule="nonzero"></path>
                <path d="M589,207.475778 C583.56548,211.127609 579.006268,214.210713 578.123349,214.854273 C575.680099,216.620323 571.021939,227.037022 568.053503,232.350138 C565.663533,236.630563 557.922767,237.730603 555,238 L555.350123,234.849547 C561.98724,231.938558 567.071636,222.629382 567.071636,222.629382 L580.208865,200 L584.73002,204.025994 C584.73002,204.025994 586.457802,205.365498 589,207.475778 Z" id="Path" fill="#000000" fill-rule="nonzero" opacity="0.1"></path>
                <path d="M589,207.710997 C583.56548,211.44757 579.006268,214.616368 578.123349,215.268542 C575.680099,217.086957 571.021939,227.759591 568.053503,233.207161 C565.663533,237.595908 557.922767,238.723785 555,239 L555.380569,235.73913 C562.017685,232.746803 567.102082,223.202046 567.102082,223.202046 L580.23931,200 L584.760466,204.127877 C584.760466,204.127877 586.457802,205.508951 589,207.710997 Z" id="Path" fill="#DCE7FF" fill-rule="nonzero"></path>
                <path d="M579,188.995566 C579.004694,190.470949 578.848853,191.942471 578.535124,193.384121 C577.968528,196.078132 576.870262,198.632072 575.304603,200.896473 C569.423564,209.449861 558.175138,212.422734 548.835928,207.891941 C539.496718,203.361148 534.869483,192.686409 537.947579,182.77321 C541.025675,172.860012 550.885346,166.683369 561.148374,168.23895 C571.411401,169.794531 578.997784,178.615497 579,188.995566 L579,188.995566 Z" id="Path" fill="#FFB0B1" fill-rule="nonzero"></path>
                <path d="M615,260 C612.131833,258.242048 609.796757,255.741813 608.243881,252.766023 C607.06593,250.442978 606.283162,247.771855 604.261646,246.114699 C602.452921,244.646716 600.005823,244.283504 597.763916,243.625182 C590.339025,241.438341 584.084485,234.68108 583.871694,226.977954 C583.765298,223.353399 584.897651,219.728843 584.380872,216.142123 C584.089367,214.106708 583.275289,212.180631 582.017371,210.550167 C581.402875,209.764271 580.721445,209.032612 579.980655,208.363327 C578.992696,207.432596 577.95154,206.532132 577.054777,205.540865 C576.472849,204.932472 575.962875,204.25967 575.53484,203.535631 C575.199999,202.9421 574.927504,202.315779 574.721674,201.666602 C573.338531,197.36859 574.592479,192.253351 573.042144,187.902371 C573.042144,187.826702 572.988946,187.743466 572.958547,187.667797 C572.365772,186.116578 571.172621,184.572926 569.52349,184.451855 C567.874358,184.330784 566.438018,185.700397 564.857284,186.320885 C561.543822,187.599694 557.96437,185.420421 555.205685,183.195746 C552.447,180.971071 549.331129,178.428585 545.812475,178.928002 C543.494572,179.25338 541.655448,180.834866 539.519937,181.652094 C539.025055,181.832255 538.516886,181.973929 538,182.075842 C541.742577,172.809057 551.558509,167.485486 561.407418,169.381067 C571.256326,171.276649 578.372594,179.859094 578.377122,189.84707 C578.381911,191.312365 578.226469,192.773824 577.913541,194.205617 C577.959139,194.29642 577.997138,194.39479 578.035136,194.485593 C578.855902,196.58163 579.775464,198.768471 580.58863,200.6375 L584.586064,204.239355 C584.586064,204.239355 586.280794,205.631668 588.819088,207.773107 C594.351658,212.41163 603.912061,220.583905 608.836656,225.578074 C613.236873,229.982022 614.604816,247.105966 615,260 Z" id="Path" fill="#000000" fill-rule="nonzero" opacity="0.1"></path>
                <path d="M539.830702,167.885347 C540.842089,165.826664 541.351584,163.52489 542.553082,161.580156 C544.32491,158.731426 547.42751,156.946221 550.59855,155.852309 C558.902568,152.995981 576.453551,148.840633 581.692991,155.852309 C582.727191,157.242489 583.578885,158.837778 585.008515,159.817742 C586.164137,160.446373 587.366683,160.984805 588.605402,161.428224 C591.951343,163.000723 594.088183,166.411603 595.228845,169.921239 C596.369507,173.430876 596.704101,177.153217 597.510169,180.754012 C598.574786,185.357561 600.453076,189.725615 602.316157,194.070878 C604.513832,199.198593 606.878804,204.508627 611.091649,208.139809 C616.878607,213.085205 618.178961,220.081688 623.524863,225.498074 C629.889756,231.940004 629.684437,242.567668 626.406935,250.999911 C625.86369,252.066118 625.601943,253.253229 625.646494,254.448774 C625.954812,255.669635 626.606592,256.776787 627.524784,257.639352 L631,261.559205 C622.471557,263.397368 613.756101,259.368007 609.639206,251.683606 C608.452918,249.351445 607.669663,246.66984 605.64689,245.013778 C603.83704,243.532438 601.396023,243.175397 599.145117,242.506895 C591.715607,240.311473 585.457175,233.527696 585.244252,225.794342 C585.13779,222.16316 586.270847,218.516785 585.761352,214.91599 C585.456118,212.898508 584.645198,210.990879 583.403984,209.370461 C581.44965,206.833191 578.521951,205.10876 576.940234,202.328399 C574.26348,197.610901 576.293859,191.472836 574.362338,186.375507 C573.769194,184.856184 572.582905,183.268492 570.925144,183.146946 C569.267382,183.0254 567.837752,184.407984 566.256034,185.02331 C562.940511,186.307138 559.366437,184.119313 556.606035,181.885908 C553.845634,179.652503 550.72022,177.107637 547.206982,177.609014 C544.880032,177.935668 543.047368,179.515764 540.902924,180.336199 C539.321206,180.943928 536.112144,181.490884 534.720537,180.15388 C531.808047,177.358325 538.583578,170.384633 539.830702,167.885347 Z" id="Path" fill="#591D4B" fill-rule="nonzero"></path>
                <path d="M611.715235,249.383717 C610.536552,247.054709 609.753299,244.376729 607.730528,242.71532 C605.92068,241.235982 603.472062,240.879424 601.228763,240.219412 C593.799262,238.026958 587.540838,231.252352 587.327915,223.529453 C587.213849,219.895593 588.354509,216.261734 587.83741,212.665806 C587.545723,210.625167 586.73114,208.694146 585.472441,207.059497 C583.525714,204.525658 580.590414,202.795971 579.016303,200.019369 C576.331949,195.308248 578.369928,189.178481 576.43841,184.088044 C575.845267,182.570775 574.65898,180.985228 573.00122,180.863847 C571.34346,180.742465 569.913833,182.115594 568.332117,182.730088 C565.016597,184.019767 561.434923,181.834899 558.68213,179.604514 C555.929336,177.374128 552.796322,174.832702 549.275483,175.325815 C546.994163,175.652028 545.12348,177.229988 542.979038,178.056899 C541.397322,178.663807 538.188264,179.210024 536.796659,177.874827 C533.884172,175.067879 540.659695,168.103614 541.884004,165.615293 C542.89539,163.559393 543.404885,161.260731 544.60638,159.318626 L544.811699,159 C543.917341,159.755374 543.147512,160.646255 542.530378,161.640048 C541.313674,163.582153 540.811783,165.880815 539.808002,167.936715 C538.583693,170.432622 531.80817,177.396887 534.720657,180.196249 C536.104658,181.531445 539.283298,180.954883 540.903036,180.378321 C543.039873,179.558996 544.872534,177.981036 547.199482,177.647237 C550.712716,177.154124 553.838125,179.69555 556.598523,181.925935 C559.358922,184.156321 562.940595,186.341188 566.24851,185.059096 C567.837831,184.444602 569.221832,183.056301 570.917614,183.185269 C572.613396,183.314236 573.769265,184.854265 574.362408,186.409465 C576.293926,191.469558 574.255947,197.599325 576.932696,202.34079 C578.514412,205.109806 581.449712,206.839493 583.396439,209.373332 C584.655138,211.007981 585.469722,212.939003 585.761408,214.979641 C586.278507,218.575569 585.137847,222.209428 585.251913,225.843288 C585.487649,233.573774 591.72326,240.34838 599.152761,242.533247 C601.39606,243.193259 603.844678,243.549818 605.654526,245.036741 C607.677297,246.690565 608.452946,249.368544 609.639233,251.697552 C613.756123,259.371565 622.471567,263.395479 631,261.559801 L629.365053,259.708733 C622.186497,259.830114 614.969919,255.779006 611.715235,249.383717 Z" id="Path" fill="#000000" fill-rule="nonzero" opacity="0.1"></path>
                <path d="M563.097646,217.78707 C562.135966,219.193956 559.392811,226.583978 557.098967,233 C554.954892,232.188335 553,226.962755 553,226.962755 L564.421928,211 C565.620087,212.57695 564.84759,215.2052 563.097646,217.78707 Z" id="Path" fill="#000000" fill-rule="nonzero" opacity="0.1"></path>
                <path d="M563.084025,216.779339 C562.130769,218.186226 559.389175,225.576247 557.088757,232 C554.945902,231.188335 553,225.962755 553,225.962755 L564.439065,210 C565.612909,211.56922 564.840851,214.19747 563.084025,216.779339 Z" id="Path" fill="#DCE7FF" fill-rule="nonzero"></path>
                <path d="M499.426789,289.008439 L493.09103,269.412557 C492.937666,268.947185 492.979304,268.440986 493.206741,268.00583 C493.434178,267.570673 493.828689,267.242386 494.303088,267.093517 L494.303088,267.093517 C494.776833,266.93851 495.294171,266.977376 495.738401,267.201347 C496.182632,267.425318 496.516337,267.815529 496.66424,268.283958 L503,287.8953 L502.370359,292 L499.426789,289.008439 Z" id="Path" fill="#BE8B87" fill-rule="nonzero"></path>
                <path d="M494.329805,268.602193 L494.329805,268.602193 C494.771993,268.457813 495.25276,268.498122 495.665508,268.714184 C496.078256,268.930246 496.388878,269.304206 496.528502,269.753148 L502.428339,288.576836 L501.98127,291.547043 L502.413681,292 L503,288.05705 L497.100163,269.233362 C496.962436,268.783392 496.651691,268.408558 496.238025,268.193413 C495.824359,267.978268 495.342616,267.940933 494.901466,268.089832 L494.901466,268.089832 C494.534206,268.205314 494.216427,268.443515 494,268.765554 C494.10368,268.698994 494.214282,268.644209 494.329805,268.602193 L494.329805,268.602193 Z" id="Path" fill="#FFFFFF" fill-rule="nonzero" opacity="0.1"></path>
                <polygon id="Path" fill="#EFC8C4" fill-rule="nonzero" points="499 289.084746 502 288 501.561947 291.284369 501.469027 292 500.59292 290.960452"></polygon>
                <path d="M501,291.176903 C501.056553,291.120667 501.123695,291.072972 501.19863,291.035801 C501.288928,290.988066 501.402852,290.988066 501.493151,291.035801 C501.537995,291.079843 501.574931,291.129382 501.60274,291.182783 C501.686428,291.308072 501.833251,291.392816 502,291.412074 L501.90411,292 L501,291.176903 Z" id="Path" fill="#727A9C" fill-rule="nonzero"></path>
                <path d="M493,277 C493,277 505.498271,276.931628 502.549762,282.146534 C499.601254,287.36144 495.012106,288 495.012106,288 L493,277 Z" id="Path" fill="#FFB0B1" fill-rule="nonzero"></path>
            </g>
        </g>
    </g>
</svg>